<svg width="200" height="154" viewBox="0 0 200 154" fill="none" xmlns="http://www.w3.org/2000/svg">
<g clip-path="url(#clip0_706_220)">
<path opacity="0.1" d="M196.131 34.9841C194.087 31.0127 191.407 27.4027 188.196 24.2973L78.1327 23.3805L168.752 12.6212C162.823 10.6373 156.619 9.59689 150.366 9.53805C141.642 3.5823 130.43 0.0088501 118.2 0.0088501C107.227 0.0088501 97.0796 2.89204 88.8071 7.78407C81.777 4.72212 73.7628 2.98584 65.2478 2.98584C40.7929 2.98584 20.4159 17.3044 15.8442 36.2938L196.131 34.9841Z" fill="#00BAFC"/>
<path opacity="0.1" d="M200 50.9098C199.992 45.7066 198.82 40.571 196.57 35.8797L5.81593 52.8071C3.87975 55.7587 2.37489 58.9717 1.3469 62.3487L60.4177 69.7929L0 75.2195C1.8177 96.7168 23.6159 113.69 50.2442 113.69C63.6478 113.69 75.8265 109.389 84.8513 102.375C93.9044 109.522 106.2 113.917 119.749 113.917C139.85 113.917 157.2 104.241 165.28 90.2514C181.488 85.9009 194.08 74.9806 198.389 61.3186L123.687 51.5239H200C200 51.3186 200 51.1151 200 50.9098Z" fill="#00BAFC"/>
<path opacity="0.1" d="M88.4921 153.644C116.837 153.644 139.816 152.619 139.816 151.354C139.816 150.089 116.837 149.064 88.4921 149.064C60.1466 149.064 37.1682 150.089 37.1682 151.354C37.1682 152.619 60.1466 153.644 88.4921 153.644Z" fill="#00BAFC"/>
<path d="M118.954 147.326V148.71H78.0248V147.586C80.5209 146.661 82.6865 145.016 84.2475 142.86C85.8084 140.704 86.6946 138.133 86.7937 135.473C86.8928 132.813 86.2004 130.183 84.8042 127.917C83.4081 125.651 81.3708 123.85 78.9505 122.742H118.676C116.31 123.825 114.309 125.571 112.916 127.769C111.522 129.967 110.796 132.522 110.825 135.124C110.855 137.726 111.638 140.264 113.081 142.43C114.524 144.595 116.564 146.296 118.954 147.326Z" fill="#C8CAD7"/>
<path opacity="0.1" d="M118.676 122.742C116.85 123.58 115.235 124.816 113.949 126.359C112.663 127.902 111.738 129.713 111.243 131.66H86.3859C85.89 129.713 84.9651 127.902 83.6789 126.359C82.3927 124.816 80.7778 123.58 78.9522 122.742H118.676Z" fill="black"/>
<path d="M31.1505 115.69V123.46C31.1505 127.75 34.2903 131.228 38.1646 131.228H158.593C162.467 131.228 165.607 127.75 165.607 123.46V115.69H31.1505Z" fill="#C8CAD7"/>
<path opacity="0.1" d="M118.954 147.326V148.71H78.0248V147.586C79.1469 147.168 80.2082 146.603 81.1806 145.904H116.444C117.228 146.466 118.069 146.943 118.954 147.326Z" fill="black"/>
<path d="M130.798 146.336H66.1805C65.2519 146.336 64.4991 147.089 64.4991 148.018V148.756C64.4991 149.684 65.2519 150.437 66.1805 150.437H130.798C131.727 150.437 132.48 149.684 132.48 148.756V148.018C132.48 147.089 131.727 146.336 130.798 146.336Z" fill="#C8CAD7"/>
<path d="M165.607 30.5522C165.605 28.6936 164.865 26.912 163.549 25.5988C162.234 24.2856 160.452 23.5482 158.593 23.5487H38.1699C36.3104 23.5468 34.5263 24.2836 33.21 25.5969C31.8936 26.9103 31.1528 28.6927 31.1505 30.5522V117.202H165.607V30.5522Z" fill="#474157"/>
<path d="M161.947 33.6814V108.136C161.947 108.59 161.858 109.039 161.685 109.458C161.511 109.877 161.257 110.258 160.936 110.579C160.615 110.899 160.235 111.154 159.815 111.327C159.396 111.5 158.947 111.59 158.494 111.589H38.2779C37.8243 111.59 37.3752 111.5 36.9561 111.327C36.5371 111.154 36.1563 110.899 35.8356 110.579C35.5149 110.258 35.2606 109.877 35.0871 109.458C34.9137 109.039 34.8245 108.59 34.8248 108.136V33.6814C34.8248 32.7656 35.1886 31.8873 35.8362 31.2397C36.4837 30.5922 37.362 30.2283 38.2779 30.2283H158.485C158.939 30.2272 159.389 30.3156 159.809 30.4887C160.229 30.6617 160.611 30.9158 160.932 31.2366C161.254 31.5574 161.509 31.9384 161.683 32.3579C161.857 32.7775 161.947 33.2272 161.947 33.6814Z" fill="#4C4C78"/>
<path d="M98.3805 28.5027C99.2749 28.5027 100 27.7776 100 26.8832C100 25.9888 99.2749 25.2637 98.3805 25.2637C97.4861 25.2637 96.7611 25.9888 96.7611 26.8832C96.7611 27.7776 97.4861 28.5027 98.3805 28.5027Z" fill="white"/>
<path d="M98.3805 127.777C100.586 127.777 102.373 125.989 102.373 123.784C102.373 121.579 100.586 119.791 98.3805 119.791C96.1753 119.791 94.3876 121.579 94.3876 123.784C94.3876 125.989 96.1753 127.777 98.3805 127.777Z" fill="white"/>
<path d="M61.6867 31.9558V111.589H38.2779C37.8243 111.59 37.3752 111.5 36.9561 111.327C36.5371 111.154 36.1563 110.899 35.8356 110.579C35.5149 110.258 35.2606 109.877 35.0871 109.458C34.9137 109.039 34.8245 108.59 34.8248 108.136V33.6814L34.9504 33.2124L35.2867 31.9558H61.6867Z" fill="white"/>
<path d="M64.6903 33.2123V40.3805H34.8248V33.6814L34.9504 33.2123H64.6903Z" fill="#4C4C78"/>
<path d="M161.947 33.6814H34.8248C34.8248 33.228 34.9141 32.7791 35.0877 32.3602C35.2612 31.9414 35.5156 31.5608 35.8363 31.2403C36.1569 30.9198 36.5376 30.6656 36.9566 30.4923C37.3755 30.3189 37.8245 30.2298 38.2779 30.2301H158.485C158.939 30.2287 159.389 30.3169 159.809 30.4897C160.229 30.6625 160.611 30.9165 160.932 31.2372C161.254 31.5578 161.509 31.9387 161.683 32.3582C161.857 32.7776 161.947 33.2273 161.947 33.6814Z" fill="#C8CAD7"/>
<path d="M38.2779 32.8195C38.7549 32.8195 39.1416 32.4328 39.1416 31.9558C39.1416 31.4787 38.7549 31.092 38.2779 31.092C37.8008 31.092 37.4141 31.4787 37.4141 31.9558C37.4141 32.4328 37.8008 32.8195 38.2779 32.8195Z" fill="#EDEDF4"/>
<path d="M40.8673 32.8195C41.3443 32.8195 41.731 32.4328 41.731 31.9558C41.731 31.4787 41.3443 31.092 40.8673 31.092C40.3902 31.092 40.0035 31.4787 40.0035 31.9558C40.0035 32.4328 40.3902 32.8195 40.8673 32.8195Z" fill="#EDEDF4"/>
<path d="M43.4566 32.8195C43.9336 32.8195 44.3203 32.4328 44.3203 31.9558C44.3203 31.4787 43.9336 31.092 43.4566 31.092C42.9796 31.092 42.5929 31.4787 42.5929 31.9558C42.5929 32.4328 42.9796 32.8195 43.4566 32.8195Z" fill="#EDEDF4"/>
<path d="M57.223 36.3682H39.2885V38.0195H57.223V36.3682Z" fill="#00BAFC"/>
<path opacity="0.5" d="M57.223 44.4213H39.2885V46.0726H57.223V44.4213Z" fill="#00BAFC"/>
<path opacity="0.5" d="M57.223 50.115H39.2885V51.7663H57.223V50.115Z" fill="#00BAFC"/>
<path opacity="0.5" d="M57.223 55.8088H39.2885V57.4601H57.223V55.8088Z" fill="#00BAFC"/>
<path opacity="0.5" d="M57.223 61.5009H39.2885V63.1522H57.223V61.5009Z" fill="#00BAFC"/>
<path opacity="0.5" d="M57.223 67.1946H39.2885V68.846H57.223V67.1946Z" fill="#00BAFC"/>
<path opacity="0.5" d="M57.223 72.8884H39.2885V74.5398H57.223V72.8884Z" fill="#00BAFC"/>
<path opacity="0.5" d="M57.223 78.5805H39.2885V80.2319H57.223V78.5805Z" fill="#00BAFC"/>
<path opacity="0.5" d="M155.841 42.4407H76.3699V42.7062H155.841V42.4407Z" fill="#DCE0ED"/>
<path opacity="0.5" d="M155.841 48.6053H76.3699V48.8708H155.841V48.6053Z" fill="#DCE0ED"/>
<path opacity="0.5" d="M155.841 54.7717H76.3699V55.0372H155.841V54.7717Z" fill="#DCE0ED"/>
<path opacity="0.5" d="M155.841 60.9362H76.3699V61.2017H155.841V60.9362Z" fill="#DCE0ED"/>
<path opacity="0.5" d="M155.841 67.1009H76.3699V67.3664H155.841V67.1009Z" fill="#DCE0ED"/>
<path opacity="0.5" d="M155.843 67.3645H76.2727V55.2407L83.57 58.8371L91.1222 59.8601L97.7488 57.8619L105.743 51.6619L109.765 49.3398L112.705 48.7734L115.517 48.9238L120.143 51.2088L126.43 55.2141L131.365 55.8495L135.278 54.5008L143.57 47.7079L147.804 46.1982L152.234 46.8831L155.843 48.9663V67.3645Z" fill="#00BAFC"/>
<path d="M90.1417 59.8637C82.9771 59.8637 76.3541 55.4814 76.2727 55.4248L76.4691 55.131C76.5718 55.2 86.7629 61.9434 95.4231 58.5646C98.5842 57.3345 100.828 55.4177 103.009 53.5664C105.28 51.6319 107.425 49.8036 110.347 49.0106C113.71 48.1027 117.365 48.9257 120.149 51.2124C122.528 53.1682 127.267 56.3098 132.274 55.3699C134.827 54.8921 136.979 53.0266 139.257 51.0531C143.618 47.2655 148.142 43.3558 155.945 48.9699L155.738 49.2567C148.154 43.8071 143.745 47.6266 139.483 51.3204C137.168 53.3275 134.981 55.2142 132.335 55.7186C127.184 56.6832 122.345 53.4814 119.919 51.4868C117.223 49.2708 113.678 48.4779 110.435 49.354C107.588 50.1257 105.48 51.9275 103.234 53.8354C101.037 55.7062 98.7647 57.6425 95.5523 58.8956C93.8248 59.5523 91.9898 59.8806 90.1417 59.8637Z" fill="#00BAFC"/>
<path d="M114.611 50.708C115.699 50.708 116.581 49.826 116.581 48.738C116.581 47.6501 115.699 46.7681 114.611 46.7681C113.523 46.7681 112.641 47.6501 112.641 48.738C112.641 49.826 113.523 50.708 114.611 50.708Z" fill="#00BAFC"/>
<path d="M65.2425 91.5468C62.5504 89.9964 61.5257 89.6123 61.5257 89.6106L61.4708 89.5716C61.1767 89.3461 60.9432 89.0511 60.7911 88.7132C60.7911 88.6513 60.7911 88.5893 60.7911 88.5362V88.5539C60.8354 87.7327 61.4177 86.9875 61.9717 86.3362C62.4437 85.7805 62.9156 85.2253 63.3876 84.6707C63.5503 84.5022 63.6747 84.3006 63.7522 84.0796C63.781 83.9639 63.7941 83.8448 63.7911 83.7256C63.7911 83.676 63.7911 83.6283 63.7911 83.5805C63.7911 83.1663 63.7717 82.7521 63.7575 82.3415C63.7434 81.9787 63.6513 81.5238 63.2885 81.4566C63.1009 81.4176 62.8531 81.4849 62.7575 81.3238C62.7228 81.2581 62.7139 81.1816 62.7327 81.1097C62.7327 81.1097 62.7327 81.1203 62.7327 81.1256C62.732 81.1191 62.732 81.1126 62.7327 81.1061C62.8025 80.8269 62.8475 80.542 62.8673 80.2548C62.8736 80.1091 62.8538 79.9634 62.8088 79.8247C62.5982 79.2247 61.8779 78.9787 61.2407 78.8654C60.6035 78.7521 59.8885 78.6548 59.4885 78.1575C59.3788 77.9916 59.2606 77.8315 59.1345 77.6778C58.9492 77.5145 58.7238 77.4033 58.4814 77.3557C57.6909 77.1599 56.8578 77.2327 56.1133 77.5628C55.8053 77.7008 55.4956 77.8849 55.1575 77.8654C54.8195 77.846 54.5062 77.5999 54.1593 77.5415C53.6 77.446 53.0637 77.8583 52.7876 78.3451C52.6239 78.634 52.5367 78.9599 52.5345 79.292C52.5345 79.3097 52.5345 79.3291 52.5345 79.3468C52.5275 79.7038 52.6581 80.0498 52.8991 80.3132C53.1398 80.5645 53.4991 80.7362 53.6071 81.0654C53.6478 81.1999 53.6389 81.3451 53.6743 81.4796C53.6743 81.4973 53.6849 81.5132 53.6903 81.5309L53.6708 81.5539C53.0959 82.2938 52.7844 83.2045 52.7858 84.1415C52.7914 85.0513 53.0858 85.9358 53.6266 86.6675C54.1674 87.3991 54.9266 87.9401 55.7947 88.2123C55.7947 88.253 55.7947 88.2955 55.7947 88.3398C55.8067 88.6054 55.7607 88.8705 55.6598 89.1166C55.5589 89.3626 55.4056 89.5837 55.2106 89.7645L51.3911 91.2973C51.3911 91.2973 49.0902 91.0247 48.2619 94.3858C48.1292 94.9435 48.0814 95.5182 48.1203 96.0902C48.1504 96.5982 48.0796 97.4902 47.4902 98.6442C46.5469 100.492 46.761 104.731 48.6902 105.15C50.5115 105.547 51.2248 105.382 51.2991 105.363V105.437C51.269 106.234 50.9805 113.094 49.931 113.933C49.6389 114.161 49.6938 114.317 49.931 114.421C49.931 114.421 49.931 114.465 49.931 114.545C49.8991 115.048 49.7363 116.957 49.0336 118.046C48.2265 119.301 48.3186 126.557 48.3186 126.557L47.7628 130.839C47.7628 130.839 48.1044 133.483 47.7628 133.945C47.4566 134.357 47.0548 144.142 46.9628 146.262H46.9274C46.7594 146.272 46.5963 146.323 46.4526 146.411C46.3088 146.498 46.1887 146.62 46.1026 146.765C45.646 147.497 44.0708 148.848 44.0708 148.848C43.7292 149.334 42.4619 149.8 41.7929 150.019C41.7034 150.048 41.6168 150.086 41.5345 150.131C41.284 150.267 41.0827 150.479 40.9593 150.736C40.9158 150.812 40.888 150.896 40.8777 150.982C40.8673 151.069 40.8746 151.157 40.8991 151.241C41.0761 151.66 44.6283 151.949 45.5274 151.534C46.2354 151.205 49.0389 150.77 50.2035 150.6C50.4149 150.573 50.6113 150.477 50.7619 150.327C50.9125 150.176 51.0088 149.979 51.0354 149.768C51.0465 149.695 51.0429 149.621 51.0246 149.549C51.0064 149.478 50.9739 149.411 50.9292 149.352C50.7062 149.076 50.5911 148.322 50.5398 147.83C50.6343 147.791 50.7226 147.739 50.8018 147.674C50.7062 146.149 50.9249 144.62 51.4442 143.182C52.3009 140.917 52.5593 136.719 52.3451 133.989C52.3451 133.989 54.9593 122.738 57.0177 121.688C57.0495 121.727 58.0478 123.009 58.1752 126.977C58.3026 131.007 59.7593 133.651 59.7593 133.651C59.7593 133.651 59.1168 140.494 59.7593 143.055L58.915 147.088C58.8798 147.06 58.8461 147.029 58.8141 146.996C58.8141 146.996 58.8389 147.11 58.8743 147.288L58.8566 147.373L58.892 147.382C58.9876 147.887 59.1292 148.766 59.069 149.283C59.0354 149.579 58.954 149.98 58.892 150.377C58.8035 150.998 58.7788 151.602 59.1062 151.733C59.6372 151.949 62.7929 152.244 63.3292 151.556C63.4494 151.415 63.5277 151.243 63.5552 151.059C63.5827 150.876 63.5584 150.689 63.4849 150.519C63.446 150.424 63.3936 150.335 63.3292 150.255C63.3292 150.255 62.492 148.887 62.7292 147.922C62.7509 147.828 62.7532 147.731 62.7358 147.636C62.7185 147.541 62.6819 147.45 62.6283 147.37C62.7511 145.843 62.9967 144.328 63.3628 142.841C63.8938 140.821 65.0301 136.393 64.1982 133.48C64.1664 133.366 64.131 133.253 64.092 133.143C63.6115 131.553 63.4509 129.884 63.6195 128.232C63.3099 126.821 63.3099 125.361 63.6195 123.95C64.1292 121.602 64.4885 119.301 64.4885 119.301C64.4885 119.301 64.7717 116.195 64.5239 114.29L64.508 114.168L64.6425 114.138C64.6425 114.138 63.915 110.906 63.6566 108.85C63.5965 108.363 63.5168 107.749 63.4301 107.092C63.6674 107.051 63.9011 106.992 64.1292 106.915C66.4442 106.117 67.1717 98.8955 67.1717 98.8955V96.6053C67.1717 96.6053 67.9434 93.1061 65.2425 91.5468ZM47.9982 147.299L47.8849 147.239L47.9982 147.299Z" fill="url(#paint0_linear_706_220)"/>
<path d="M63.8461 133.212C64.8496 136.099 63.6691 140.784 63.1381 142.876C62.7806 144.389 62.5438 145.928 62.4302 147.478C61.2088 147.684 59.9593 147.655 58.7487 147.393L59.6337 143.085C59.0071 140.533 59.6337 133.713 59.6337 133.713C59.6337 133.713 58.2178 131.076 58.0868 127.06C57.9629 123.108 56.9895 121.83 56.9576 121.789C54.9346 122.841 52.3895 134.05 52.3895 134.05C52.5983 136.768 52.347 140.952 51.5045 143.212C50.9967 144.647 50.783 146.169 50.8762 147.689C50.5841 147.935 50.1771 147.977 49.7381 147.906C48.5434 147.713 47.1116 146.683 47.1116 146.683C47.1116 146.683 47.5718 134.471 47.9063 134.007C48.2408 133.543 47.9063 130.912 47.9063 130.912L48.4496 126.644C48.4496 126.644 48.3664 119.407 49.1576 118.149C49.8443 117.064 50.0018 115.159 50.0337 114.66C50.0337 114.581 50.0337 114.536 50.0337 114.536L51.2443 113.087C51.2443 113.087 62.9594 112.202 63.8372 113.087C64.0532 113.303 64.1912 113.795 64.2656 114.411C64.5063 116.308 64.2302 119.404 64.2302 119.404C64.2302 119.404 63.8762 121.704 63.3771 124.046C63.075 125.452 63.075 126.907 63.3771 128.313C63.2136 129.961 63.3729 131.625 63.8461 133.212Z" fill="#65617D"/>
<path d="M63.1132 151.558C62.5911 152.248 59.5168 151.956 58.9929 151.735C58.6725 151.602 58.6973 151.002 58.7841 150.382C58.8389 149.988 58.9186 149.586 58.9504 149.294C59.0354 148.54 58.7009 147.012 58.7009 147.012C58.7009 147.012 59.3911 147.745 59.5575 147.012C59.596 146.873 59.6719 146.746 59.777 146.646C59.8821 146.546 60.0124 146.477 60.154 146.446C60.5126 146.338 60.8982 146.361 61.2407 146.513C61.784 146.749 62.6902 147.251 62.5274 147.929C62.2973 148.89 63.1132 150.253 63.1132 150.253C63.1765 150.333 63.2278 150.422 63.2654 150.517C63.3388 150.687 63.3635 150.875 63.3366 151.059C63.3097 151.242 63.2324 151.415 63.1132 151.558Z" fill="#A27772"/>
<path opacity="0.1" d="M63.1133 151.558C62.5911 152.248 59.5168 151.956 58.9929 151.735C58.6726 151.602 58.6973 151.002 58.7841 150.382C59.1133 150.536 59.669 150.666 60.6106 150.579C60.8294 150.558 61.0493 150.551 61.269 150.558C61.9346 150.589 62.6016 150.576 63.2655 150.519C63.3385 150.689 63.363 150.876 63.3361 151.06C63.3092 151.243 63.2321 151.415 63.1133 151.558Z" fill="black"/>
<path opacity="0.1" d="M52.3893 134.049C52.5982 136.768 52.3469 140.952 51.5044 143.212C50.9966 144.647 50.7829 146.169 50.8761 147.688C50.584 147.934 50.1769 147.977 49.738 147.906C49.9911 146.136 51.0654 138.538 51.7557 132.533C52.5398 125.692 56.2106 120.986 56.2106 120.986L56.9433 121.791C54.9345 122.841 52.3893 134.049 52.3893 134.049Z" fill="black"/>
<path d="M61.8583 90.0797L61.3468 92.5894L58.846 96.7947L55.761 95.4761C55.761 95.4761 51.5663 91.0832 54.2017 90.4566C54.5176 90.3892 54.816 90.2565 55.0778 90.0673C55.5946 89.6761 55.7575 89.1097 55.761 88.554C55.7402 87.9314 55.5945 87.3193 55.3327 86.754L60.7291 85.0602C60.5059 85.769 60.3756 86.5037 60.3415 87.246C60.3008 88.715 60.846 89.4407 61.2937 89.7858C61.4604 89.9205 61.6524 90.0204 61.8583 90.0797Z" fill="#FBBEBE"/>
<path opacity="0.1" d="M60.7292 85.0602C60.5059 85.769 60.3756 86.5037 60.3415 87.246C59.7948 87.895 59.0668 88.366 58.2509 88.599C57.4349 88.832 56.568 88.8164 55.761 88.554C55.7402 87.9314 55.5946 87.3193 55.3327 86.754L60.7292 85.0602Z" fill="black"/>
<path d="M61.3469 84.3699C61.3469 85.2139 61.0966 86.0389 60.6277 86.7406C60.1588 87.4424 59.4924 87.9893 58.7126 88.3123C57.9329 88.6353 57.0749 88.7198 56.2471 88.5551C55.4193 88.3905 54.659 87.9841 54.0622 87.3873C53.4654 86.7905 53.059 86.0301 52.8943 85.2024C52.7297 84.3746 52.8142 83.5166 53.1372 82.7369C53.4602 81.9571 54.0071 81.2907 54.7088 80.8218C55.4106 80.3529 56.2356 80.1026 57.0796 80.1026C57.6404 80.1012 58.1959 80.2106 58.7143 80.4246C59.2326 80.6385 59.7036 80.9528 60.1001 81.3493C60.4967 81.7459 60.811 82.2168 61.0249 82.7352C61.2389 83.2536 61.3483 83.8091 61.3469 84.3699Z" fill="#FBBEBE"/>
<path opacity="0.1" d="M61.8583 90.0796L61.3468 92.5893L58.846 96.7946L55.761 95.476C55.761 95.476 51.5663 91.0831 54.2017 90.4566C54.5176 90.3891 54.816 90.2565 55.0778 90.0672C54.6017 91.3752 56.5663 94.0955 56.5663 94.0955C56.7946 94.4318 57.3203 94.2212 57.3203 94.2212C58.584 94.03 60.915 90.3911 61.2937 89.7858C61.4604 89.9204 61.6524 90.0204 61.8583 90.0796Z" fill="black"/>
<path opacity="0.1" d="M64.2744 114.414C63.531 114.591 59.4213 115.492 57.8637 115.265C56.1487 115.014 52.8124 114.848 52.8124 114.848C52.8124 114.848 50.6885 114.961 50.0372 114.671C50.0372 114.591 50.0372 114.547 50.0372 114.547L51.2478 113.097C51.2478 113.097 62.9629 112.212 63.8407 113.097C64.0708 113.306 64.1947 113.796 64.2744 114.414Z" fill="black"/>
<path d="M56.5664 94.2212C56.5664 94.2212 54.3593 91.1646 55.1912 89.9734L51.462 91.5026C51.462 91.5026 49.2177 91.2301 48.4089 94.5787C48.2792 95.1358 48.2321 95.7089 48.2691 96.2796C48.2991 96.784 48.2301 97.6725 47.6549 98.823C46.7345 100.664 46.9469 104.89 48.8266 105.308C50.7062 105.726 51.3788 105.517 51.3788 105.517C51.3788 105.517 51.1275 113.173 50.0407 114.051C48.954 114.929 52.8142 114.72 52.8142 114.72C52.8142 114.72 56.1487 114.897 57.8637 115.14C59.5788 115.382 64.3894 114.255 64.3894 114.255C64.3894 114.255 63.6814 111.034 63.4266 108.984C63.1717 106.934 62.5912 102.57 62.5912 102.57L66.8584 96.7894C66.8584 96.7894 67.6106 93.2956 64.9752 91.7487C62.3398 90.2018 61.3469 89.8195 61.3469 89.8195C61.3469 89.8195 58.6921 94.1327 57.3186 94.3416C57.3186 94.3451 56.7947 94.5575 56.5664 94.2212Z" fill="#FF748E"/>
<path opacity="0.1" d="M51.6709 95.4354C51.6709 95.4354 51.6301 96.8159 51.8815 97.3593C52.1328 97.9027 53.0514 100.915 53.0514 100.915H50.9611C50.9611 100.915 52.0903 99.7027 52.0071 99.1168C51.924 98.531 51.6709 95.4354 51.6709 95.4354Z" fill="black"/>
<path d="M57.8637 105.85C57.8637 105.85 53.2443 104.72 52.8142 103.759C52.3841 102.798 51.1965 100.643 51.1965 100.643L51.6832 99.9859L53.931 101.756C53.931 101.756 56.6089 103.88 57.8637 104.099C59.1186 104.319 57.8637 105.85 57.8637 105.85Z" fill="#FBBEBE"/>
<path opacity="0.05" d="M57.8637 105.85C57.8637 105.85 53.2443 104.72 52.8142 103.759C52.3841 102.798 51.1965 100.643 51.1965 100.643L51.6832 99.9859L53.931 101.756C53.931 101.756 56.6089 103.88 57.8637 104.099C59.1186 104.319 57.8637 105.85 57.8637 105.85Z" fill="black"/>
<path d="M61.8584 100.414V102.92H61.4549C59.4645 102.92 57.5068 103.427 55.7664 104.393L55.0124 104.811L54.8089 104.924L53.5115 102.003L54.7257 100.915H54.7876C55.085 100.943 56.3682 101.049 56.9115 100.867C57.4549 100.685 58.0708 100.134 59.5912 100.524C60.3416 100.715 60.9806 101.556 61.7151 101.294L61.8584 100.414Z" fill="#FBBEBE"/>
<path opacity="0.1" d="M65.8955 95.853L66.7327 96.7946V99.0743C66.7327 99.0743 66.0247 106.271 63.7628 107.065C61.5008 107.86 57.4707 106.605 57.4707 106.605C57.4707 106.605 56.4283 103.844 56.915 103.676C57.4017 103.508 61.223 102.501 61.223 102.501C61.223 102.501 61.1681 98.2796 62.0053 97.0247C62.0053 97.0247 61.4619 93.092 63.3433 93.0088C65.2247 92.9256 65.8955 95.853 65.8955 95.853Z" fill="black"/>
<path d="M66.0177 95.853L66.8549 96.7946V99.0743C66.8549 99.0743 66.1469 106.271 63.8832 107.065C61.6195 107.86 57.5929 106.605 57.5929 106.605C57.5929 106.605 56.5504 103.844 57.0371 103.676C57.5239 103.508 61.3434 102.501 61.3434 102.501C61.3434 102.501 61.2903 98.2796 62.1274 97.0247C62.1274 97.0247 61.5823 93.092 63.4655 93.0088C65.3487 92.9256 66.0177 95.853 66.0177 95.853Z" fill="#FF748E"/>
<path opacity="0.1" d="M60.177 86.1823C60.2142 85.9072 60.1813 85.6271 60.0814 85.3681C60.0289 85.2401 59.9355 85.1331 59.8157 85.0639C59.6959 84.9947 59.5565 84.9673 59.4194 84.9858C59.0655 85.069 58.9062 85.5345 58.5557 85.646C58.2601 85.7398 57.9363 85.5309 57.7947 85.2548C57.6761 84.967 57.6265 84.6555 57.6495 84.3451C57.6495 83.9911 57.6495 83.646 57.6495 83.2955C57.6495 82.915 57.6371 82.5044 57.4017 82.2053C57.1097 81.8336 56.4247 81.6743 55.9681 81.6867C55.6633 81.6898 55.3709 81.8073 55.1486 82.0159C55.037 82.1282 54.9017 82.2142 54.7525 82.2675C54.6034 82.3208 54.4442 82.34 54.2867 82.3238C54.1478 82.3025 54.0178 82.2423 53.9116 82.1503C53.8054 82.0582 53.7275 81.938 53.6867 81.8035C53.6859 81.7988 53.6859 81.794 53.6867 81.7893C54.0423 81.3192 54.4915 80.9278 55.0058 80.6399C55.5202 80.352 56.0887 80.1737 56.6754 80.1164C57.2621 80.0592 57.8543 80.1241 58.4147 80.307C58.975 80.49 59.4914 80.7871 59.9313 81.1796C60.3711 81.5721 60.7248 82.0515 60.9702 82.5875C61.2155 83.1235 61.3472 83.7045 61.3568 84.2939C61.3664 84.8833 61.2538 85.4684 61.026 86.0121C60.7983 86.5558 60.4604 87.0465 60.0336 87.4531C60.1043 87.0324 60.1521 86.6082 60.177 86.1823Z" fill="black"/>
<path d="M54.285 82.1983C54.146 82.1767 54.0158 82.1164 53.9094 82.0244C53.803 81.9324 53.7246 81.8124 53.6832 81.6779C53.6496 81.5434 53.6584 81.3983 53.6177 81.2656C53.5204 80.9364 53.1699 80.7647 52.9345 80.5151C52.4637 80.016 52.4938 79.193 52.8265 78.5912C53.0973 78.1063 53.6195 77.6974 54.1664 77.7912C54.5044 77.8514 54.7965 78.0921 55.1398 78.1134C55.4832 78.1346 55.7717 77.9505 56.0726 77.8125C56.7975 77.4841 57.6126 77.4117 58.3841 77.6072C58.6215 77.6543 58.8417 77.765 59.0212 77.9275C59.1431 78.0805 59.2565 78.2401 59.3611 78.4054C59.7504 78.9027 60.4495 79.0001 61.0708 79.1133C61.692 79.2266 62.3965 79.4673 62.6 80.0709C62.7363 80.4673 62.6 80.8974 62.5274 81.3098C62.5004 81.3943 62.5061 81.4859 62.5434 81.5664C62.6407 81.7275 62.8832 81.6602 63.0743 81.6974C63.4283 81.7717 63.5168 82.2284 63.5292 82.5824C63.5457 82.993 63.5569 83.406 63.5628 83.8213C63.5733 83.975 63.5613 84.1294 63.5274 84.2797C63.4511 84.4941 63.3305 84.6901 63.1734 84.8549L61.7911 86.5151C61.1788 87.2514 60.5292 88.108 60.6513 89.0585C60.3611 89.1877 60.0177 88.9381 59.9221 88.6337C59.8265 88.3292 59.9027 88.0036 59.9681 87.6921C60.0794 87.1534 60.1522 86.6075 60.1858 86.0585C60.2231 85.7828 60.1903 85.5021 60.0903 85.2425C60.0375 85.1144 59.9437 85.0073 59.8236 84.9382C59.7035 84.869 59.5639 84.8416 59.4265 84.8602C59.0726 84.9434 58.915 85.4089 58.5646 85.5204C58.269 85.616 57.9451 85.4054 57.8035 85.1293C57.6858 84.8412 57.6362 84.5299 57.6584 84.2195V83.17C57.6584 82.7894 57.646 82.3788 57.4106 82.0797C57.1203 81.708 56.4336 81.5487 55.977 81.5611C55.6722 81.5643 55.3798 81.6818 55.1575 81.8903C55.0447 82.0042 54.9077 82.091 54.7565 82.1443C54.6054 82.1977 54.4442 82.2161 54.285 82.1983Z" fill="#7C5C5C"/>
<path opacity="0.1" d="M55.2477 95.331L56.5593 100.711C56.5593 100.711 57.5911 100.706 55.2477 95.331Z" fill="black"/>
<path opacity="0.1" d="M59.7257 94.43C59.7257 94.43 58.0089 97.2407 58.6797 100.145L58.9982 100.168C58.9982 100.168 58.4283 98.8229 59.7257 94.43Z" fill="black"/>
<path opacity="0.1" d="M60.8124 110.329C60.8124 110.329 62.9186 109.632 63.0726 111.25C63.0726 111.25 62.6744 110.14 60.8124 110.329Z" fill="black"/>
<path opacity="0.1" d="M54.7257 101.041C54.7257 101.041 54.308 103.97 55.0602 105.142C53.8799 105.557 52.6272 105.728 51.3788 105.642L51.1274 101.041H54.7257Z" fill="black"/>
<path opacity="0.1" d="M55.0124 104.811L54.8089 104.924L53.5115 102.004L54.7257 100.915H54.7876C54.7682 101.057 54.4301 103.572 55.0124 104.811Z" fill="black"/>
<path d="M54.7256 100.915C54.7256 100.915 54.3079 103.844 55.0601 105.016C53.8799 105.432 52.6272 105.602 51.3787 105.517L49.915 100.915H54.7256Z" fill="#FF748E"/>
<path d="M51.1061 149.777C51.0821 149.986 50.9891 150.18 50.842 150.33C50.6949 150.48 50.502 150.577 50.2937 150.605C49.1592 150.782 46.4212 151.207 45.7309 151.536C44.8459 151.956 41.3805 151.662 41.2123 151.244C41.1887 151.16 41.1819 151.073 41.1922 150.986C41.2026 150.899 41.2298 150.816 41.2725 150.74C41.3534 150.573 41.4671 150.425 41.6067 150.303C41.7462 150.182 41.9089 150.089 42.0849 150.032C42.7398 149.812 43.9751 149.35 44.3079 148.865C44.3079 148.865 45.8477 147.517 46.2867 146.789C46.3691 146.646 46.4858 146.525 46.6263 146.438C46.7668 146.35 46.9268 146.299 47.092 146.288C47.4583 146.271 47.8654 146.457 48.0336 147.258C48.0336 147.258 50.0406 148.403 50.584 147.4C50.584 147.4 50.6672 148.942 50.9999 149.365C51.044 149.423 51.076 149.489 51.0942 149.56C51.1125 149.631 51.1165 149.705 51.1061 149.777Z" fill="#A27772"/>
<path opacity="0.1" d="M51.1061 149.777C51.0821 149.986 50.9891 150.18 50.842 150.33C50.6949 150.48 50.502 150.577 50.2937 150.605C49.1592 150.782 46.4212 151.207 45.7309 151.536C44.846 151.956 41.3805 151.662 41.2123 151.244C41.1887 151.16 41.1819 151.073 41.1922 150.986C41.2026 150.9 41.2298 150.816 41.2725 150.74C41.3918 150.485 41.588 150.275 41.8336 150.138C42.3999 150.513 43.6566 150.881 46.4212 150.45C49.0583 150.037 50.3628 149.634 50.9999 149.359C51.0447 149.418 51.0771 149.486 51.0953 149.557C51.1136 149.629 51.1172 149.704 51.1061 149.777Z" fill="black"/>
<g opacity="0.1">
<path opacity="0.1" d="M62.5221 81.3664C62.5229 81.3593 62.5229 81.3522 62.5221 81.3451C62.6048 81.0356 62.6483 80.7169 62.6513 80.3965C62.6246 80.6527 62.5815 80.9069 62.5221 81.1575C62.5062 81.2262 62.5062 81.2977 62.5221 81.3664Z" fill="black"/>
<path opacity="0.1" d="M60.0814 85.2815C60.147 85.4324 60.1819 85.5948 60.1841 85.7594C60.2031 85.5325 60.1679 85.3044 60.0814 85.0939C60.0287 84.9656 59.935 84.8583 59.8149 84.7888C59.6949 84.7194 59.5552 84.6916 59.4177 84.7098C59.0637 84.793 58.9062 85.2602 58.5557 85.3717C58.2602 85.4656 57.9363 85.2549 57.7947 84.9788C57.6753 84.6912 57.6256 84.3795 57.6495 84.0691C57.6495 83.7151 57.6495 83.37 57.6495 83.0213C57.6495 82.6408 57.6371 82.2301 57.4017 81.931C57.1097 81.5576 56.4248 81.4 55.9663 81.4107C55.6618 81.414 55.3698 81.5323 55.1486 81.7416C55.0369 81.8537 54.9015 81.9393 54.7523 81.9923C54.6032 82.0453 54.4441 82.0642 54.2867 82.0478C54.1473 82.0272 54.0167 81.9673 53.9101 81.8752C53.8036 81.783 53.7254 81.6624 53.6849 81.5275C53.6495 81.393 53.6602 81.2496 53.6194 81.1151C53.5221 80.7859 53.1717 80.616 52.9363 80.3664C52.7167 80.123 52.5912 79.8092 52.5823 79.4814C52.5655 79.6749 52.5882 79.8697 52.649 80.0541C52.7099 80.2385 52.8076 80.4086 52.9363 80.554C53.1717 80.8036 53.5221 80.9753 53.6194 81.3045C53.6602 81.4372 53.6495 81.5823 53.6849 81.7169C53.7262 81.8514 53.8046 81.9715 53.911 82.0636C54.0174 82.1556 54.1476 82.2158 54.2867 82.2372C54.4442 82.2534 54.6034 82.2342 54.7526 82.1809C54.9017 82.1276 55.037 82.0416 55.1486 81.9293C55.3708 81.723 55.6615 81.6064 55.9646 81.6018C56.423 81.5877 57.1079 81.7505 57.4 82.1222C57.6354 82.4213 57.646 82.8301 57.6478 83.2124C57.6478 83.5664 57.6478 83.9116 57.6478 84.2602C57.6237 84.5713 57.6734 84.8836 57.7929 85.1718C57.9345 85.4479 58.2584 85.6567 58.554 85.5629C58.9079 85.4514 59.0584 84.9859 59.4159 84.901C59.5532 84.8827 59.6927 84.91 59.813 84.9788C59.9332 85.0475 60.0275 85.1539 60.0814 85.2815Z" fill="black"/>
<path opacity="0.1" d="M63.5203 84.1293C63.4435 84.344 63.323 84.5405 63.1663 84.7062C62.7037 85.2585 62.243 85.8113 61.784 86.3647C61.2034 87.0638 60.5875 87.8726 60.6318 88.7647C60.6742 87.947 61.2442 87.2036 61.784 86.554L63.1663 84.8939C63.3229 84.7288 63.4435 84.5329 63.5203 84.3186C63.5543 84.1678 63.5662 84.0128 63.5556 83.8585C63.5547 83.9498 63.5428 84.0407 63.5203 84.1293Z" fill="black"/>
<path opacity="0.1" d="M59.9132 88.4851C59.8904 88.412 59.8761 88.3366 59.8707 88.2603C59.8591 88.3992 59.8735 88.539 59.9132 88.6727C60.007 88.9771 60.3521 89.2266 60.6424 89.0974C60.6424 89.0355 60.63 88.9735 60.6282 88.9204C60.3415 89.0355 59.9999 88.7824 59.9132 88.4851Z" fill="black"/>
</g>
<path opacity="0.1" d="M46.0177 147.163C46.0177 147.163 46.4549 147.931 48.0407 147.253L46.0177 147.163Z" fill="black"/>
<path opacity="0.1" d="M59.407 147.347C59.407 147.347 60.7752 148.956 62.4973 147.878L59.407 147.347Z" fill="black"/>
<path opacity="0.1" d="M63.3859 128.317C63.3859 128.317 62.4195 128.92 62.3876 129.265C62.3558 129.611 62.8868 129.014 62.8868 129.014L63.3859 128.317Z" fill="black"/>
<path opacity="0.1" d="M63.7664 132.943C63.431 133.223 63.0134 133.386 62.577 133.407C61.8549 133.439 61.915 134.381 62.3876 134.097C62.8602 133.814 63.7664 132.943 63.7664 132.943Z" fill="black"/>
<path opacity="0.1" d="M63.9504 133.547C63.9504 133.547 63.4866 135.823 63.1096 135.384L63.9504 133.547Z" fill="black"/>
<g opacity="0.5">
<path opacity="0.5" d="M95.0743 81.1769H83.3929V83.6549H95.0743V81.1769Z" fill="#DCE0ED"/>
<path opacity="0.5" d="M121.897 81.1769H110.216V83.6549H121.897V81.1769Z" fill="#DCE0ED"/>
<path opacity="0.5" d="M148.72 81.1769H137.039V83.6549H148.72V81.1769Z" fill="#DCE0ED"/>
</g>
<path opacity="0.1" d="M168.625 142.627C171.257 142.627 173.391 142.266 173.391 141.821C173.391 141.376 171.257 141.016 168.625 141.016C165.992 141.016 163.858 141.376 163.858 141.821C163.858 142.266 165.992 142.627 168.625 142.627Z" fill="#00BAFC"/>
<path opacity="0.1" d="M20.3929 152.795C23.0253 152.795 25.1592 152.434 25.1592 151.989C25.1592 151.545 23.0253 151.184 20.3929 151.184C17.7605 151.184 15.6265 151.545 15.6265 151.989C15.6265 152.434 17.7605 152.795 20.3929 152.795Z" fill="#00BAFC"/>
<path d="M158.193 151.655C162.123 151.655 165.31 151.116 165.31 150.451C165.31 149.787 162.123 149.248 158.193 149.248C154.262 149.248 151.076 149.787 151.076 150.451C151.076 151.116 154.262 151.655 158.193 151.655Z" fill="#00BAFC"/>
<path d="M161.135 148.485C161.459 148.22 161.696 147.863 161.812 147.46C161.901 147.053 161.727 146.566 161.34 146.418C160.904 146.251 160.439 146.552 160.085 146.858C159.731 147.165 159.329 147.51 158.867 147.446C159.104 147.231 159.282 146.957 159.382 146.653C159.483 146.349 159.503 146.024 159.441 145.71C159.421 145.579 159.366 145.457 159.281 145.356C159.039 145.097 158.602 145.207 158.312 145.411C157.391 146.058 157.135 147.308 157.129 148.434C157.037 148.028 157.115 147.605 157.113 147.195C157.112 146.784 156.996 146.31 156.646 146.092C156.429 145.976 156.185 145.918 155.938 145.926C155.524 145.91 155.062 145.95 154.781 146.253C154.427 146.63 154.52 147.26 154.825 147.669C155.129 148.078 155.596 148.342 156.023 148.628C156.366 148.833 156.659 149.112 156.88 149.444C156.905 149.491 156.926 149.54 156.942 149.591H159.536C160.116 149.296 160.654 148.924 161.135 148.485Z" fill="#00BAFC"/>
<path d="M20.6106 140.042C20.6106 140.042 21.5841 141.315 20.1628 143.228C18.7416 145.142 17.5699 146.768 18.0389 147.966C18.0389 147.966 20.1841 144.4 21.9327 144.35C23.6814 144.301 22.531 142.188 20.6106 140.042Z" fill="#00BAFC"/>
<path opacity="0.1" d="M20.6106 140.042C20.6957 140.166 20.7631 140.3 20.8106 140.442C22.5132 142.442 23.4194 144.31 21.7823 144.356C20.2584 144.4 18.4301 147.126 17.9911 147.814C18.0056 147.867 18.0227 147.92 18.0424 147.972C18.0424 147.972 20.1876 144.405 21.9363 144.356C23.6849 144.306 22.5309 142.188 20.6106 140.042Z" fill="black"/>
<path d="M22.4177 141.664C22.4177 142.112 22.3681 142.474 22.3062 142.474C22.2442 142.474 22.1947 142.12 22.1947 141.664C22.1947 141.207 22.2566 141.427 22.3186 141.427C22.3805 141.427 22.4177 141.216 22.4177 141.664Z" fill="#FFD037"/>
<path d="M23.0389 142.198C22.6459 142.412 22.3026 142.542 22.2743 142.487C22.2459 142.432 22.538 142.214 22.9309 142C23.3238 141.786 23.1698 141.942 23.1982 142C23.2265 142.058 23.4318 141.984 23.0389 142.198Z" fill="#FFD037"/>
<path d="M15.4762 140.042C15.4762 140.042 14.5027 141.315 15.9239 143.228C17.3452 145.142 18.5169 146.768 18.0478 147.966C18.0478 147.966 15.9045 144.4 14.154 144.35C12.4036 144.301 13.5558 142.188 15.4762 140.042Z" fill="#00BAFC"/>
<path opacity="0.1" d="M15.4761 140.042C15.391 140.166 15.3237 140.3 15.2761 140.442C13.5735 142.442 12.6673 144.31 14.3044 144.356C15.8283 144.4 17.6567 147.126 18.0956 147.814C18.0814 147.868 18.0636 147.92 18.0425 147.972C18.0425 147.972 15.8991 144.405 14.1487 144.356C12.3983 144.306 13.5558 142.188 15.4761 140.042Z" fill="black"/>
<path d="M13.6673 141.664C13.6673 142.112 13.7186 142.474 13.7806 142.474C13.8425 142.474 13.8921 142.12 13.8921 141.664C13.8921 141.207 13.8301 141.427 13.7682 141.427C13.7062 141.427 13.6673 141.216 13.6673 141.664Z" fill="#FFD037"/>
<path d="M13.0478 142.198C13.4407 142.412 13.7823 142.542 13.8124 142.487C13.8425 142.432 13.5487 142.214 13.1558 142C12.7628 141.786 12.9168 141.942 12.8867 142C12.8567 142.058 12.6549 141.984 13.0478 142.198Z" fill="#FFD037"/>
<path d="M13.9823 147.805C13.9823 147.805 16.7009 147.72 17.5221 147.138C18.3434 146.556 21.7044 145.857 21.908 146.793C22.1115 147.729 25.9929 151.446 22.9239 151.471C19.8549 151.496 15.7929 150.993 14.9752 150.496C14.1575 149.998 13.9823 147.805 13.9823 147.805Z" fill="#A8A8A8"/>
<path opacity="0.2" d="M22.9717 151.145C19.9027 151.17 15.839 150.667 15.0213 150.17C14.4 149.789 14.1505 148.428 14.0691 147.802H13.977C13.977 147.802 14.154 149.993 14.9682 150.492C15.7823 150.991 19.8478 151.492 22.9169 151.467C23.8018 151.467 24.108 151.145 24.0921 150.678C23.9682 150.965 23.6301 151.14 22.9717 151.145Z" fill="black"/>
<path d="M82.5664 98.4814C82.5664 94.8637 85.5098 92.0849 89.1293 92.0849H89.1806V90.4389H89.1293C84.6018 90.4389 80.9204 93.9557 80.9204 98.4814C80.9203 99.6522 81.1713 100.809 81.6564 101.875C82.1416 102.941 82.8496 103.89 83.7328 104.658L84.8992 103.492C84.1686 102.877 83.5812 102.11 83.1783 101.245C82.7753 100.379 82.5665 99.4362 82.5664 98.4814Z" fill="#00BAFC"/>
<path opacity="0.5" d="M89.3451 90.4407V92.0867C90.3991 92.0938 91.4359 92.3546 92.3678 92.8473C93.2996 93.3399 94.099 94.0498 94.6984 94.9168C95.2977 95.7838 95.6794 96.7825 95.811 97.8283C95.9427 98.874 95.8204 99.9361 95.4546 100.925C95.0888 101.913 94.4902 102.799 93.7096 103.507C92.9289 104.215 91.9891 104.725 90.9697 104.993C89.9503 105.261 88.8813 105.28 87.8533 105.047C86.8253 104.814 85.8684 104.337 85.0637 103.657L83.8938 104.823C84.8907 105.695 86.0836 106.312 87.3709 106.622C88.6582 106.933 90.0014 106.927 91.286 106.606C92.5706 106.285 93.7583 105.657 94.7478 104.777C95.7372 103.897 96.499 102.791 96.968 101.552C97.4371 100.314 97.5995 98.9807 97.4413 97.666C97.2832 96.3513 96.8092 95.0944 96.0599 94.0027C95.3106 92.9109 94.3082 92.0167 93.1383 91.3965C91.9684 90.7762 90.6657 90.4483 89.3416 90.4407H89.3451Z" fill="#00BAFC"/>
<path opacity="0.5" d="M143.15 92.0018C146.768 92.0018 149.547 94.9451 149.547 98.5646C149.547 98.5805 149.547 98.5982 149.547 98.6159H151.193C151.193 98.5982 151.193 98.5805 151.193 98.5646C151.193 94.0389 147.676 90.3557 143.15 90.3557C141.98 90.3554 140.822 90.6063 139.757 91.0914C138.691 91.5766 137.742 92.2848 136.973 93.1681L138.14 94.3345C138.754 93.6039 139.521 93.0166 140.387 92.6136C141.253 92.2107 142.196 92.0018 143.15 92.0018Z" fill="#00BAFC"/>
<path d="M151.191 98.7805H149.545C149.538 99.8345 149.277 100.871 148.785 101.803C148.292 102.735 147.582 103.534 146.715 104.134C145.848 104.733 144.849 105.115 143.804 105.246C142.758 105.378 141.696 105.256 140.707 104.89C139.719 104.524 138.833 103.926 138.125 103.145C137.417 102.364 136.907 101.424 136.639 100.405C136.371 99.3856 136.352 98.3167 136.585 97.2886C136.818 96.2606 137.294 95.3037 137.975 94.499L136.814 93.3327C135.943 94.3295 135.325 95.5225 135.015 96.8098C134.704 98.097 134.71 99.4403 135.031 100.725C135.353 102.009 135.98 103.197 136.86 104.187C137.74 105.176 138.846 105.938 140.085 106.407C141.323 106.876 142.657 107.038 143.971 106.88C145.286 106.722 146.543 106.248 147.635 105.499C148.726 104.749 149.621 103.747 150.241 102.577C150.861 101.407 151.189 100.105 151.197 98.7805H151.191Z" fill="#00BAFC"/>
<path opacity="0.5" d="M119.292 90.9221L118.965 92.5611C121.373 93.5327 122.913 95.8938 122.913 98.646C122.914 99.8287 122.594 100.99 121.989 102.006C121.384 103.022 120.515 103.855 119.475 104.418C118.435 104.981 117.262 105.252 116.08 105.203C114.898 105.154 113.752 104.787 112.762 104.14C111.772 103.492 110.975 102.59 110.456 101.527C109.938 100.464 109.715 99.2808 109.814 98.1022C109.912 96.9236 110.327 95.7935 111.015 94.8315C111.703 93.8694 112.639 93.1113 113.722 92.6372L112.993 91.1593C111.648 91.7648 110.491 92.7218 109.644 93.9294C108.796 95.1371 108.291 96.5508 108.179 98.0217C108.068 99.4926 108.355 100.966 109.011 102.288C109.666 103.609 110.666 104.73 111.904 105.531C113.143 106.332 114.575 106.785 116.049 106.841C117.523 106.897 118.985 106.555 120.281 105.85C121.577 105.145 122.659 104.104 123.413 102.837C124.167 101.569 124.566 100.121 124.566 98.646C124.566 95.0938 122.464 92.0637 119.292 90.9221Z" fill="#00BAFC"/>
<path d="M116.565 91.9894C117.351 91.9891 118.129 92.1506 118.85 92.4637L119.177 90.8265C118.343 90.5057 117.458 90.3419 116.565 90.3434C115.405 90.3433 114.259 90.5901 113.202 91.0672L113.938 92.5416C114.766 92.1766 115.66 91.9885 116.565 91.9894Z" fill="#00BAFC"/>
</g>
<defs>
<linearGradient id="paint0_linear_706_220" x1="54.0708" y1="151.989" x2="54.0708" y2="77.2424" gradientUnits="userSpaceOnUse">
<stop stop-color="#808080" stop-opacity="0.25"/>
<stop offset="0.54" stop-color="#808080" stop-opacity="0.12"/>
<stop offset="1" stop-color="#808080" stop-opacity="0.1"/>
</linearGradient>
<clipPath id="clip0_706_220">
<rect width="200" height="153.646" fill="white"/>
</clipPath>
</defs>
</svg>
