<svg width="200" height="146" viewBox="0 0 200 146" fill="none" xmlns="http://www.w3.org/2000/svg">
<g clip-path="url(#clip0_703_358)">
<path opacity="0.1" d="M63.8531 5.48188C69.2536 0.676457 77.7278 -0.308656 85.4405 0.0739302C109.669 1.27714 131.539 12.9747 150.456 26.2062C157.306 30.995 164.048 36.1571 168.493 42.7535C177.549 56.1791 174.858 74.7817 162.276 85.8416C157.993 89.6064 152.803 92.4952 147.475 95.0477C138.001 99.5962 127.778 103.246 117.027 104.289C109.359 105.028 101.596 104.427 93.9738 103.394C72.6766 100.502 51.7711 94.1143 34.2498 83.1967C26.5648 78.4024 19.3197 72.4455 16.1518 64.6903C12.9839 56.9351 15.0114 47.1117 22.8591 42.5225C26.1046 40.6243 29.9859 39.7668 33.784 38.9628C39.3768 37.7781 45.0583 36.61 50.1058 34.2017C55.3179 31.714 61.4892 26.9012 60.456 21.3952C59.3507 15.4772 58.4617 10.2873 63.8531 5.48188Z" fill="#00BAFC"/>
<path opacity="0.1" d="M157.182 132.151C168.355 132.151 177.413 131.57 177.413 130.854C177.413 130.137 168.355 129.556 157.182 129.556C146.009 129.556 136.951 130.137 136.951 130.854C136.951 131.57 146.009 132.151 157.182 132.151Z" fill="#00BAFC"/>
<path opacity="0.1" d="M104.598 123.468C115.771 123.468 124.828 122.887 124.828 122.171C124.828 121.454 115.771 120.873 104.598 120.873C93.4244 120.873 84.3667 121.454 84.3667 122.171C84.3667 122.887 93.4244 123.468 104.598 123.468Z" fill="#00BAFC"/>
<path opacity="0.1" d="M30.3241 144.05C41.4973 144.05 50.555 143.469 50.555 142.753C50.555 142.036 41.4973 141.455 30.3241 141.455C19.1509 141.455 10.0933 142.036 10.0933 142.753C10.0933 143.469 19.1509 144.05 30.3241 144.05Z" fill="#00BAFC"/>
<path opacity="0.1" d="M68.7675 145.325C73.3649 145.325 77.0919 145.086 77.0919 144.791C77.0919 144.496 73.3649 144.257 68.7675 144.257C64.17 144.257 60.443 144.496 60.443 144.791C60.443 145.086 64.17 145.325 68.7675 145.325Z" fill="#00BAFC"/>
<path opacity="0.1" d="M193.511 131.454C197.094 131.454 199.998 131.268 199.998 131.038C199.998 130.809 197.094 130.623 193.511 130.623C189.928 130.623 187.024 130.809 187.024 131.038C187.024 131.268 189.928 131.454 193.511 131.454Z" fill="#00BAFC"/>
<path opacity="0.1" d="M133.97 122.725C137.007 122.725 139.47 122.567 139.47 122.372C139.47 122.177 137.007 122.019 133.97 122.019C130.932 122.019 128.469 122.177 128.469 122.372C128.469 122.567 130.932 122.725 133.97 122.725Z" fill="#00BAFC"/>
<path d="M194.444 121.058C194.444 121.058 195.313 122.195 194.045 123.91C192.777 125.625 191.727 127.072 192.151 128.14C192.151 128.14 194.067 124.956 195.625 124.912C197.183 124.867 196.161 122.975 194.444 121.058Z" fill="#00BAFC"/>
<path opacity="0.1" d="M194.444 121.058C194.522 121.168 194.584 121.288 194.629 121.415C196.15 123.202 196.96 124.869 195.498 124.912C194.136 124.95 192.502 127.386 192.11 128.002C192.122 128.049 192.138 128.095 192.156 128.14C192.156 128.14 194.073 124.956 195.631 124.912C197.189 124.867 196.161 122.975 194.444 121.058Z" fill="black"/>
<path d="M196.061 122.505C196.061 122.906 196.017 123.23 195.962 123.23C195.906 123.23 195.862 122.906 195.862 122.505C195.862 122.104 195.917 122.294 195.973 122.294C196.028 122.294 196.061 122.106 196.061 122.505Z" fill="#FFD037"/>
<path d="M196.616 122.984C196.265 123.169 195.96 123.291 195.932 123.243C195.904 123.194 196.169 122.999 196.52 122.806C196.871 122.614 196.732 122.755 196.758 122.806C196.784 122.858 196.967 122.792 196.616 122.984Z" fill="#FFD037"/>
<path d="M189.859 121.058C189.859 121.058 188.99 122.195 190.26 123.91C191.529 125.625 192.576 127.072 192.152 128.14C192.152 128.14 190.238 124.956 188.678 124.912C187.118 124.867 188.144 122.975 189.859 121.058Z" fill="#00BAFC"/>
<path opacity="0.1" d="M189.859 121.058C189.78 121.167 189.718 121.287 189.674 121.415C188.153 123.202 187.341 124.869 188.803 124.912C190.165 124.95 191.801 127.386 192.191 128.002C192.179 128.049 192.163 128.095 192.145 128.14C192.145 128.14 190.23 124.956 188.67 124.912C187.11 124.867 188.144 122.975 189.859 121.058Z" fill="black"/>
<path d="M188.243 122.505C188.243 122.906 188.288 123.23 188.343 123.23C188.399 123.23 188.445 122.906 188.445 122.505C188.445 122.104 188.388 122.294 188.332 122.294C188.277 122.294 188.243 122.106 188.243 122.505Z" fill="#FFD037"/>
<path d="M187.689 122.984C188.04 123.169 188.347 123.291 188.373 123.243C188.399 123.194 188.136 122.999 187.785 122.806C187.434 122.614 187.572 122.755 187.547 122.806C187.521 122.858 187.338 122.792 187.689 122.984Z" fill="#FFD037"/>
<path d="M188.53 127.993C188.53 127.993 190.958 127.919 191.69 127.397C192.422 126.876 195.426 126.253 195.609 127.089C195.792 127.924 199.257 131.245 196.516 131.268C193.775 131.29 190.145 130.841 189.413 130.397C188.681 129.954 188.53 127.993 188.53 127.993Z" fill="#A8A8A8"/>
<path opacity="0.2" d="M196.555 130.977C193.814 131 190.184 130.55 189.454 130.105C188.899 129.767 188.676 128.551 188.602 127.989H188.521C188.521 127.989 188.674 129.948 189.404 130.392C190.134 130.835 193.764 131.284 196.507 131.262C197.298 131.262 197.571 130.976 197.557 130.558C197.446 130.815 197.144 130.972 196.555 130.977Z" fill="black"/>
<path d="M134.946 113.839C134.946 113.839 135.685 114.809 134.602 116.277C133.519 117.744 132.621 118.982 132.983 119.897C132.983 119.897 134.62 117.173 135.955 117.125C137.289 117.077 136.409 115.476 134.946 113.839Z" fill="#00BAFC"/>
<path opacity="0.1" d="M134.946 113.839C135.01 113.933 135.061 114.035 135.097 114.144C136.391 115.672 137.091 117.101 135.836 117.134C134.672 117.167 133.273 119.252 132.938 119.779C132.949 119.819 132.963 119.859 132.979 119.897C132.979 119.897 134.617 117.173 135.951 117.125C137.285 117.077 136.409 115.476 134.946 113.839Z" fill="black"/>
<path d="M136.326 115.077C136.326 115.419 136.287 115.696 136.241 115.696C136.195 115.696 136.154 115.419 136.154 115.077C136.154 114.735 136.202 114.892 136.251 114.892C136.299 114.892 136.326 114.735 136.326 115.077Z" fill="#FFD037"/>
<path d="M136.801 115.485C136.5 115.648 136.247 115.748 136.215 115.705C136.184 115.663 136.419 115.498 136.718 115.336C137.018 115.173 136.903 115.291 136.923 115.336C136.944 115.38 137.101 115.321 136.801 115.485Z" fill="#FFD037"/>
<path d="M131.02 113.839C131.02 113.839 130.281 114.809 131.362 116.277C132.443 117.744 133.345 118.982 132.983 119.897C132.983 119.897 131.343 117.173 130.009 117.125C128.675 117.077 129.552 115.476 131.02 113.839Z" fill="#00BAFC"/>
<path opacity="0.1" d="M131.02 113.839C130.954 113.932 130.903 114.035 130.866 114.144C129.573 115.672 128.872 117.101 130.127 117.134C131.293 117.167 132.691 119.252 133.025 119.779C133.014 119.818 133.001 119.858 132.986 119.897C132.986 119.897 131.347 117.173 130.013 117.125C128.678 117.077 129.552 115.476 131.02 113.839Z" fill="black"/>
<path d="M129.638 115.077C129.638 115.419 129.676 115.696 129.724 115.696C129.772 115.696 129.809 115.419 129.809 115.077C129.809 114.735 129.761 114.892 129.713 114.892C129.665 114.892 129.638 114.735 129.638 115.077Z" fill="#FFD037"/>
<path d="M129.164 115.485C129.464 115.648 129.719 115.748 129.748 115.705C129.778 115.663 129.547 115.498 129.246 115.336C128.944 115.173 129.061 115.291 129.04 115.336C129.02 115.38 128.863 115.321 129.164 115.485Z" fill="#FFD037"/>
<path d="M129.874 119.772C129.874 119.772 131.952 119.707 132.578 119.261C133.205 118.816 135.776 118.282 135.931 118.997C136.086 119.712 139.052 122.555 136.707 122.573C134.362 122.592 131.257 122.204 130.632 121.834C130.007 121.465 129.874 119.772 129.874 119.772Z" fill="#A8A8A8"/>
<path opacity="0.2" d="M136.75 122.324C134.402 122.344 131.297 121.954 130.673 121.585C130.198 121.295 130.007 120.254 129.944 119.773H129.874C129.874 119.773 130.005 121.448 130.632 121.829C131.258 122.209 134.362 122.594 136.707 122.568C137.384 122.568 137.618 122.322 137.605 121.965C137.518 122.195 137.252 122.32 136.75 122.324Z" fill="black"/>
<g opacity="0.8">
<path opacity="0.8" d="M27.3133 114.918C30.0465 114.919 32.718 115.731 34.9901 117.25C37.2621 118.769 39.0327 120.928 40.0781 123.453C41.1234 125.978 41.3966 128.757 40.863 131.438C40.3293 134.118 39.0129 136.58 37.0802 138.513C35.1474 140.445 32.685 141.762 30.0044 142.295C27.3237 142.828 24.5452 142.555 22.0199 141.509C19.4947 140.463 17.3362 138.692 15.8173 136.42C14.2984 134.148 13.4874 131.476 13.4866 128.743C13.4854 126.927 13.8422 125.129 14.5367 123.451C15.2311 121.773 16.2496 120.248 17.5338 118.964C18.818 117.68 20.3427 116.662 22.0208 115.967C23.6989 115.273 25.4973 114.917 27.3133 114.918Z" fill="#E74D89"/>
<path opacity="0.8" d="M27.3133 143.544C24.3858 143.54 21.525 142.669 19.0925 141.041C16.6599 139.412 14.7647 137.099 13.6465 134.393C12.5282 131.688 12.237 128.712 12.8098 125.841C13.3825 122.97 14.7934 120.333 16.8642 118.264C18.935 116.195 21.5728 114.786 24.4441 114.215C27.3154 113.645 30.2914 113.938 32.996 115.058C35.7006 116.178 38.0125 118.075 39.6393 120.509C41.2662 122.943 42.1351 125.804 42.1362 128.732C42.1327 132.661 40.5696 136.428 37.7902 139.206C35.0108 141.983 31.2425 143.543 27.3133 143.544ZM39.8092 130.759C37.2502 130.013 34.561 129.824 31.9228 130.205C33.0034 133.134 33.8277 136.152 34.3865 139.224C35.8238 138.262 37.0472 137.014 37.9802 135.557C38.9133 134.101 39.5359 132.467 39.8092 130.759ZM32.2592 140.392C31.6642 137.119 30.7607 133.909 29.5607 130.806C29.5352 130.818 29.5077 130.825 29.4794 130.828C22.3341 133.317 19.7743 138.263 19.5433 138.725C21.7615 140.454 24.4938 141.391 27.3059 141.389C29.0055 141.4 30.6893 141.061 32.2518 140.392H32.2592ZM17.9113 137.208C18.1996 136.722 21.6743 130.979 28.206 128.859C28.3668 128.802 28.5405 128.756 28.7032 128.71C28.3908 127.991 28.0433 127.274 27.6718 126.568C21.3509 128.455 15.2128 128.373 14.6565 128.362C14.6565 128.49 14.6454 128.617 14.6454 128.743C14.6491 131.871 15.8127 134.888 17.9113 137.208ZM14.9227 126.161C18.8724 126.144 22.8041 125.626 26.6239 124.621C25.192 122.103 23.6262 119.664 21.9331 117.313C20.1611 118.147 18.6061 119.38 17.3899 120.915C16.1737 122.45 15.3293 124.245 14.9227 126.161ZM24.3487 116.458C26.085 118.815 27.6638 121.285 29.0747 123.851C33.5788 122.161 35.477 119.613 35.7098 119.289C33.396 117.234 30.4079 116.101 27.3133 116.105C26.3146 116.112 25.32 116.233 24.3487 116.465V116.458ZM37.1108 120.753C36.8447 121.113 34.7247 123.834 30.0468 125.743C30.3352 126.346 30.6253 126.959 30.8915 127.573C30.9839 127.793 31.0763 128.013 31.1706 128.222C35.3846 127.688 39.5653 128.545 39.983 128.626C39.9518 125.751 38.9384 122.972 37.1108 120.751V120.753Z" fill="#B2215A"/>
</g>
<path d="M61.5889 86.5531C61.2544 86.1336 60.8737 83.2485 60.8737 83.2485L59.3951 75.8962L58.6299 71.66C58.6299 71.66 58.4451 66.3093 55.0961 63.6553L54.8355 63.4501C54.8355 63.4021 54.8355 63.3559 54.8355 63.3078C54.805 62.7911 54.6921 62.2825 54.5009 61.8015C54.4201 61.6457 54.3788 61.4724 54.3808 61.2969C54.3895 61.2278 54.4121 61.1611 54.4473 61.101C54.6043 60.8859 54.811 60.7121 55.0499 60.5946C55.6579 60.2249 56.1755 59.6427 56.3159 58.9533C56.315 58.938 56.315 58.9225 56.3159 58.9071C56.3159 58.8776 56.3159 58.8461 56.3289 58.8147C56.3418 58.7833 56.3289 58.7815 56.3289 58.763C56.3307 58.731 56.3307 58.6989 56.3289 58.6669V58.6262C56.3289 58.5892 56.3289 58.5504 56.3289 58.5116C56.3279 58.5036 56.3279 58.4956 56.3289 58.4876C56.3289 58.4451 56.3196 58.4007 56.3122 58.3582V58.349C56.2788 58.0989 56.1827 57.8613 56.0327 57.6583C55.8828 57.4554 55.6839 57.2937 55.4546 57.1883C55.5379 57.1684 55.6154 57.1295 55.6812 57.0747C55.7469 57.0199 55.7991 56.9506 55.8335 56.8722C55.8563 56.8268 55.8743 56.7791 55.8871 56.7299C55.8998 56.684 55.9078 56.6369 55.9112 56.5894C55.9112 56.5894 55.9112 56.5747 55.9112 56.5673C55.9139 56.5267 55.9139 56.4859 55.9112 56.4453C55.9112 56.4323 55.9112 56.4194 55.9112 56.4065C55.9056 56.3658 55.8969 56.3257 55.8853 56.2863C55.8862 56.2759 55.8862 56.2654 55.8853 56.2549L55.8742 56.229C55.7504 55.8742 55.4565 55.6006 55.2033 55.316C53.7432 53.6803 53.4604 51.3793 53.063 49.2464C52.8431 48.0635 52.4272 46.7161 51.2813 46.267C50.9574 46.1644 50.6279 46.0805 50.2944 46.0157C49.2778 45.7458 48.4461 45.0361 47.4518 44.6886C46.7802 44.4581 46.062 44.3978 45.3614 44.513C44.8273 44.6018 44.38 44.8642 43.8643 44.988C42.7554 45.2597 41.4099 44.9566 40.5375 45.853C39.9257 46.4759 39.8777 47.4259 39.5764 48.2372C39.0071 49.7436 37.5286 50.8396 37.146 52.405C36.9002 53.4142 37.1552 54.4381 37.4232 55.4528C37.625 56.1344 37.7612 56.8337 37.8298 57.5413C37.84 57.7198 37.84 57.8988 37.8298 58.0773C37.7903 58.5984 37.6725 59.1105 37.4805 59.5965C36.2311 60.0586 34.9392 60.6038 34.8431 60.9106C34.6582 61.515 31.6419 63.2376 31.6419 63.2376C31.6419 63.2376 30.496 64.2153 30.496 64.5868C30.496 64.9583 30.1153 66.1227 29.875 66.1227C29.6347 66.1227 29.1597 70.8227 29.1597 70.8227V75.7095C29.1597 75.7095 27.3947 81.4797 26.988 86.5993C26.988 86.5993 26.2746 89.8689 27.439 91.7448C27.5913 91.9993 27.7857 92.2262 28.0138 92.4157L28.6089 93.9701C28.8183 93.6205 29.0844 93.3082 29.3963 93.046C29.4259 93.2401 29.4591 93.4674 29.4998 93.7206C29.5497 94.0385 29.6088 94.3989 29.6846 94.7852C29.315 95.3637 28.4223 96.5743 27.3503 97.0271C26.3596 97.4448 27.6497 98.5501 28.5406 99.1951C28.304 100.372 27.9621 101.818 27.6848 102.006C27.2061 102.332 25.6795 106.427 25.6795 106.427C25.6795 106.427 22.6724 113.451 26.9936 114.245C31.3148 115.04 33.5179 113.175 33.5179 113.175H34.5529C34.5529 113.175 35.8115 112.465 35.8467 110.998C36.5508 110.418 37.6321 109.497 37.852 109.126C38.0719 108.754 37.4657 107.545 37.0813 106.886L37.1829 106.701C37.1829 106.701 41.2916 101.443 41.8165 102.001C42.3414 102.559 42.6759 103.442 42.4375 104.002L42.663 107.224V112.249C42.663 112.249 42.0734 114.53 42.663 114.763C43.2526 114.996 42.663 115.872 42.663 115.872C42.663 115.872 42.8829 116.896 42.9236 117.221C42.9447 117.64 42.9447 118.059 42.9236 118.478L42.7258 123.505L42.3432 130.95C42.3432 130.95 41.9144 131.556 42.249 131.974C42.5835 132.391 42.4338 133.371 42.3432 133.556C42.2527 133.741 42.2009 135.278 42.2009 135.278C42.2009 135.278 40.8147 136.72 41.9144 137.093L41.9569 137.106C41.5023 137.528 41.4967 138.476 41.5318 138.77C41.567 139.063 41.2398 140.248 40.994 140.919C40.9449 141.09 40.8687 141.251 40.7685 141.398C40.6003 141.516 40.7685 142.819 40.7685 142.819C40.7685 142.819 46.1395 143.261 46.5942 142.819C46.779 142.647 46.7328 142.23 46.6034 141.747C46.3971 141.047 46.1223 140.369 45.7828 139.723C45.4704 139.143 45.6165 138.398 45.6165 138.398V137.844C45.9769 137.901 46.2116 137.934 46.2116 137.934C46.2116 137.934 46.8806 137.38 46.5942 136.864C46.3077 136.348 47.1191 133.469 47.1191 133.469C47.1191 133.469 48.0266 130.21 48.0266 129.885C48.0266 129.56 49.2205 125.326 49.2205 125.326C49.2205 125.326 50.9874 117.833 50.128 114.295C50.128 114.295 50.8913 113.412 50.7952 113.186C50.6991 112.961 50.4773 111.976 50.8045 111.558C51.1316 111.14 52.5159 105.926 52.8985 105.043C53.0741 104.634 53.514 103.507 53.9354 102.407C55.8372 102.123 58.1032 101.598 58.1032 101.598C58.1032 101.598 57.7649 100.158 57.5136 98.6868L57.7206 97.6758L57.7945 97.3265C57.9653 97.4942 58.1171 97.6802 58.2473 97.881L58.6281 96.0198C58.6281 96.0198 58.6706 95.9551 58.7427 95.835C59.1881 95.1382 60.8108 92.6338 61.5889 91.8742C62.4964 90.9741 61.9253 86.9708 61.5889 86.5531Z" fill="url(#paint0_linear_703_358)"/>
<path d="M50.0023 55.4158H44.7348V61.3302H50.0023V55.4158Z" fill="#925978"/>
<path opacity="0.1" d="M50.0023 55.4158H44.7348V61.3302H50.0023V55.4158Z" fill="black"/>
<path d="M37.0166 106.381C37.0166 106.381 38.3565 108.507 38.0331 109.061C37.7097 109.615 35.4955 111.418 35.4955 111.418L34.8412 106.982L37.0166 106.381Z" fill="#FF6484"/>
<path d="M32.858 113.22L33.8357 113.081H34.8375C34.8375 113.081 36.1682 112.316 36.0924 110.724C36.0167 109.133 36.0924 107.582 36.0924 107.582L32.858 113.22Z" fill="#575988"/>
<path opacity="0.1" d="M32.858 113.22L33.8357 113.081H34.8375C34.8375 113.081 36.1682 112.316 36.0924 110.724C36.0167 109.133 36.0924 107.582 36.0924 107.582L32.858 113.22Z" fill="black"/>
<path d="M34.8375 91.5489L29.2927 97.6481C29.2927 97.6481 28.6459 101.668 28.1838 101.991C27.7217 102.315 26.2542 106.381 26.2542 106.381C26.2542 106.381 23.347 113.358 27.5258 114.144C31.7047 114.929 33.832 113.081 33.832 113.081L37.3807 106.658C37.3807 106.658 41.3562 101.437 41.8645 101.991C42.3727 102.546 42.6962 103.424 42.4652 103.978L42.6814 107.167V112.157C42.6814 112.157 42.1121 114.421 42.6814 114.652C43.2507 114.883 42.6814 115.761 42.6814 115.761C42.6814 115.761 42.8958 116.777 42.9346 117.101C42.9734 117.424 42.9346 118.348 42.9346 118.348L42.7498 123.339L42.3801 130.732C42.3801 130.732 41.9643 131.332 42.2877 131.748C42.6112 132.164 42.4726 133.134 42.3801 133.319C42.2877 133.504 42.2415 135.029 42.2415 135.029C42.2415 135.029 40.9015 136.461 41.9643 136.831C43.027 137.2 46.1228 137.663 46.1228 137.663C46.1228 137.663 46.7697 137.108 46.4925 136.6C46.2152 136.092 47.0007 133.227 47.0007 133.227C47.0007 133.227 47.8787 129.992 47.8787 129.669C47.8787 129.345 49.0338 125.141 49.0338 125.141C49.0338 125.141 50.7434 117.702 49.9117 114.19C49.9117 114.19 50.651 113.312 50.5586 113.081C50.4662 112.85 50.25 111.88 50.5586 111.464C50.8673 111.048 52.222 105.873 52.5917 104.995C52.9613 104.117 54.5323 99.866 54.5323 99.866V92.011L34.8375 91.5489Z" fill="#575988"/>
<path d="M51.3903 63.6867L48.2003 69.7138L47.3593 71.2996L47.2318 71.5417L39.0071 71.8652C39.0071 71.8652 38.7724 71.3458 38.4397 70.54C37.8649 69.1445 36.9962 66.886 36.5582 64.9805C36.4498 64.5244 36.3696 64.0621 36.3179 63.5961C36.1959 62.4428 36.3808 61.6204 37.1201 61.5501C37.3069 61.5332 37.4952 61.5526 37.6745 61.6074C38.1885 61.7593 38.7268 61.8114 39.2603 61.7608C41.2121 61.5242 41.7832 59.4635 41.8793 57.5265C41.8793 57.3897 41.8922 57.253 41.8941 57.118C41.8941 56.6985 41.8941 56.2919 41.8663 55.9185C41.8293 55.2853 41.7565 54.6546 41.6483 54.0296C42.1367 53.7905 42.6482 53.6016 43.1749 53.4659C44.7348 53.0667 46.9324 53.0778 46.962 56.2937C46.9587 57.0064 47.0293 57.7174 47.1727 58.4155C47.2559 58.8134 47.3894 59.1991 47.57 59.5633C48.1116 60.6038 48.8638 60.7166 49.2168 60.7036C49.282 60.7037 49.3471 60.6969 49.4109 60.6833L51.3903 63.6867Z" fill="#FFC5CB"/>
<path opacity="0.1" d="M43.1805 67.1762C43.2943 67.5036 43.3524 67.8479 43.3523 68.1945C43.3872 68.5596 43.3786 68.9275 43.3265 69.2906C43.2738 69.6578 43.0916 69.9941 42.8127 70.2387" fill="black"/>
<path opacity="0.1" d="M45.5074 58.885C48.2379 58.885 50.4515 56.6714 50.4515 53.9409C50.4515 51.2104 48.2379 48.9969 45.5074 48.9969C42.7769 48.9969 40.5634 51.2104 40.5634 53.9409C40.5634 56.6714 42.7769 58.885 45.5074 58.885Z" fill="black"/>
<path d="M50.4496 53.7561C50.45 54.7497 50.151 55.7203 49.5914 56.5413C49.0319 57.3624 48.2378 57.9957 47.3129 58.3587C46.388 58.7217 45.3752 58.7974 44.4066 58.5761C43.4379 58.3548 42.5585 57.8467 41.883 57.118C41.8399 57.074 41.7992 57.0278 41.761 56.9794C41.2407 56.3753 40.8742 55.6543 40.6929 54.8779C40.5116 54.1015 40.5208 53.2927 40.7197 52.5206C40.9187 51.7486 41.3015 51.0361 41.8355 50.444C42.3695 49.8519 43.0388 49.3978 43.7863 49.1204C44.5338 48.8431 45.3373 48.7507 46.1282 48.8511C46.9192 48.9516 47.6741 49.2419 48.3285 49.6973C48.983 50.1527 49.5175 50.7597 49.8865 51.4665C50.2556 52.1732 50.4481 52.9588 50.4478 53.7561H50.4496Z" fill="#FFC5CB"/>
<path opacity="0.1" d="M37.5711 66.0894C37.5711 66.0894 39.3269 70.6638 43.0234 69.9245C43.0234 69.9245 46.755 70.2165 48.8916 67.4756C51.0281 64.7346 51.1557 83.1856 51.1557 83.1856L50.3239 95.4302C50.3239 95.4302 44.3671 98.988 41.7795 98.526C39.192 98.0639 37.9444 96.6777 37.9444 96.6777C37.9444 96.6777 35.2183 94.1364 34.479 93.813C33.7397 93.4895 34.8024 77.7333 34.8024 77.7333L35.6803 71.8189L37.5711 66.0894Z" fill="black"/>
<path d="M37.5711 65.7197C37.5711 65.7197 39.3269 70.2941 43.0234 69.5549C43.0234 69.5549 46.755 69.8469 48.8916 67.1059C51.0281 64.365 51.1557 82.816 51.1557 82.816L50.3239 95.0606C50.3239 95.0606 44.3671 98.6185 41.7795 98.1564C39.192 97.6943 37.9444 96.3082 37.9444 96.3082C37.9444 96.3082 35.2183 93.7668 34.479 93.4434C33.7397 93.1199 34.8024 77.3637 34.8024 77.3637L35.6803 71.4493L37.5711 65.7197Z" fill="#E8F4FF"/>
<path opacity="0.1" d="M37.3863 91.5489C37.3863 91.5489 41.36 95.9847 41.1289 96.4468C40.8979 96.9088 37.2939 92.8889 37.3863 91.5489Z" fill="black"/>
<path opacity="0.1" d="M36.7024 80.5186C36.7024 80.5186 37.9722 82.293 38.7669 82.1081L36.7024 80.5186Z" fill="black"/>
<path opacity="0.1" d="M39.447 61.6074C39.447 61.6074 39.447 61.661 39.4341 61.7608C39.3916 62.3283 39.2326 64.3853 39.0182 66.6772C38.8981 67.9709 38.7613 69.3275 38.6209 70.54C38.3917 72.5121 38.1477 74.0905 37.9407 74.3141C37.34 74.961 37.5711 81.0602 37.5711 81.0602V88.7766C37.5711 88.7766 37.0647 91.2255 36.647 91.78C36.2292 92.3344 35.209 94.4137 34.3921 94.6909C34.1047 94.8484 33.8465 95.0541 33.6288 95.299C32.8895 96.0383 31.8434 97.2711 31.0412 98.2432C30.3796 99.0546 29.8898 99.6812 29.8898 99.6812C29.8898 99.6812 26.6554 97.6481 28.0415 97.0474C29.0784 96.5983 29.936 95.397 30.3001 94.8296C30.4239 94.6447 30.4849 94.5135 30.4849 94.5135C30.5504 94.0828 30.6486 93.6577 30.7788 93.2419C30.8961 92.8499 31.0685 92.4765 31.2907 92.133C31.4599 91.8471 31.7348 91.6393 32.0559 91.5545C33.2573 91.3234 33.858 79.9106 33.858 79.9106L30.1615 71.8448L29.7918 71.039C29.7918 71.039 30.2539 66.3722 30.4849 66.3722C30.7159 66.3722 31.0856 65.2171 31.0856 64.8474C31.0856 64.4778 32.1945 63.5074 32.1945 63.5074C32.1945 63.5074 35.1258 61.7923 35.3107 61.1916C35.4086 60.8755 36.7523 60.3044 38.0036 59.835C39.1273 59.4136 40.1752 59.0735 40.1752 59.0735C40.787 60.005 39.447 61.6074 39.447 61.6074Z" fill="black"/>
<path d="M39.2622 61.6074C39.2622 61.6074 39.2622 61.661 39.2493 61.7608C39.2068 62.3283 39.0478 64.3853 38.8334 66.6772C38.7133 67.9709 38.5765 69.3275 38.4361 70.54C38.2069 72.5121 37.9629 74.0905 37.7559 74.3141C37.1552 74.961 37.3863 81.0602 37.3863 81.0602V88.7766C37.3863 88.7766 36.8798 91.2255 36.4621 91.78C36.0444 92.3344 35.0242 94.4137 34.2073 94.6909C33.9199 94.8484 33.6617 95.0541 33.4439 95.299C32.7046 96.0383 31.6585 97.2711 30.8564 98.2432C30.1947 99.0546 29.7049 99.6812 29.7049 99.6812C29.7049 99.6812 26.4705 97.6481 27.8567 97.0474C28.8936 96.5983 29.7512 95.397 30.1153 94.8296C30.2391 94.6447 30.3001 94.5135 30.3001 94.5135C30.3655 94.0828 30.4638 93.6577 30.5939 93.2419C30.7113 92.8499 30.8837 92.4765 31.1059 92.133C31.2751 91.8471 31.5499 91.6393 31.8711 91.5545C33.0724 91.3234 33.6731 79.9106 33.6731 79.9106L29.9766 71.8448L29.607 71.039C29.607 71.039 30.069 66.3722 30.3001 66.3722C30.5311 66.3722 30.9008 65.2171 30.9008 64.8474C30.9008 64.4778 32.0097 63.5074 32.0097 63.5074C32.0097 63.5074 34.941 61.7923 35.1258 61.1916C35.2238 60.8755 36.5675 60.3044 37.8187 59.835C38.9425 59.4136 39.9904 59.0735 39.9904 59.0735C40.6022 60.005 39.2622 61.6074 39.2622 61.6074Z" fill="#FF6484"/>
<path opacity="0.1" d="M57.6411 72.2237L53.6508 76.9016C53.6508 76.9016 57.1162 94.8758 56.7004 95.7075C56.6687 95.7765 56.6481 95.8501 56.6394 95.9256C56.5967 96.3563 56.6047 96.7905 56.6634 97.2193C56.7115 97.6721 56.7854 98.1749 56.8686 98.6757C57.1125 100.136 57.4397 101.566 57.4397 101.566C57.4397 101.566 52.7729 102.675 51.3405 102.537C49.9081 102.398 50.7398 100.088 50.9708 99.0251C51.2019 97.9623 49.3998 96.4745 49.3998 96.4745L46.8585 86.0412C46.8585 86.0412 46.6737 83.7309 46.1192 82.6219C45.5647 81.513 46.073 80.3116 45.8882 78.7406C45.7569 77.6206 46.5628 73.6173 47.1709 71.2903C47.4019 70.405 47.6052 69.7637 47.7253 69.614C47.7305 69.6059 47.7367 69.5984 47.7438 69.5918C48.1135 69.2684 47.7438 67.3739 47.7438 67.3739C47.7438 67.3739 48.6217 62.3837 48.5293 61.9678C48.4776 61.7313 48.7677 61.1509 49.0283 60.6944C49.2261 60.3488 49.4072 60.0734 49.4072 60.0734C49.4072 60.0734 51.1945 61.2064 54.2589 63.683L54.5361 63.9085C57.7705 66.5422 57.9553 71.8559 57.9553 71.8559L57.6411 72.2237Z" fill="black"/>
<path d="M57.826 72.2237L53.8356 76.9016C53.8356 76.9016 57.3011 94.8758 56.8852 95.7075C56.8535 95.7765 56.8329 95.8501 56.8242 95.9256C56.7815 96.3563 56.7896 96.7905 56.8482 97.2193C56.8963 97.6721 56.9702 98.1749 57.0534 98.6757C57.2974 100.136 57.6245 101.566 57.6245 101.566C57.6245 101.566 52.9577 102.675 51.5253 102.537C50.0929 102.398 50.9246 100.088 51.1557 99.0251C51.3867 97.9623 49.5846 96.4745 49.5846 96.4745L47.0433 86.0412C47.0433 86.0412 46.8585 83.7309 46.304 82.6219C45.7495 81.513 46.2578 80.3116 46.073 78.7406C45.9418 77.6206 46.7476 73.6173 47.3557 71.2903C47.5867 70.405 47.79 69.7637 47.9101 69.614C47.9154 69.6059 47.9216 69.5984 47.9286 69.5918C48.2983 69.2684 47.9286 67.3739 47.9286 67.3739C47.9286 67.3739 48.8065 62.3837 48.7141 61.9678C48.6624 61.7313 48.9525 61.1509 49.2131 60.6944C49.4109 60.3488 49.592 60.0734 49.592 60.0734C49.592 60.0734 51.3793 61.2064 54.4437 63.683L54.7209 63.9085C57.9553 66.5422 58.1402 71.8559 58.1402 71.8559L57.826 72.2237Z" fill="#FF6484"/>
<path opacity="0.1" d="M49.3998 74.7299C49.3536 75.0996 50.5087 94.7371 51.7101 95.8923L49.3998 74.7299Z" fill="black"/>
<path d="M33.8209 102.038C32.5271 102.851 31.5402 100.711 30.8637 98.2433C30.5477 97.0844 30.3093 95.8535 30.1244 94.8222C30.056 94.4377 29.9987 94.0829 29.9507 93.765C29.8232 92.9407 29.7659 92.401 29.7659 92.401L31.1262 92.1274L32.6306 91.8262L32.8155 93.5247L32.9023 94.2954C32.9023 94.2954 33.1389 94.6872 33.4568 95.299C34.3495 97.0881 35.8651 100.764 33.8209 102.038Z" fill="#FFC5CB"/>
<path d="M57.5783 96.0864L57.2549 97.6814L57.0534 98.685L57.0423 98.7349C57.0423 98.7349 53.0039 104.209 51.7101 101.945C50.7213 100.215 53.1333 97.3783 54.3235 96.1381C54.6932 95.7537 54.9446 95.5226 54.9446 95.5226L56.8242 95.9256L57.5783 96.0864Z" fill="#FFC5CB"/>
<path d="M46.4888 142.514C46.0489 142.952 40.8516 142.514 40.8516 142.514C40.8516 142.514 40.689 141.22 40.8516 141.104C40.9497 140.958 41.0233 140.797 41.0697 140.627C41.3082 139.952 41.6242 138.779 41.5909 138.494C41.5447 138.102 41.5688 136.531 42.6296 136.646C42.6296 136.646 44.0158 133.827 45.5425 137.293V138.125C45.4662 138.57 45.5222 139.027 45.7033 139.441C46.0323 140.083 46.2984 140.756 46.498 141.45C46.6237 141.928 46.6607 142.34 46.4888 142.514Z" fill="#FF6484"/>
<path d="M46.4888 142.514C46.0489 142.952 40.8516 142.514 40.8516 142.514C40.8516 142.514 40.689 141.22 40.8516 141.104C40.9497 140.958 41.0233 140.797 41.0697 140.627C41.7573 140.333 42.6925 140.049 43.3468 140.296C44.1729 140.61 45.6977 141.161 46.4888 141.45C46.6237 141.928 46.6607 142.34 46.4888 142.514Z" fill="#E8F4FF"/>
<path opacity="0.1" d="M41.8681 57.5265C41.9994 58.0551 42.1805 58.5892 42.1879 59.1289C42.199 59.8682 41.8792 60.5816 41.5392 61.247C41.151 62.0085 40.713 62.8254 40.8424 63.6701C40.9124 63.9902 41.0044 64.3052 41.1178 64.6127C41.4048 65.6038 41.3112 66.6663 40.8553 67.592C40.5522 68.2038 39.9312 68.7952 39.2677 68.5975C39.2178 67.945 39.1365 67.2335 38.8278 66.6771C38.7057 66.4513 38.5376 66.2536 38.3343 66.0968C37.8538 65.7271 37.1903 65.6495 36.7541 65.2318C36.6757 65.1567 36.6068 65.0723 36.5489 64.9805C36.3364 64.622 36.2456 64.2045 36.2902 63.7902C36.2902 63.7273 36.3031 63.6645 36.3142 63.6054C36.4033 63.1556 36.5538 62.7203 36.7615 62.3116C36.8761 62.0639 36.9962 61.8163 37.1163 61.5723C37.3943 61.02 37.6279 60.4465 37.815 59.8571C38.9387 59.4357 39.9866 59.0957 39.9866 59.0957C40.6021 60.0198 39.2621 61.6296 39.2621 61.6296C39.2621 61.6296 39.2621 61.6832 39.2492 61.783C41.2009 61.5243 41.7794 59.4635 41.8681 57.5265Z" fill="black"/>
<path opacity="0.1" d="M44.6368 50.5734C44.0972 50.7453 43.5815 51.0891 43.3431 51.6066C43.088 52.1795 43.2192 52.8412 43.1583 53.4659C43.1444 53.6029 43.1184 53.7383 43.0806 53.8707C42.8514 54.6377 42.1325 55.1792 41.8497 55.9185C41.8294 55.974 41.8109 56.0294 41.7943 56.0886C41.7196 56.3796 41.7064 56.683 41.7554 56.9794C41.0948 56.2103 40.6867 55.2565 40.5867 54.2475C40.4867 53.2385 40.6996 52.2232 41.1964 51.3394C41.6933 50.4555 42.45 49.7459 43.364 49.3069C44.278 48.868 45.3049 48.7208 46.3054 48.8855C47.3058 49.0502 48.2314 49.5187 48.9564 50.2275C49.6815 50.9362 50.1709 51.8509 50.3582 52.8474C50.5456 53.8439 50.4218 54.8739 50.0037 55.7976C49.5855 56.7213 48.8933 57.4939 48.021 58.0107C48.2298 57.3879 48.4498 56.7669 48.6198 56.1311C49.019 54.6358 49.0874 52.9077 48.1467 51.6787C47.7382 51.1659 47.1859 50.7867 46.5606 50.5898C45.9353 50.3929 45.2654 50.3872 44.6368 50.5734Z" fill="black"/>
<path opacity="0.1" d="M54.2921 65.5387C54.1295 66.1282 53.7155 66.7751 53.1056 66.7474C52.8154 66.7345 52.5511 66.5626 52.2609 66.5349C51.8487 66.4979 51.4588 66.764 51.2111 67.0893C50.9864 67.4385 50.7911 67.8057 50.6271 68.1872C50.1724 69.0706 49.2815 69.8654 48.2983 69.7268L48.1966 69.7083C48.0958 69.6882 47.9974 69.6578 47.9027 69.6177C47.0211 69.2481 46.5443 68.1132 46.5757 67.1097C46.6127 65.9656 47.0914 64.8825 47.2485 63.7477C47.3945 62.7016 47.2614 61.6352 47.3741 60.5854C47.4125 60.239 47.4742 59.8957 47.559 59.5577C48.1005 60.5983 48.8527 60.711 49.2058 60.6981C49.4035 60.3525 49.5847 60.0771 49.5847 60.0771C49.5847 60.0771 51.3719 61.2101 54.4363 63.6867C54.5058 64.3076 54.4569 64.936 54.2921 65.5387Z" fill="black"/>
<path d="M47.3242 45.0805C48.2834 45.4261 49.0911 46.1303 50.0744 46.3983C50.3975 46.4619 50.7166 46.5446 51.0299 46.6459C52.1389 47.0913 52.5418 48.4295 52.7543 49.6031C53.1369 51.7212 53.4123 54.0056 54.8244 55.6302C55.0757 55.9185 55.3677 56.1958 55.4842 56.5543C55.6006 56.9129 55.4435 57.4082 55.0683 57.4877C55.7115 57.7594 56.0276 58.5541 55.8926 59.2398C55.7577 59.9255 55.2568 60.4911 54.6673 60.8681C54.3919 61.053 54.0592 61.2378 54.0222 61.5631C54.02 61.7376 54.0599 61.91 54.1387 62.0658C54.5196 63.054 54.5746 64.1381 54.2958 65.1597C54.1331 65.7475 53.7191 66.3962 53.1092 66.3685C52.819 66.3556 52.5547 66.1837 52.2664 66.1559C51.8524 66.119 51.4643 66.3851 51.2147 66.7104C50.9897 67.0594 50.7943 67.4266 50.6307 67.8083C50.1779 68.6917 49.287 69.4865 48.3019 69.3479C47.1689 69.1871 46.5442 67.8693 46.5794 66.7307C46.6145 65.5922 47.0969 64.5036 47.254 63.3688C47.3981 62.3227 47.2651 61.2563 47.3796 60.2065C47.546 58.6687 48.2317 57.24 48.6309 55.7467C49.0301 54.2533 49.0967 52.5233 48.1559 51.2943C47.7479 50.7803 47.1956 50.4 46.5698 50.2024C45.944 50.0048 45.2734 49.9988 44.6442 50.1853C44.1027 50.3572 43.5889 50.701 43.3505 51.2185C43.04 51.9171 43.3043 52.7488 43.0862 53.4826C42.8404 54.3069 42.0271 54.8724 41.7924 55.7005C41.5189 56.6967 42.1621 57.7095 42.1805 58.7408C42.1916 59.4801 41.8719 60.1935 41.5337 60.8589C41.1437 61.6204 40.7056 62.4373 40.8369 63.2819C40.9062 63.6021 40.9976 63.917 41.1104 64.2245C41.4036 65.2205 41.3126 66.2902 40.8554 67.2224C40.5522 67.8341 39.9201 68.4256 39.2677 68.2278C39.1956 67.3129 39.0663 66.2816 38.3344 65.7272C37.852 65.3575 37.1884 65.2799 36.7523 64.8603C36.5728 64.6686 36.4379 64.4397 36.3571 64.1899C36.2763 63.9401 36.2515 63.6755 36.2847 63.415C36.3541 62.8949 36.5136 62.3908 36.756 61.9253C37.2864 60.7794 37.9314 59.6372 38.0054 58.3767C38.1163 56.4749 36.8964 54.6007 37.34 52.7451C37.7097 51.1926 39.1439 50.104 39.6873 48.6032C39.9774 47.7974 40.0236 46.8529 40.6114 46.2338C41.4616 45.3448 42.7609 45.646 43.8366 45.378C44.3356 45.2524 44.7607 44.9936 45.2856 44.9067C45.9687 44.7869 46.6712 44.8468 47.3242 45.0805Z" fill="#925978"/>
<path opacity="0.1" d="M34.2017 84.5219C34.2017 84.5219 34.2017 88.6804 34.2017 90.5287C34.2017 90.7764 34.2017 91.0333 34.1869 91.292C34.124 92.9554 33.8708 94.6872 33.8708 94.6872C33.5751 94.2517 33.2192 93.8603 32.8136 93.5247C31.9283 92.8279 31.1742 92.9166 30.6068 93.2345C30.3617 93.3767 30.1398 93.5556 29.9489 93.765C29.8213 92.9406 29.764 92.401 29.764 92.401L31.1243 92.1274C31.2935 91.8416 31.5684 91.6337 31.8895 91.5489C33.0909 91.3179 33.6916 79.905 33.6916 79.905L29.9951 71.8393V71.4456L31.2445 69.4587C33.3238 67.6567 33.832 70.2442 33.832 70.2442C33.832 70.2442 34.2017 77.2676 34.2017 77.4524C34.2017 77.6372 34.2017 84.5219 34.2017 84.5219Z" fill="black"/>
<path d="M33.8321 84.1097C33.8321 84.1097 33.8321 88.2683 33.8321 90.1165C33.8321 90.3642 33.8321 90.6211 33.8173 90.8798C33.7544 92.5432 33.5012 94.275 33.5012 94.275C30.9137 90.6248 29.0876 94.0163 29.0876 94.0163L28.511 92.473C28.2903 92.2838 28.1028 92.0589 27.9565 91.8076C26.8309 89.9446 27.5203 86.6973 27.5203 86.6973C27.914 81.6146 29.6218 75.8851 29.6218 75.8851V71.0334L30.8749 69.0466C32.9542 67.2445 33.8321 69.8321 33.8321 69.8321C33.8321 69.8321 33.8321 76.8554 33.8321 77.0402C33.8321 77.225 33.8321 84.1097 33.8321 84.1097Z" fill="#FF6484"/>
<path opacity="0.1" d="M33.8209 90.695C33.7581 92.3585 33.5049 94.0903 33.5049 94.0903C30.9173 90.44 29.0913 93.8315 29.0913 93.8315L28.5146 92.2882C28.2939 92.099 28.1065 91.8741 27.9601 91.6229C29.1652 90.9593 31.8211 89.7358 33.8209 90.695Z" fill="black"/>
<path d="M33.8209 90.8799C33.7581 92.5433 33.5049 94.2751 33.5049 94.2751C30.9173 90.6248 29.0913 94.0163 29.0913 94.0163L28.5146 92.473C28.2939 92.2838 28.1065 92.0589 27.9601 91.8077C29.1652 91.1442 31.8211 89.9206 33.8209 90.8799Z" fill="#FF6484"/>
<path opacity="0.1" d="M33.8209 90.8799C33.7581 92.5433 33.5049 94.2751 33.5049 94.2751C30.9173 90.6248 29.0913 94.0163 29.0913 94.0163L28.5146 92.473C28.2939 92.2838 28.1065 92.0589 27.9601 91.8077C29.1652 91.1442 31.8211 89.9206 33.8209 90.8799Z" fill="white"/>
<path opacity="0.1" d="M30.3203 78.3802C30.3203 78.3802 31.1521 82.9546 31.9838 84.2946C32.8155 85.6346 30.3203 78.3802 30.3203 78.3802Z" fill="black"/>
<path opacity="0.1" d="M28.1912 86.1428C28.1912 86.1428 28.6995 88.9152 29.7622 89.2386C30.8249 89.562 28.1912 86.1428 28.1912 86.1428Z" fill="black"/>
<path opacity="0.1" d="M56.8241 95.9256L57.5782 96.0864L57.2548 97.6814C57.132 97.5195 56.996 97.368 56.8482 97.2286C56.1636 96.5756 55.2682 96.1889 54.3235 96.1381C53.9128 96.1117 53.5004 96.1378 53.0963 96.2157C53.2722 95.588 53.3885 94.945 53.4437 94.2954C53.4766 94.0513 53.4361 93.803 53.3273 93.582C52.9576 93.0737 52.7728 88.3607 52.7728 88.3607C52.7728 88.3607 53.0963 85.958 53.2811 85.4959C53.4659 85.0339 52.4494 82.6718 52.4956 81.9584C52.5418 81.245 53.0963 75.0996 53.0963 74.7761C53.0963 74.4527 54.2976 68.1225 56.7927 70.5252L57.763 71.8651L57.8259 72.2237L53.8355 76.9016C53.8355 76.9016 57.301 94.8758 56.8851 95.7075C56.8534 95.7765 56.8328 95.8501 56.8241 95.9256Z" fill="black"/>
<path d="M61.0012 91.9186C60.2471 92.6727 58.6779 95.1604 58.2473 95.8517L58.1364 96.0365L57.7667 97.8848C57.7667 97.8848 56.473 95.6669 53.4696 96.2213C53.6455 95.5936 53.7618 94.9506 53.817 94.301C53.8499 94.0569 53.8094 93.8086 53.7006 93.5876C53.331 93.0793 53.1461 88.3663 53.1461 88.3663C53.1461 88.3663 53.4696 85.9636 53.6544 85.5015C53.8392 85.0395 52.8227 82.6774 52.8689 81.964C52.9151 81.2506 53.4696 75.1052 53.4696 74.7817C53.4696 74.4583 54.6709 68.128 57.1661 70.5308L58.1364 71.8707L58.8757 76.0755L60.3081 83.376C60.3081 83.376 60.6777 86.2408 61.0012 86.6567C61.3246 87.0725 61.8754 91.0407 61.0012 91.9186Z" fill="#FF6484"/>
<path opacity="0.1" d="M58.2436 95.6668L58.1327 95.8516L57.763 97.6999C57.763 97.6999 56.4693 95.482 53.4659 96.0364C53.6418 95.4087 53.7581 94.7657 53.8133 94.1161C54.8428 94.1808 56.9165 94.471 58.2436 95.6668Z" fill="black"/>
<path d="M58.2436 95.8516L58.1327 96.0364L57.763 97.8847C57.763 97.8847 56.4693 95.6668 53.4659 96.2213C53.6418 95.5935 53.7581 94.9506 53.8133 94.301C54.8428 94.3656 56.9165 94.6558 58.2436 95.8516Z" fill="#FF6484"/>
<path opacity="0.1" d="M58.2436 95.8516L58.1327 96.0364L57.763 97.8847C57.763 97.8847 56.4693 95.6668 53.4659 96.2213C53.6418 95.5935 53.7581 94.9506 53.8133 94.301C54.8428 94.3656 56.9165 94.6558 58.2436 95.8516Z" fill="white"/>
<path opacity="0.1" d="M55.2217 82.8622C55.2217 82.8622 58.3637 82.8234 58.8258 84.4591C59.2878 86.0947 55.2217 82.8622 55.2217 82.8622Z" fill="black"/>
<path opacity="0.1" d="M54.621 87.4828C54.621 87.4828 59.9347 87.2518 59.7037 89.5621C59.4727 91.8724 54.621 87.4828 54.621 87.4828Z" fill="black"/>
<path opacity="0.1" d="M54.9445 91.0407C54.9445 91.0407 55.3603 90.9482 55.6376 91.9186C55.9148 92.8889 54.9445 91.0407 54.9445 91.0407Z" fill="black"/>
<path opacity="0.1" d="M44.1822 113.635C44.1822 113.635 45.4482 113.266 46.0304 113.635C46.6126 114.005 44.1822 113.635 44.1822 113.635Z" fill="black"/>
<path opacity="0.1" d="M44.4095 114.975C44.4095 114.975 47.4129 115.022 47.6902 115.345C47.9674 115.669 44.4095 114.975 44.4095 114.975Z" fill="black"/>
<g opacity="0.1">
<path opacity="0.1" d="M38.0128 57.8222C38.1015 56.3104 37.3567 54.8188 37.2643 53.3384C37.1682 54.8318 37.9259 56.3362 38.0036 57.8592C38.0075 57.8471 38.0106 57.8347 38.0128 57.8222Z" fill="black"/>
<path opacity="0.1" d="M41.5411 60.3211C41.1566 61.0715 40.7278 61.8736 40.8387 62.7072C40.9182 62.0732 41.2435 61.4596 41.5411 60.8774C41.8793 60.212 42.199 59.506 42.1898 58.7593C42.1898 58.678 42.1843 58.5967 42.1732 58.5153C42.1085 59.1474 41.8312 59.75 41.5411 60.3211Z" fill="black"/>
<path opacity="0.1" d="M55.0647 56.9406C55.2018 56.9986 55.3271 57.0813 55.4343 57.1846C55.5266 56.9906 55.5437 56.7694 55.4824 56.5636C55.4824 56.5636 55.4824 56.5469 55.4732 56.5377C55.447 56.6351 55.3954 56.7238 55.3236 56.7946C55.2518 56.8654 55.1624 56.9158 55.0647 56.9406Z" fill="black"/>
<path opacity="0.1" d="M40.8554 66.6661C40.5523 67.2778 39.9202 67.8693 39.2677 67.6715C39.1956 66.7566 39.0663 65.7253 38.3344 65.1708C37.852 64.8012 37.1885 64.7236 36.7541 64.3059C36.4939 64.0413 36.3322 63.6956 36.2958 63.3263C36.2958 63.3559 36.2865 63.3854 36.2847 63.415C36.2514 63.6756 36.2762 63.9404 36.3574 64.1903C36.4385 64.4402 36.574 64.669 36.7541 64.8603C37.1885 65.2799 37.852 65.3631 38.3344 65.7272C39.0737 66.2816 39.1956 67.313 39.2677 68.2278C39.9202 68.4256 40.5523 67.8342 40.8554 67.2224C41.1713 66.5731 41.3121 65.8525 41.2638 65.132C41.2288 65.6651 41.0901 66.1862 40.8554 66.6661Z" fill="black"/>
<path opacity="0.1" d="M55.8889 58.6928C55.754 59.3766 55.2531 59.944 54.6654 60.3211C54.3882 60.5059 54.0555 60.6907 54.0185 61.016C54.01 61.1425 54.0316 61.2691 54.0814 61.3857C54.2328 61.1736 54.4331 61.0011 54.6654 60.8829C55.2531 60.5133 55.754 59.9385 55.8889 59.2546C55.925 59.056 55.925 58.8526 55.8889 58.654C55.8896 58.6669 55.8896 58.6798 55.8889 58.6928Z" fill="black"/>
<path opacity="0.1" d="M54.2921 64.6127C54.1295 65.2004 53.7173 65.8491 53.1055 65.8214C52.8154 65.8085 52.5511 65.6366 52.2627 65.6089C51.8487 65.5719 51.4606 65.838 51.2111 66.1633C50.9863 66.5121 50.7915 66.8794 50.6289 67.2612C50.1742 68.1446 49.2834 68.9394 48.3001 68.8008C47.3168 68.6622 46.6866 67.6031 46.5905 66.5662C46.5905 66.6235 46.5775 66.6808 46.5775 66.74C46.5406 67.884 47.1653 69.1963 48.3001 69.3571C49.2834 69.4957 50.1742 68.701 50.6289 67.8175C50.7911 67.4356 50.9859 67.0683 51.2111 66.7197C51.4606 66.3888 51.8487 66.1227 52.2627 66.1652C52.5511 66.1929 52.8172 66.3648 53.1055 66.3777C53.7173 66.4055 54.1295 65.7567 54.2921 65.169C54.4352 64.6482 54.4908 64.1074 54.4566 63.5684C54.4397 63.9214 54.3846 64.2716 54.2921 64.6127Z" fill="black"/>
<path opacity="0.1" d="M48.1523 51.309C48.6208 51.9548 48.8789 52.7292 48.8915 53.5269C48.9396 52.5215 48.7511 51.5308 48.1523 50.7435C47.7443 50.2295 47.1919 49.8492 46.5661 49.6516C45.9403 49.454 45.2698 49.448 44.6406 49.6345C44.0991 49.8064 43.5852 50.1502 43.3468 50.6677C43.0345 51.3663 43.2988 52.1999 43.0807 52.9318C42.8349 53.7561 42.0216 54.3217 41.7869 55.1497C41.7185 55.4151 41.7022 55.6913 41.7389 55.9629C41.7488 55.8762 41.7648 55.7904 41.7869 55.706C42.0142 54.878 42.8275 54.3124 43.0807 53.4881C43.2988 52.7488 43.0345 51.9226 43.3468 51.224C43.5779 50.7065 44.0861 50.3627 44.6406 50.1908C45.2707 50.0054 45.9418 50.0128 46.5677 50.2121C47.1935 50.4113 47.7454 50.7934 48.1523 51.309Z" fill="black"/>
</g>
<g opacity="0.8">
<path opacity="0.8" d="M104.954 122.172C113.141 122.172 119.777 115.536 119.777 107.35C119.777 99.1631 113.141 92.5266 104.954 92.5266C96.7677 92.5266 90.1313 99.1631 90.1313 107.35C90.1313 115.536 96.7677 122.172 104.954 122.172Z" fill="#1769FF"/>
<path opacity="0.8" d="M100.602 100.631C101.189 100.626 101.776 100.683 102.352 100.801C102.835 100.895 103.296 101.084 103.707 101.356C104.083 101.615 104.385 101.969 104.581 102.381C104.804 102.878 104.911 103.419 104.893 103.964C104.914 104.562 104.753 105.152 104.431 105.657C104.083 106.141 103.612 106.524 103.067 106.766C103.812 106.95 104.467 107.394 104.915 108.017C105.275 108.6 105.483 109.263 105.521 109.947C105.559 110.63 105.425 111.313 105.132 111.931C104.88 112.415 104.515 112.831 104.069 113.144C103.606 113.465 103.09 113.701 102.544 113.841C101.97 113.99 101.38 114.066 100.786 114.066H94.2806V100.631H100.602ZM100.232 106.069C100.692 106.089 101.146 105.959 101.526 105.699C101.866 105.453 102.035 105.045 102.034 104.476C102.044 104.208 101.986 103.943 101.864 103.705C101.758 103.511 101.602 103.348 101.413 103.234C101.213 103.117 100.993 103.037 100.764 102.999C100.512 102.955 100.257 102.933 100.001 102.934H97.2286V106.076L100.232 106.069ZM100.402 111.769C100.68 111.77 100.958 111.741 101.23 111.684C101.477 111.634 101.713 111.539 101.925 111.403C102.128 111.268 102.294 111.084 102.405 110.867C102.536 110.597 102.599 110.3 102.59 110C102.59 109.312 102.396 108.819 102.006 108.521C101.555 108.207 101.012 108.051 100.463 108.078H97.247V111.774L100.402 111.769ZM109.255 111.486C109.657 111.875 110.233 112.07 110.985 112.07C111.482 112.082 111.971 111.939 112.382 111.66C112.711 111.464 112.964 111.162 113.098 110.804H115.448C115.071 111.971 114.494 112.805 113.717 113.306C112.867 113.83 111.883 114.093 110.885 114.062C110.179 114.072 109.477 113.946 108.817 113.693C108.226 113.464 107.693 113.107 107.255 112.648C106.819 112.182 106.483 111.632 106.266 111.031C106.029 110.367 105.911 109.666 105.919 108.961C105.912 108.267 106.033 107.578 106.276 106.928C106.499 106.324 106.843 105.771 107.288 105.306C107.733 104.84 108.269 104.471 108.863 104.22C109.503 103.95 110.192 103.815 110.887 103.825C111.637 103.808 112.379 103.972 113.051 104.305C113.65 104.613 114.168 105.056 114.565 105.599C114.967 106.154 115.258 106.782 115.421 107.448C115.597 108.155 115.659 108.885 115.606 109.612H108.582C108.619 110.473 108.839 111.101 109.24 111.488L109.255 111.486ZM112.275 106.37C111.955 106.019 111.469 105.843 110.817 105.843C110.45 105.83 110.086 105.904 109.754 106.059C109.492 106.186 109.261 106.369 109.078 106.595C108.915 106.795 108.793 107.025 108.719 107.272C108.656 107.48 108.615 107.695 108.597 107.911H112.937C112.814 107.235 112.59 106.721 112.268 106.37H112.275ZM108.131 101.309H113.56V102.816H108.131V101.309Z" fill="white"/>
</g>
<g opacity="0.8">
<path opacity="0.8" d="M171.938 116.031C171.938 116.169 171.938 116.31 171.938 116.45C171.837 119.999 170.466 123.393 168.075 126.016C165.683 128.64 162.43 130.318 158.906 130.746C158.314 130.817 157.719 130.852 157.123 130.852C154.191 130.852 151.325 129.982 148.887 128.354C146.45 126.725 144.55 124.41 143.428 121.701C142.306 118.992 142.013 116.012 142.585 113.136C143.157 110.261 144.569 107.62 146.642 105.547C148.715 103.474 151.356 102.062 154.232 101.491C157.107 100.919 160.088 101.213 162.796 102.335C165.505 103.457 167.82 105.357 169.448 107.795C171.077 110.233 171.946 113.099 171.946 116.031H171.938Z" fill="#B3BBC6"/>
<path opacity="0.8" d="M171.931 116.45C171.83 119.999 170.459 123.393 168.067 126.016C165.676 128.64 162.423 130.318 158.899 130.746L146.797 121.744L148.308 111.948L154.293 112.318L157.697 115.171L160.119 111.225L164.185 114.604L166.371 116.169V111.229L171.883 116.33C171.896 116.371 171.916 116.41 171.931 116.45Z" fill="#666C76"/>
<path opacity="0.8" d="M156.054 116.395C156.054 113.253 154.123 111.124 150.445 111.124H146.813V121.699H150.521C154.092 121.699 156.054 119.537 156.054 116.395ZM153.417 116.411C153.417 118.679 152.253 119.661 150.384 119.661H149.432V113.162H150.384C152.177 113.162 153.417 114.188 153.417 116.411ZM166.491 121.699V111.124H164.054V117.038L160.161 111.124H157.616V121.697H160.054V115.369L164.222 121.697H166.491V121.699Z" fill="white"/>
</g>
<path d="M160.793 100.261C160.608 99.8918 158.884 97.4189 158.884 97.4189L158.832 97.1971L158.267 94.6743L158.228 94.4894C158.598 94.3952 158.864 94.2787 158.947 94.1327C159.353 93.4212 158.603 92.5562 158.603 92.5562L158.446 88.8153L158.039 79.759C158.039 79.759 157.195 76.7278 157.069 76.0181C156.943 75.3084 155.786 73.8224 155.786 73.8224C155.786 73.8224 156.036 73.0831 155.723 72.5545C155.411 72.0259 154.722 69.5548 154.722 69.5548L154.128 62.7163L153.846 55.9887C154.129 55.9867 154.412 56.0133 154.69 56.0682C154.731 56.1015 154.709 56.0183 154.65 55.8686C154.664 55.871 154.678 55.876 154.69 55.8834C154.786 55.961 154.53 55.3825 154.252 54.7929L154.219 54.7245C154.352 54.2422 154.903 52.2886 155.285 51.5825C155.57 51.0613 155.023 47.4628 154.605 45.0046C154.576 44.8291 154.546 44.6609 154.518 44.4982C155.197 43.3117 155.975 41.9661 155.975 41.9661C155.975 41.9661 157.945 36.3401 158.758 33.8967C159.572 31.4533 158.758 25.1176 158.758 25.1176C158.758 25.1176 158.758 24.8071 158.714 24.3228C158.586 23.0143 158.098 20.4545 156.224 19.4601C153.659 18.0998 152.846 16.4308 152.846 16.4308C152.846 16.4308 149.645 13.518 149.24 14.4957L149.212 14.4403C148.973 13.9514 148.797 13.4341 148.689 12.9007C148.678 12.8453 148.669 12.7898 148.66 12.7362C149.069 12.4133 149.424 12.0278 149.713 11.594C149.713 11.6753 149.7 11.7567 149.695 11.838C149.695 11.8897 149.695 11.9415 149.695 11.9914V12.0616C149.693 12.0955 149.693 12.1294 149.695 12.1633C149.695 12.1836 149.695 12.2039 149.695 12.2243C149.813 12.2358 149.932 12.2111 150.036 12.1533C150.14 12.0955 150.224 12.0075 150.277 11.9008C150.377 11.6875 150.444 11.4599 150.474 11.2262C150.583 10.7285 150.781 10.2549 151.06 9.82894C151.334 9.40939 151.7 8.98799 151.748 8.50929C151.755 8.43925 151.755 8.36863 151.748 8.29859C151.724 8.05463 151.609 7.82729 151.574 7.58517C151.559 7.46242 151.559 7.33828 151.574 7.21552C151.574 7.14344 151.591 7.07136 151.602 7.00113C151.613 6.93089 151.631 6.8163 151.644 6.7128C151.657 6.6093 151.668 6.55201 151.678 6.47068V6.46144C151.704 6.24845 151.704 6.0331 151.678 5.8201C151.662 5.62322 151.599 5.43296 151.495 5.26515C151.391 5.09734 151.248 4.95683 151.079 4.85532C150.894 4.76106 150.681 4.73149 150.497 4.63723C150.009 4.38772 149.853 3.78889 149.573 3.32683C149.373 3.0188 149.103 2.76274 148.785 2.57986C148.467 2.39698 148.109 2.29253 147.743 2.27518C147.004 2.24561 146.279 2.56905 145.553 2.46C145.089 2.38607 144.662 2.13471 144.192 2.10144C143.507 2.05339 142.889 2.47109 142.333 2.87216C141.939 3.15494 141.52 3.47469 141.39 3.94044C141.287 4.32118 141.39 4.75921 141.176 5.0919C141.037 5.30814 140.786 5.43197 140.631 5.64637C140.503 5.81687 140.437 6.02649 140.446 6.23965C140.446 6.25814 140.446 6.27847 140.446 6.2988C140.446 6.31913 140.446 6.36533 140.446 6.3986C140.459 6.54092 140.485 6.68508 140.509 6.82555C140.51 6.84032 140.51 6.85513 140.509 6.8699C140.564 7.25988 140.439 7.53342 140.298 7.91416C140.238 8.07469 140.204 8.2438 140.198 8.41503C140.198 8.41503 140.198 8.43167 140.198 8.44091C140.198 8.45015 140.198 8.46494 140.198 8.47787C140.196 8.51358 140.196 8.54936 140.198 8.58507C140.215 8.71796 140.273 8.84218 140.365 8.93993C140.411 8.86448 140.474 8.80111 140.549 8.75511C140.549 8.81056 140.549 8.866 140.549 8.9233V8.93439C140.55 9.58591 140.681 10.2307 140.935 10.8307C141.189 11.4307 141.561 11.9737 142.028 12.4276C142.028 12.4812 142.013 12.5366 142.006 12.5902C141.926 13.1447 141.821 13.7546 141.694 14.3386L141.649 14.5235H140.725C140.725 14.5235 140.882 13.8433 139.348 14.6787C137.814 15.5141 135.936 15.9152 135.652 16.0686C135.367 16.222 131.898 18.9149 131.898 18.9149C131.898 18.9149 128.893 20.6448 128.987 23.6131L128.643 26.9399L128.394 33.1537C128.394 33.1537 127.924 38.4415 128.394 39.1827C128.863 39.9238 129.676 44.3153 129.519 44.8716C129.406 45.2745 130.539 48.106 131.327 49.7565C131.115 49.9793 130.92 50.2165 130.741 50.4662C130.741 50.4662 130.427 51.7045 130.427 51.8284C130.427 51.8284 130.427 51.8413 130.441 51.8487C129.748 52.551 128.643 53.7062 128.643 53.9612C128.643 54.3309 128.863 54.6543 128.519 54.6321C128.175 54.61 128.164 55.0129 128.185 55.2587C128.205 55.5045 127.767 55.1367 127.798 55.5988C127.83 56.0608 124.607 63.3281 124.607 63.3281C124.607 63.3281 123.137 66.8841 122.573 67.4719C122.01 68.0596 121.228 70.6564 121.291 71.6138C121.354 72.5712 121.385 72.8521 121.134 72.8521C120.882 72.8521 120.383 73.7171 120.383 73.7171L117.912 81.3226C117.912 81.3226 117.191 83.6717 116.973 83.6421C116.755 83.6125 116.264 87.6787 116.264 87.6787C116.264 87.6787 115.733 88.8837 115.639 88.8837C115.62 88.8837 115.707 88.9706 115.868 89.1074L115.761 89.1979C115.529 89.3968 115.285 89.582 115.031 89.7524C115.022 89.7524 113.602 88.7673 112.628 88.8597C111.654 88.9521 109.656 89.1979 108.653 88.4901C108.098 88.0945 106.928 87.7507 105.987 87.736C105.237 87.7249 104.629 87.9208 104.586 88.4901C104.492 89.7561 107.996 92.1385 107.996 92.1385C107.996 92.1385 111.693 93.1883 112.408 94.1715C113.123 95.1548 116.079 96.6445 116.079 96.6445C116.079 96.6445 116.968 96.2527 117.302 95.859C117.342 95.8214 117.374 95.7758 117.395 95.7251C117.416 95.6745 117.426 95.6199 117.424 95.5651C117.361 95.1012 118.644 93.3472 118.644 93.3472L118.829 92.4767C118.92 92.0461 119.034 91.5212 119.147 91.0609C119.162 90.9981 119.176 90.9365 119.191 90.8761C119.338 90.8835 119.484 90.8609 119.622 90.8096C120.873 90.3161 120.999 88.9613 120.999 88.9613L122.871 85.0449C122.871 85.0449 123.684 82.7882 123.934 82.3853C124.183 81.9824 126.124 77.9347 126.124 77.9347C126.124 77.9347 126.468 76.2029 126.782 75.678C127.096 75.1531 127.126 74.0146 127.126 74.0146C127.126 74.0146 127.782 72.2828 128.471 71.6027C128.968 71.0689 129.398 70.4776 129.754 69.8413C129.754 69.8413 132.6 65.3575 134.541 64.0914C134.541 64.0914 139.204 58.4025 139.485 57.9072C139.766 57.4119 140.642 56.1144 141.703 57.2881C142.764 58.4617 143.891 59.9791 143.891 59.9791L145.802 65.1726L147.929 71.8263C147.929 71.8263 148.929 73.4324 148.868 73.7725C148.807 74.1126 150.495 77.1437 150.495 77.1437C150.495 77.1437 151.151 78.2526 151.027 78.8071C150.903 79.3616 151.497 79.9161 151.497 79.9161L151.681 82.1728C151.681 82.1728 152.371 84.3906 152.182 84.74C151.994 85.0893 152.84 87.2129 152.84 87.2129C152.84 87.2129 152.84 89.0981 153.153 89.7173C153.465 90.3364 153.846 92.8075 153.814 92.9924C153.783 93.1772 153.814 94.8794 153.814 94.8794C153.814 94.8794 154.034 94.8794 154.384 94.8683L154.398 95.0532L154.554 96.9143L154.568 97.0862C154.484 97.151 154.415 97.233 154.366 97.3267C154.317 97.4205 154.288 97.5238 154.282 97.6296C154.282 98.1323 154.356 99.6091 154.419 100.772C154.433 101.08 154.45 101.365 154.465 101.603C154.47 101.687 154.492 101.768 154.529 101.843C154.567 101.917 154.619 101.983 154.683 102.037C154.747 102.09 154.822 102.13 154.902 102.154C154.982 102.177 155.066 102.184 155.149 102.174C156.038 102.062 156.941 102.096 157.819 102.274C158.793 102.498 159.795 102.571 160.791 102.492C160.791 102.492 160.86 101.796 160.871 101.171C160.88 100.772 160.865 100.404 160.793 100.261Z" fill="url(#paint1_linear_703_358)"/>
<path d="M158.4 97.5059H154.18L154.14 97.0087L153.986 95.153L153.872 93.7484H157.568L157.794 94.7704L158.35 97.2841L158.4 97.5059Z" fill="#FFAAB0"/>
<path d="M119.616 90.05C119.537 90.1276 119.406 90.5952 119.272 91.1589C119.034 92.1496 118.785 93.4378 118.785 93.4378L118.629 93.4748L115.339 94.2695C115.339 94.2695 113.615 90.3272 114.415 90.2348C114.698 90.1757 114.964 90.0573 115.197 89.8873C115.461 89.7124 115.713 89.5211 115.953 89.3144C116.391 88.9447 116.726 88.6009 116.726 88.6009C116.726 88.6009 119.833 89.8337 119.616 90.05Z" fill="#FFAAB0"/>
<path opacity="0.1" d="M119.616 90.05C119.537 90.1276 119.406 90.5952 119.272 91.1589C118.136 91.0924 116.417 89.7432 115.946 89.3107C116.384 88.9411 116.718 88.5973 116.718 88.5973C116.718 88.5973 119.832 89.8338 119.616 90.05Z" fill="black"/>
<path opacity="0.1" d="M157.792 94.7686C156.779 95.0421 154.921 95.1253 153.984 95.1511L153.87 93.7465H157.566L157.792 94.7686Z" fill="black"/>
<path d="M130.983 51.5456C130.983 51.5456 128.673 53.8245 128.673 54.1941C128.673 54.5638 128.889 54.8835 128.551 54.8632C128.213 54.8429 128.201 55.2421 128.222 55.4879C128.242 55.7337 127.811 55.3641 127.841 55.8261C127.871 56.2882 124.699 63.5277 124.699 63.5277C124.699 63.5277 123.252 67.0708 122.697 67.6549C122.143 68.2389 121.372 70.8283 121.435 71.7838C121.498 72.7394 121.527 73.0148 121.28 73.0148C121.032 73.0148 120.54 73.8779 120.54 73.8779L118.108 81.4557C118.108 81.4557 117.398 83.7974 117.184 83.766C116.97 83.7346 116.445 87.8007 116.445 87.8007C116.445 87.8007 115.92 89.002 115.827 89.002C115.735 89.002 118.507 91.4048 119.74 90.9131C120.973 90.4215 121.095 89.0649 121.095 89.0649L122.943 85.1836C122.943 85.1836 123.745 82.9343 123.991 82.5332C124.237 82.1321 126.148 78.0974 126.148 78.0974C126.148 78.0974 126.486 76.373 126.795 75.85C127.104 75.3269 127.133 74.1865 127.133 74.1865C127.133 74.1865 127.78 72.4603 128.458 71.7838C128.947 71.2507 129.371 70.6613 129.721 70.028C129.721 70.028 132.524 65.5608 134.434 64.2985C134.434 64.2985 139.023 58.6299 139.3 58.1364C139.577 57.6429 140.44 56.351 141.488 57.521C142.536 58.6909 143.643 60.2009 143.643 60.2009L145.523 65.376L147.617 71.9982C147.617 71.9982 148.604 73.6007 148.541 73.9389C148.478 74.2771 150.144 77.2971 150.144 77.2971C150.144 77.2971 150.791 78.4061 150.667 78.9605C150.543 79.515 151.129 80.0695 151.129 80.0695L151.314 82.3188C151.314 82.3188 151.992 84.5367 151.807 84.8749C151.622 85.2132 152.454 87.3386 152.454 87.3386C152.454 87.3386 152.454 89.2183 152.763 89.8337C153.071 90.4492 153.439 92.9148 153.41 93.0996C153.38 93.2844 153.41 94.9793 153.41 94.9793C153.41 94.9793 158.058 94.9478 158.459 94.24C158.86 93.5321 158.121 92.6689 158.121 92.6689L157.965 88.9411L157.566 79.9161C157.566 79.9161 156.735 76.8961 156.611 76.1882C156.487 75.4803 155.348 74.0017 155.348 74.0017C155.348 74.0017 155.594 73.2624 155.286 72.7375C154.977 72.2126 154.3 69.7508 154.3 69.7508L153.715 62.9418L153.413 55.5193L130.983 51.5456Z" fill="#DCE6F2"/>
<path opacity="0.1" d="M154.271 56.3196C154.086 56.1644 146.508 56.1034 146.416 56.1034C146.323 56.1034 143.459 54.963 143.459 54.963C143.459 54.963 137.082 53.9169 136.097 54.379C135.112 54.841 132.061 53.5158 132.061 53.5158V52.93C132.061 52.93 130.429 52.3755 130.429 52.2535C130.429 52.1315 130.737 50.8969 130.737 50.8969L130.922 50.8322L131.628 50.5901L153.284 54.0703C153.284 54.0703 153.57 54.6581 153.838 55.2329C154.106 55.8077 154.365 56.3972 154.271 56.3196Z" fill="black"/>
<path d="M154.271 56.1348C154.086 55.9795 146.508 55.9186 146.416 55.9186C146.323 55.9186 143.459 54.7782 143.459 54.7782C143.459 54.7782 137.082 53.7321 136.097 54.1941C135.112 54.6562 132.061 53.331 132.061 53.331V52.7451C132.061 52.7451 130.429 52.1907 130.429 52.0687C130.429 51.9467 130.737 50.7121 130.737 50.7121L130.922 50.6474L131.628 50.4053L153.284 53.8855C153.284 53.8855 153.57 54.4732 153.838 55.048C154.106 55.6228 154.365 56.2124 154.271 56.1348Z" fill="#F1FAFF"/>
<path opacity="0.1" d="M118.96 92.3825L118.775 93.253C118.775 93.253 118.714 93.338 118.62 93.4748L115.339 94.2695C115.339 94.2695 113.615 90.3272 114.415 90.2348C114.698 90.1758 114.964 90.0573 115.197 89.8874C115.029 91.122 115.986 92.4213 115.986 92.4213C117.337 93.4378 118.96 92.3825 118.96 92.3825Z" fill="black"/>
<path d="M118.96 92.5692L118.775 93.4397C118.775 93.4397 117.513 95.1955 117.574 95.6576C117.576 95.7122 117.566 95.7666 117.545 95.8172C117.524 95.8678 117.493 95.9136 117.454 95.9515C117.125 96.3433 116.249 96.7333 116.249 96.7333C116.249 96.7333 113.355 95.2547 112.645 94.2695C111.935 93.2844 108.301 92.2365 108.301 92.2365C108.301 92.2365 104.853 89.8633 104.945 88.601C104.986 88.0465 105.585 87.8395 106.324 87.8506C107.248 87.8617 108.399 88.2073 108.948 88.601C109.935 89.3088 111.906 89.063 112.861 88.9706C113.817 88.8782 115.221 89.8615 115.221 89.8615C114.902 91.1552 115.972 92.6061 115.972 92.6061C117.338 93.6245 118.96 92.5692 118.96 92.5692Z" fill="#575988"/>
<path d="M117.463 95.9495C117.134 96.3414 116.258 96.7313 116.258 96.7313C116.258 96.7313 113.364 95.2528 112.654 94.2677C111.944 93.2825 108.311 92.2346 108.311 92.2346C108.311 92.2346 104.862 89.8615 104.954 88.5991C104.995 88.0447 105.594 87.8377 106.333 87.8487C106.887 88.7729 107.706 90.0574 108.311 90.4159C109.298 91.0018 111.238 92.1108 111.238 92.1108C111.238 92.1108 114.317 94.0514 114.534 94.2677C114.711 94.4469 116.495 95.6261 117.463 95.9495Z" fill="#F1FAFF"/>
<path opacity="0.1" d="M158.403 97.504H154.178L154.138 97.0068C154.67 96.5059 155.81 96.2675 155.81 96.2675C156.601 96.0254 158.06 97.0641 158.348 97.2785L158.403 97.504Z" fill="black"/>
<path d="M160.357 101.241C160.346 101.864 160.278 102.557 160.278 102.557C159.297 102.636 158.31 102.563 157.352 102.341C156.487 102.163 155.599 102.129 154.724 102.241C154.641 102.251 154.558 102.243 154.479 102.22C154.4 102.196 154.326 102.156 154.263 102.103C154.2 102.049 154.148 101.984 154.111 101.909C154.074 101.835 154.053 101.754 154.049 101.672C154.036 101.435 154.019 101.151 154.005 100.844C153.942 99.6923 153.87 98.2211 153.87 97.7202C153.87 96.8589 155.81 96.4578 155.81 96.4578C156.69 96.188 158.398 97.5058 158.398 97.5058C158.398 97.5058 160.093 99.9695 160.278 100.339C160.35 100.481 160.364 100.847 160.357 101.241Z" fill="#575988"/>
<path d="M160.357 101.241C160.346 101.864 160.278 102.557 160.278 102.557C159.297 102.636 158.31 102.563 157.352 102.341C156.487 102.163 155.599 102.129 154.724 102.241C154.641 102.251 154.558 102.243 154.479 102.22C154.4 102.196 154.326 102.156 154.263 102.103C154.2 102.049 154.148 101.984 154.111 101.909C154.074 101.835 154.053 101.754 154.049 101.672C154.036 101.435 154.019 101.151 154.005 100.844C154.714 100.737 155.761 100.633 156.489 100.801C157.335 100.997 159.28 101.162 160.357 101.241Z" fill="#F1FAFF"/>
<path opacity="0.1" d="M118.276 82.7346C118.276 82.7346 117.629 83.8436 118.276 84.3519C118.923 84.8602 118.276 82.7346 118.276 82.7346Z" fill="black"/>
<path opacity="0.1" d="M153.023 87.0318C153.208 87.4015 153.7 87.956 153.615 88.6029C153.53 89.2498 153.023 87.0318 153.023 87.0318Z" fill="black"/>
<path d="M152.454 19.4472C152.454 19.4472 149.632 19.1607 146.706 18.7726L146.586 18.7559C143.189 18.3031 139.703 17.7172 140.378 17.2903C140.679 17.1055 140.932 16.636 141.141 16.0446C141.271 15.6658 141.38 15.2802 141.468 14.8894C141.483 14.8284 141.496 14.7656 141.511 14.7046C141.638 14.1224 141.74 13.5143 141.819 12.9636C141.976 11.8417 142.041 10.9471 142.041 10.9471C142.041 10.9471 149.281 8.20434 148.388 11.6236C148.253 12.1726 148.244 12.7452 148.362 13.2981C148.468 13.8292 148.642 14.3446 148.878 14.8321C150.031 17.294 152.454 19.4472 152.454 19.4472Z" fill="#FFAAB0"/>
<path opacity="0.1" d="M148.388 11.6218C148.253 12.1708 148.244 12.7433 148.362 13.2963C147.423 14.0583 146.234 14.4457 145.026 14.3839C143.818 14.3221 142.676 13.8156 141.819 12.9617C141.976 11.8398 142.041 10.9453 142.041 10.9453C142.041 10.9453 149.281 8.20251 148.388 11.6218Z" fill="black"/>
<path d="M150.173 9.30775C150.175 10.6067 149.66 11.8531 148.743 12.7727C148.288 13.228 147.749 13.5894 147.155 13.8362C146.561 14.083 145.924 14.2104 145.281 14.2111C144.638 14.2119 144.001 14.0859 143.406 13.8404C142.812 13.595 142.271 13.2348 141.816 12.7805C140.896 11.863 140.379 10.6178 140.378 9.31884V9.30775C140.378 8.00876 140.894 6.76298 141.812 5.84445C142.731 4.92593 143.976 4.40991 145.275 4.40991C146.574 4.40991 147.82 4.92593 148.739 5.84445C149.657 6.76298 150.173 8.00876 150.173 9.30775Z" fill="#FFAAB0"/>
<path opacity="0.1" d="M146.771 18.5711C146.757 18.6405 146.735 18.7081 146.706 18.7726L146.586 18.7559C143.189 18.3031 139.703 17.7172 140.378 17.2903C140.679 17.1055 140.932 16.636 141.141 16.0446C141.271 15.6658 141.38 15.2802 141.468 14.8894C141.483 14.8284 141.496 14.7656 141.511 14.7046H141.653C141.664 14.7822 142.023 17.1498 145.2 17.5546L145.307 17.5675C146.547 17.7061 146.863 18.1128 146.771 18.5711Z" fill="black"/>
<path d="M146.586 18.756C146.431 19.523 145.122 20.4323 145.122 20.4323L141.487 19.754C141.487 19.754 139.208 17.721 139.208 17.66C139.208 17.599 140.562 14.8876 140.562 14.8876H141.468C141.479 14.9652 141.838 17.3328 145.015 17.7376L145.122 17.7505C146.362 17.891 146.678 18.2976 146.586 18.756Z" fill="#F1FAFF"/>
<path opacity="0.1" d="M152.454 19.4472C152.454 19.4472 149.554 19.1533 146.586 18.756C146.431 19.523 145.122 20.4323 145.122 20.4323L141.487 19.754C141.487 19.754 139.208 17.7209 139.208 17.6599C139.208 17.599 140.562 14.8876 140.562 14.8876H140.609C140.728 15.2974 140.907 15.6874 141.141 16.0446C141.712 16.917 142.804 17.8725 144.837 17.7524L145.007 17.7394C148.059 17.4862 148.745 15.3737 148.87 14.8303C150.031 17.294 152.454 19.4472 152.454 19.4472Z" fill="black"/>
<path opacity="0.1" d="M153.838 55.048L153.777 55.2717C153.038 54.7172 147.649 54.3476 147.649 54.3476C147.649 54.3476 146.231 54.1812 144.876 53.965C143.893 53.8079 142.943 53.623 142.594 53.4549C142.512 53.4186 142.429 53.3871 142.344 53.3606C141.117 52.9762 137.354 52.5307 137.354 52.5307C137.354 52.5307 135.506 53.3624 134.52 52.9928C133.535 52.6231 130.732 50.8969 130.732 50.8969C130.732 50.8969 130.793 50.8045 130.916 50.6474L131.622 50.4053L153.278 53.8855C153.278 53.8855 153.572 54.4732 153.838 55.048Z" fill="black"/>
<path d="M154.186 45.3078C154.598 47.7586 155.136 51.3423 154.857 51.8616C154.424 52.6619 153.777 55.0961 153.777 55.0961C153.038 54.5416 147.649 54.172 147.649 54.172C147.649 54.172 146.231 54.0056 144.876 53.7894C143.893 53.6323 142.943 53.4474 142.594 53.2793C142.512 53.243 142.429 53.2115 142.344 53.185C141.117 52.8006 137.354 52.3551 137.354 52.3551C137.354 52.3551 135.506 53.1868 134.521 52.8172C133.535 52.4475 130.732 50.7213 130.732 50.7213C131.135 50.1679 131.6 49.6619 132.118 49.2131C133.071 48.35 134.827 40.9256 134.783 40.8332C134.739 40.7408 134.304 38.3695 134.428 36.9833C134.552 35.5971 134.058 28.8196 134.058 28.8196C134.058 28.8196 129.103 26.9011 129.016 23.944C128.93 20.9868 131.881 19.2624 131.881 19.2624C131.881 19.2624 135.3 16.5824 135.578 16.4272C135.855 16.2719 137.703 15.8727 139.213 15.041C140.723 14.2093 140.568 14.8876 140.568 14.8876C140.568 14.8876 141.185 18.1534 144.85 17.9372C148.515 17.7209 148.916 14.8876 148.916 14.8876C149.31 13.9025 152.467 16.8282 152.467 16.8282C152.467 16.8282 153.267 18.4916 155.794 19.8464C157.642 20.8371 158.119 23.3876 158.245 24.6906C158.291 25.173 158.289 25.4835 158.289 25.4835L150.864 30.8139L153.783 42.9809C153.783 42.9809 153.968 43.9734 154.186 45.3078Z" fill="#575988"/>
<path d="M135.82 51.638C135.82 51.638 138.254 55.8261 140.779 54.6562C141.348 54.3975 141.82 53.9653 142.128 53.4216C143.124 51.699 142.128 49.5014 140.198 48.9858C139.487 48.801 138.72 48.6845 138.099 48.801C136.343 49.1115 135.82 51.638 135.82 51.638Z" fill="#FFAAB0"/>
<path opacity="0.1" d="M135.82 51.638C135.82 51.638 138.254 55.8261 140.779 54.6562C141.348 54.3975 141.82 53.9653 142.128 53.4216C143.124 51.699 142.128 49.5014 140.198 48.9858C139.487 48.801 138.72 48.6845 138.099 48.801C136.343 49.1115 135.82 51.638 135.82 51.638Z" fill="black"/>
<path opacity="0.1" d="M132.247 21.0496C132.247 21.0496 134.167 22.3434 134.208 24.3764L132.247 21.0496Z" fill="black"/>
<path opacity="0.1" d="M135.265 22.0347C135.265 22.1586 134.711 30.7215 135.696 33.6472C136.681 36.573 135.265 22.0347 135.265 22.0347Z" fill="black"/>
<path opacity="0.1" d="M150.173 9.30774C150.175 10.2569 149.9 11.1859 149.38 11.9803C149.38 11.9175 149.38 11.8565 149.38 11.7955C149.349 11.2817 149.077 10.8178 148.813 10.3742C148.633 10.0215 148.381 9.71041 148.074 9.46114C147.984 9.40896 147.9 9.34697 147.824 9.27632C147.654 9.09149 147.673 8.79762 147.639 8.53702C147.59 8.19622 147.436 7.87935 147.197 7.63078C146.959 7.38221 146.649 7.2144 146.31 7.15084C146.17 7.11576 146.021 7.13699 145.896 7.20998C145.771 7.2987 145.712 7.46319 145.606 7.56485C145.44 7.71455 145.185 7.69607 144.965 7.65356C144.481 7.55745 143.976 7.38187 143.507 7.53712C142.701 7.80512 142.398 8.91961 141.572 9.12661C141.327 9.16315 141.08 9.18045 140.832 9.17836C140.673 9.18876 140.519 9.23624 140.381 9.31698V9.30589C140.381 8.0069 140.897 6.76112 141.816 5.84259C142.734 4.92407 143.98 4.40805 145.279 4.40805C146.578 4.40805 147.824 4.92407 148.742 5.84259C149.661 6.76112 150.177 8.0069 150.177 9.30589L150.173 9.30774Z" fill="black"/>
<path d="M140.426 6.05669C140.579 5.85153 140.825 5.7277 140.963 5.51146C141.174 5.18062 141.071 4.74444 141.174 4.36555C141.3 3.90164 141.714 3.58374 142.098 3.30096C142.653 2.90174 143.253 2.48589 143.928 2.53209C144.39 2.56536 144.81 2.81672 145.268 2.89065C145.983 3.00709 146.7 2.6855 147.425 2.70583C147.787 2.724 148.14 2.82883 148.453 3.0115C148.766 3.19418 149.031 3.44937 149.225 3.75563C149.512 4.21399 149.663 4.81097 150.149 5.0494C150.334 5.14366 150.541 5.17323 150.722 5.26749C150.89 5.36966 151.031 5.51028 151.133 5.67773C151.236 5.84518 151.297 6.03464 151.312 6.23042C151.337 6.62106 151.31 7.01335 151.231 7.39666C151.194 7.58976 151.186 7.78702 151.205 7.98256C151.238 8.22468 151.352 8.45016 151.377 8.69413C151.432 9.2486 151.007 9.73469 150.698 10.2097C150.424 10.6358 150.23 11.1079 150.123 11.6033C150.093 11.8363 150.027 12.0632 149.927 12.276C149.876 12.3816 149.794 12.469 149.691 12.5268C149.589 12.5845 149.472 12.6099 149.355 12.5995C149.319 12.2649 149.403 11.9267 149.38 11.5903C149.349 11.0765 149.077 10.6126 148.813 10.1709C148.634 9.81732 148.382 9.50557 148.074 9.256C147.984 9.20439 147.901 9.14235 147.826 9.07117C147.654 8.88635 147.673 8.59433 147.641 8.33187C147.592 7.99141 147.437 7.67494 147.199 7.42674C146.96 7.17853 146.65 7.01099 146.312 6.94754C146.172 6.91191 146.024 6.93247 145.898 7.00484C145.773 7.09355 145.713 7.25805 145.608 7.3597C145.442 7.50941 145.187 7.49277 144.967 7.44842C144.483 7.35416 143.978 7.17672 143.509 7.33198C142.703 7.59997 142.4 8.71446 141.573 8.92146C141.329 8.95901 141.082 8.97632 140.834 8.97322C140.709 8.97352 140.587 9.00371 140.476 9.06128C140.365 9.11884 140.27 9.20209 140.198 9.30405C139.951 9.0453 140.001 8.6239 140.123 8.28752C140.265 7.89384 140.394 7.61476 140.324 7.20075C140.254 6.78674 140.161 6.4097 140.426 6.05669Z" fill="#794F6A"/>
<path opacity="0.1" d="M122.435 73.2624C122.435 73.2624 120.679 74.1865 121.603 74.3714C122.527 74.5562 122.435 73.2624 122.435 73.2624Z" fill="black"/>
<path opacity="0.1" d="M151.36 75.4804C151.36 75.4804 152.33 74.1866 153.393 74.9721C154.456 75.7576 151.36 75.4804 151.36 75.4804Z" fill="black"/>
<path opacity="0.1" d="M153.615 76.312C153.615 76.312 154.825 75.8962 155.565 76.312H153.615Z" fill="black"/>
<path opacity="0.1" d="M129.689 55.3345C129.689 55.3345 132.277 57.8296 133.109 57.922C133.94 58.0144 129.689 55.3345 129.689 55.3345Z" fill="black"/>
<path opacity="0.1" d="M130.059 22.5282L129.386 23.944L129.046 27.2708L128.8 33.4624C128.8 33.4624 128.338 38.7299 128.8 39.4692C129.262 40.2085 130.063 44.5833 129.909 45.1377C129.756 45.6922 131.942 50.8673 132.343 51.1759C132.744 51.4846 134.16 51.5456 134.96 51.3903L136.424 52.7821L140.568 48.958L138.01 47.0174C138.01 47.0174 138.596 46.0304 136.964 44.9529C136.964 44.9529 136.225 43.7201 136.193 43.0732C136.155 41.7536 135.926 40.4464 135.515 39.1919C134.931 37.4675 134.591 27.8881 134.591 27.8881C134.591 27.8881 133.201 20.8944 130.059 22.5282Z" fill="black"/>
<path d="M129.689 22.5282L129.016 23.944L128.676 27.2708L128.431 33.4624C128.431 33.4624 127.969 38.7299 128.431 39.4692C128.893 40.2085 129.693 44.5833 129.54 45.1377C129.386 45.6922 131.573 50.8673 131.974 51.1759C132.375 51.4846 133.79 51.5456 134.591 51.3903L136.055 52.7821L140.198 48.958L137.64 47.0174C137.64 47.0174 138.226 46.0304 136.594 44.9529C136.594 44.9529 135.855 43.7201 135.824 43.0732C135.785 41.7536 135.557 40.4464 135.145 39.1919C134.561 37.4675 134.221 27.8881 134.221 27.8881C134.221 27.8881 132.831 20.8944 129.689 22.5282Z" fill="#575988"/>
<path opacity="0.1" d="M136.128 45.6922C135.944 45.7846 132.216 49.2353 133.602 49.3277C134.988 49.4201 136.128 45.6922 136.128 45.6922Z" fill="black"/>
<path d="M140.871 49.8508C140.871 49.8508 135.543 50.4053 135.82 52.5622C136.097 54.719 139.886 56.7965 141.087 56.1422C142.289 55.4879 143.305 54.8632 143.305 54.8632L140.871 49.8508Z" fill="#FFAAB0"/>
<path opacity="0.1" d="M157.136 24.0068L157.906 25.4854C157.906 25.4854 158.707 31.799 157.906 34.2331C157.106 36.6672 155.165 42.2729 155.165 42.2729C155.165 42.2729 152.824 46.3705 152.763 46.5553C152.702 46.7401 148.264 53.1461 147.464 53.4862C146.663 53.8263 145.153 53.647 145.061 53.2737C144.969 52.9003 142.936 54.8632 142.936 54.8632C142.936 54.8632 139.017 50.128 139.64 49.6345C140.263 49.141 142.15 49.019 142.15 49.019C142.15 49.019 142.289 49.4811 142.442 48.5255C142.595 47.57 143.305 47.0784 143.828 47.1394C144.351 47.2004 144.137 46.6477 144.229 46.0618C144.322 45.4759 145.769 44.4298 145.769 44.4298C145.769 44.4298 146.479 43.2895 146.479 42.6112C146.479 41.9329 147.957 41.3488 148.079 41.3488C148.201 41.3488 148.172 41.0716 148.172 40.0865C148.172 39.1014 148.911 37.3437 148.911 37.3437L149.367 31.799L150.17 26.1618C150.17 26.1618 152.362 19.2938 157.136 24.0068Z" fill="black"/>
<path opacity="0.1" d="M153.783 42.9809C153.783 42.9809 153.968 43.9734 154.191 45.2985C153.822 45.9621 153.528 46.4907 153.506 46.5535C153.445 46.7383 149.009 53.1462 148.209 53.4844C147.408 53.8226 145.898 53.6452 145.806 53.2737C145.765 53.1074 145.342 53.4012 144.882 53.7801C144.309 54.2533 143.679 54.8614 143.679 54.8614C143.679 54.8614 143.058 54.111 142.35 53.1758C141.278 51.7637 140.008 49.9321 140.381 49.6345C141.004 49.141 142.893 49.0191 142.893 49.0191C142.893 49.0191 143.032 49.4811 143.185 48.5256C143.338 47.57 144.048 47.0784 144.571 47.1394C145.094 47.2004 144.88 46.6459 144.972 46.0619C145.065 45.4778 146.512 44.428 146.512 44.428C146.512 44.428 147.22 43.2895 147.22 42.6112C147.22 41.9329 148.698 41.3489 148.822 41.3489C148.946 41.3489 148.915 41.0716 148.915 40.0847C148.915 39.0977 149.654 37.3437 149.654 37.3437L150.11 31.799L150.911 26.1619C150.911 26.1619 153.099 19.2919 157.873 24.005L158.23 24.6906C158.276 25.173 158.274 25.4835 158.274 25.4835L150.85 30.8139L153.783 42.9809Z" fill="black"/>
<path d="M157.505 24.0068L158.276 25.4854C158.276 25.4854 159.076 31.799 158.276 34.2331C157.476 36.6672 155.535 42.2729 155.535 42.2729C155.535 42.2729 153.193 46.3705 153.132 46.5553C153.071 46.7401 148.634 53.1461 147.833 53.4862C147.033 53.8263 145.523 53.647 145.431 53.2737C145.338 52.9003 143.305 54.8632 143.305 54.8632C143.305 54.8632 139.387 50.128 140.01 49.6345C140.633 49.141 142.52 49.019 142.52 49.019C142.52 49.019 142.658 49.4811 142.812 48.5255C142.965 47.57 143.675 47.0784 144.198 47.1394C144.721 47.2004 144.507 46.6477 144.599 46.0618C144.691 45.4759 146.139 44.4298 146.139 44.4298C146.139 44.4298 146.848 43.2895 146.848 42.6112C146.848 41.9329 148.327 41.3488 148.449 41.3488C148.571 41.3488 148.541 41.0716 148.541 40.0865C148.541 39.1014 149.281 37.3437 149.281 37.3437L149.737 31.799L150.539 26.1618C150.539 26.1618 152.731 19.2938 157.505 24.0068Z" fill="#575988"/>
<path opacity="0.1" d="M143.767 48.7603C143.767 48.7603 143.952 49.1761 144.784 49.3277C145.615 49.4793 143.767 48.7603 143.767 48.7603Z" fill="black"/>
<path opacity="0.1" d="M153.716 24.0364C153.687 24.1288 150.944 27.2283 151.499 28.036C152.053 28.8437 153.716 24.0364 153.716 24.0364Z" fill="black"/>
<path opacity="0.1" d="M150.606 38.2679C150.606 38.2679 152.177 39.8093 151.868 40.5486C151.559 41.2879 150.606 38.2679 150.606 38.2679Z" fill="black"/>
<path opacity="0.1" d="M150.852 35.3421C150.944 35.4955 154.334 35.8965 154.518 37.1903C154.703 38.4841 150.852 35.3421 150.852 35.3421Z" fill="black"/>
<g opacity="0.1">
<path opacity="0.1" d="M151.195 7.63694C151.195 7.56671 151.212 7.49463 151.223 7.42255C151.292 7.07021 151.322 6.71131 151.312 6.35242C151.297 6.58714 151.256 6.82187 151.223 7.0529C151.186 7.24529 151.177 7.44193 151.195 7.63694Z" fill="black"/>
<path opacity="0.1" d="M140.326 7.27467C140.348 7.13817 140.348 6.99902 140.326 6.86252C140.304 6.73129 140.28 6.60007 140.267 6.46884C140.247 6.72481 140.267 6.98229 140.326 7.23216V7.27467Z" fill="black"/>
<path opacity="0.1" d="M151.36 8.64424C151.28 9.08412 150.95 9.4778 150.696 9.86778C150.421 10.2927 150.226 10.7644 150.122 11.2595C150.09 11.4922 150.024 11.7189 149.926 11.9323C149.874 12.0382 149.792 12.1259 149.69 12.1837C149.587 12.2415 149.47 12.2666 149.353 12.2557C149.353 12.2496 149.353 12.2434 149.353 12.2372C149.342 12.3664 149.342 12.4962 149.353 12.6253C149.47 12.6363 149.587 12.6112 149.69 12.5534C149.792 12.4956 149.874 12.4078 149.926 12.3019C150.024 12.0886 150.09 11.8619 150.122 11.6291C150.226 11.134 150.421 10.6623 150.696 10.2374C151.003 9.76243 151.436 9.28373 151.373 8.72002C151.38 8.69414 151.364 8.67012 151.36 8.64424Z" fill="black"/>
<path opacity="0.1" d="M149.379 11.2484C149.347 10.7346 149.075 10.2688 148.811 9.8271C148.632 9.47052 148.38 9.15563 148.072 8.90298C147.982 8.85086 147.898 8.78887 147.822 8.71816C147.652 8.53333 147.671 8.23946 147.637 7.97886C147.588 7.63839 147.433 7.32193 147.195 7.07372C146.957 6.82552 146.647 6.65798 146.309 6.59453C146.168 6.55889 146.02 6.57945 145.895 6.65182C145.769 6.74054 145.71 6.90503 145.604 7.00853C145.511 7.07026 145.405 7.11027 145.294 7.12562C145.183 7.14097 145.07 7.13128 144.963 7.09725C144.479 7.00114 143.974 6.82371 143.505 6.98081C142.699 7.24696 142.396 8.36145 141.568 8.56845C141.323 8.60577 141.076 8.62369 140.829 8.62205C140.704 8.62151 140.581 8.65116 140.471 8.70846C140.361 8.76577 140.266 8.849 140.195 8.95104C140.11 8.86141 140.054 8.74889 140.034 8.62759C140.005 8.74767 140.004 8.87283 140.032 8.99314C140.06 9.11345 140.116 9.22559 140.195 9.32068C140.266 9.21865 140.361 9.13541 140.471 9.07811C140.581 9.02081 140.704 8.99116 140.829 8.9917C141.076 8.99334 141.323 8.97541 141.568 8.9381C142.392 8.73109 142.699 7.61661 143.505 7.35046C143.974 7.19336 144.479 7.37079 144.963 7.4669C145.07 7.50093 145.183 7.51062 145.294 7.49527C145.405 7.47992 145.511 7.43991 145.604 7.37818C145.719 7.27468 145.769 7.11019 145.895 7.02147C146.02 6.9491 146.168 6.92854 146.309 6.96418C146.647 7.02763 146.957 7.19517 147.195 7.44337C147.433 7.69158 147.588 8.00804 147.637 8.34851C147.669 8.60357 147.65 8.89004 147.822 9.0878C147.898 9.15851 147.982 9.22051 148.072 9.27263C148.38 9.52527 148.632 9.84016 148.811 10.1967C149.068 10.6274 149.329 11.0784 149.366 11.5755C149.377 11.4669 149.382 11.3576 149.379 11.2484Z" fill="black"/>
</g>
<path d="M88.6324 27.1377V46.5332C88.6319 46.574 88.6396 46.6145 88.655 46.6523C88.6705 46.6901 88.6934 46.7244 88.7223 46.7532C88.7513 46.782 88.7857 46.8047 88.8236 46.8199C88.8615 46.8351 88.9021 46.8426 88.9429 46.8418C94.2843 46.6755 98.7385 42.26 98.7385 36.8354C98.7385 31.4109 94.288 26.9936 88.9429 26.8291C88.902 26.8281 88.8613 26.8353 88.8233 26.8505C88.7853 26.8656 88.7508 26.8883 88.7217 26.9171C88.6927 26.946 88.6699 26.9804 88.6545 27.0183C88.6391 27.0562 88.6316 27.0968 88.6324 27.1377Z" fill="#61BEEC"/>
<path d="M75.2937 53.6248V37.5729C75.2747 35.0058 76.0972 32.5032 77.6354 30.4479C79.09 28.5368 81.3541 26.8069 84.777 26.8291C84.8231 26.8288 84.8688 26.8377 84.9115 26.8551C84.9542 26.8725 84.9931 26.8982 85.0259 26.9306C85.0587 26.963 85.0847 27.0016 85.1026 27.0441C85.1205 27.0866 85.1298 27.1323 85.13 27.1784V43.7016C85.13 43.7016 85.6845 52.7322 75.4896 53.8004C75.4652 53.8019 75.4407 53.7986 75.4176 53.7905C75.3945 53.7825 75.3732 53.7699 75.3549 53.7536C75.3367 53.7373 75.3219 53.7175 75.3114 53.6954C75.3009 53.6733 75.2949 53.6493 75.2937 53.6248Z" fill="#4064AC"/>
<path opacity="0.1" d="M33.2665 25.0178C36.4819 25.0178 39.0885 22.4112 39.0885 19.1958C39.0885 15.9805 36.4819 13.3739 33.2665 13.3739C30.0511 13.3739 27.4445 15.9805 27.4445 19.1958C27.4445 22.4112 30.0511 25.0178 33.2665 25.0178Z" fill="#00BAFC"/>
<path opacity="0.1" d="M21.0681 8.93809C23.0586 8.93809 24.6722 7.32449 24.6722 5.33402C24.6722 3.34355 23.0586 1.72995 21.0681 1.72995C19.0776 1.72995 17.4641 3.34355 17.4641 5.33402C17.4641 7.32449 19.0776 8.93809 21.0681 8.93809Z" fill="#00BAFC"/>
<path opacity="0.1" d="M2.21789 15.5918C3.4428 15.5918 4.43578 14.5988 4.43578 13.3739C4.43578 12.149 3.4428 11.156 2.21789 11.156C0.992983 11.156 0 12.149 0 13.3739C0 14.5988 0.992983 15.5918 2.21789 15.5918Z" fill="#00BAFC"/>
<path d="M75.7538 124.189C75.5765 124.432 75.4346 124.699 75.3324 124.982C75.3065 125.05 75.2807 125.13 75.2548 125.205C75.2082 125.183 75.1592 125.167 75.1088 125.155C74.8934 125.101 74.6705 125.081 74.449 125.098C74.449 125.013 74.46 124.913 74.4619 124.828C74.4896 123.854 74.375 122.496 73.4454 123.071C72.5545 123.625 73.1903 124.549 73.7651 125.143L73.913 125.287C73.3881 125.656 73.2883 126.531 73.2014 127.438C73.1145 128.346 72.3438 129.34 71.8319 129.904C71.7801 129.961 71.7339 130.013 71.6877 130.061C71.481 129.895 71.2415 129.775 70.985 129.709C70.7284 129.643 70.4608 129.633 70.1999 129.678C70.1795 129.599 70.1573 129.515 70.1315 129.427C69.7193 127.924 68.8599 125.337 67.762 124.782L67.9062 124.597C68.3719 123.987 68.8968 123.082 68.1224 122.851C67.348 122.62 67.2778 123.636 67.3203 124.398C67.3203 124.492 67.3351 124.583 67.3425 124.668C67.1877 124.675 67.036 124.714 66.8968 124.782C66.7576 124.85 66.6337 124.945 66.5329 125.063L66.4128 124.923C65.7844 124.183 64.633 123.006 64.2836 123.895C63.9602 124.723 64.973 125.797 65.6865 126.42L65.7308 126.459C65.2521 128.403 67.3425 129.987 68.4681 130.68L68.6141 130.769C67.0615 132.598 66.1023 136.027 66.1023 136.027L70.4512 136.803C70.4512 136.803 73.3326 134.315 72.963 131.981H72.9925C75.8739 131.404 76.5282 128.333 76.0809 126.508C76.0976 126.508 76.1142 126.495 76.1308 126.486C76.6554 126.272 77.1152 125.925 77.4653 125.479C78.2711 124.353 76.5818 123.089 75.7538 124.189Z" fill="#00BAFC"/>
<path opacity="0.1" d="M75.7538 124.189C75.5765 124.432 75.4346 124.699 75.3324 124.982C75.3065 125.05 75.2807 125.13 75.2548 125.205C75.2082 125.183 75.1592 125.167 75.1088 125.155C74.8934 125.101 74.6705 125.081 74.449 125.098C74.449 125.013 74.46 124.913 74.4619 124.828C74.4896 123.854 74.375 122.496 73.4454 123.071C72.5545 123.625 73.1903 124.549 73.7651 125.143L73.913 125.287C73.3881 125.656 73.2883 126.531 73.2014 127.438C73.1145 128.346 72.3438 129.34 71.8319 129.904C71.7801 129.961 71.7339 130.013 71.6877 130.061C71.481 129.895 71.2415 129.775 70.985 129.709C70.7284 129.643 70.4608 129.633 70.1999 129.678C70.1795 129.599 70.1573 129.515 70.1315 129.427C69.7193 127.924 68.8599 125.337 67.762 124.782L67.9062 124.597C68.3719 123.987 68.8968 123.082 68.1224 122.851C67.348 122.62 67.2778 123.636 67.3203 124.398C67.3203 124.492 67.3351 124.583 67.3425 124.668C67.1877 124.675 67.036 124.714 66.8968 124.782C66.7576 124.85 66.6337 124.945 66.5329 125.063L66.4128 124.923C65.7844 124.183 64.633 123.006 64.2836 123.895C63.9602 124.723 64.973 125.797 65.6865 126.42L65.7308 126.459C65.2521 128.403 67.3425 129.987 68.4681 130.68L68.6141 130.769C67.0615 132.598 66.1023 136.027 66.1023 136.027L70.4512 136.803C70.4512 136.803 73.3326 134.315 72.963 131.981H72.9925C75.8739 131.404 76.5282 128.333 76.0809 126.508C76.0976 126.508 76.1142 126.495 76.1308 126.486C76.6554 126.272 77.1152 125.925 77.4653 125.479C78.2711 124.353 76.5818 123.089 75.7538 124.189Z" fill="black"/>
<path d="M67.1004 125.442L66.5922 126.921C66.5922 126.921 66.3094 126.721 65.9527 126.407C65.2392 125.784 64.2264 124.71 64.5498 123.882C64.8992 122.993 66.0506 124.167 66.679 124.91C66.9322 125.213 67.1004 125.442 67.1004 125.442Z" fill="#00BAFC"/>
<path d="M68.1724 124.597C68.0177 124.8 67.8524 124.994 67.6771 125.18C67.6337 124.921 67.6035 124.66 67.5865 124.398C67.544 123.636 67.6253 122.625 68.3886 122.851C69.152 123.076 68.6381 123.984 68.1724 124.597Z" fill="#00BAFC"/>
<path d="M74.7281 124.828C74.7133 125.318 74.6652 125.708 74.6652 125.708C74.4417 125.537 74.2299 125.351 74.0313 125.152C73.4565 124.555 72.8207 123.634 73.7116 123.08C74.6412 122.496 74.7558 123.858 74.7281 124.828Z" fill="#00BAFC"/>
<path d="M77.7315 125.47C77.3815 125.915 76.9217 126.262 76.3971 126.477C76.2518 126.541 76.1024 126.595 75.9498 126.64L75.351 125.799C75.4144 125.521 75.4972 125.248 75.5987 124.982C75.7009 124.699 75.8428 124.432 76.0201 124.189C76.8481 123.089 78.5374 124.353 77.7315 125.47Z" fill="#00BAFC"/>
<path opacity="0.1" d="M66.679 124.919C66.9322 125.213 67.1004 125.442 67.1004 125.442L66.5921 126.921C66.5921 126.921 66.3093 126.721 65.9526 126.407C66.0323 125.93 66.2292 125.481 66.5256 125.1C66.5755 125.041 66.6291 124.976 66.679 124.919Z" fill="black"/>
<path opacity="0.1" d="M68.1724 124.597C68.0178 124.8 67.8524 124.994 67.6771 125.18C67.6338 124.921 67.6036 124.66 67.5865 124.398C67.7979 124.401 68.0029 124.471 68.1724 124.597Z" fill="black"/>
<path d="M70.673 130.499L69.407 131.053C69.407 131.053 69.1316 130.92 68.7342 130.674C67.4053 129.856 64.7346 127.798 66.5256 125.374C68.3165 122.949 69.8099 127.298 70.3976 129.425C70.5769 130.063 70.673 130.499 70.673 130.499Z" fill="#00BAFC"/>
<path opacity="0.1" d="M74.0312 125.152C74.2148 124.962 74.4641 124.849 74.728 124.838C74.7132 125.327 74.6652 125.717 74.6652 125.717C74.4413 125.543 74.2295 125.354 74.0312 125.152Z" fill="black"/>
<path opacity="0.1" d="M76.3971 126.477C76.2518 126.541 76.1024 126.595 75.9498 126.64L75.351 125.799C75.4144 125.521 75.4972 125.248 75.5987 124.982C75.985 125.209 76.2696 125.769 76.3971 126.477Z" fill="black"/>
<path d="M73.2587 131.972L73.0462 132.009C68.8082 132.654 71.6489 130.366 71.6489 130.366C71.6489 130.366 71.8337 130.181 72.098 129.904C72.61 129.34 73.3788 128.351 73.4676 127.438C73.6006 126.065 73.754 124.777 75.3749 125.155C76.9663 125.521 77.2657 131.168 73.2587 131.972Z" fill="#00BAFC"/>
<path d="M73.1811 142.523H65.084V144.653H73.1811V142.523Z" fill="#D4DFEC"/>
<path d="M74.377 135.604H63.7976V143.034H74.377V135.604Z" fill="#D4DFEC"/>
<path opacity="0.1" d="M73.1811 142.523H65.084V144.653H73.1811V142.523Z" fill="black"/>
<path opacity="0.1" d="M74.377 135.604H63.7976V143.034H74.377V135.604Z" fill="black"/>
<path d="M73.7133 142.523H65.6162V144.653H73.7133V142.523Z" fill="#D4DFEC"/>
<path opacity="0.1" d="M70.3976 129.427C70.5824 130.063 70.673 130.499 70.673 130.499L69.407 131.053C69.407 131.053 69.1316 130.92 68.7342 130.674C69.2295 130.048 69.7877 129.573 70.3976 129.427Z" fill="black"/>
<path opacity="0.1" d="M73.2587 131.972L73.0462 132.009C68.8081 132.654 71.6489 130.366 71.6489 130.366C71.6489 130.366 71.8337 130.181 72.098 129.904C72.8891 130.538 73.2162 131.251 73.2587 131.972Z" fill="black"/>
<path d="M66.361 136.023C66.361 136.023 68.7342 127.521 72.0628 130.146C75.3915 132.77 70.7099 136.799 70.7099 136.799L66.361 136.023Z" fill="#00BAFC"/>
<path opacity="0.1" d="M67.568 126.974C67.715 126.974 67.8341 126.855 67.8341 126.708C67.8341 126.561 67.715 126.442 67.568 126.442C67.421 126.442 67.3018 126.561 67.3018 126.708C67.3018 126.855 67.421 126.974 67.568 126.974Z" fill="black"/>
<path opacity="0.1" d="M67.5458 128.216C67.6928 128.216 67.8119 128.097 67.8119 127.95C67.8119 127.803 67.6928 127.684 67.5458 127.684C67.3988 127.684 67.2796 127.803 67.2796 127.95C67.2796 128.097 67.3988 128.216 67.5458 128.216Z" fill="black"/>
<path opacity="0.1" d="M75.264 127.218C75.411 127.218 75.5302 127.099 75.5302 126.952C75.5302 126.805 75.411 126.686 75.264 126.686C75.1171 126.686 74.9979 126.805 74.9979 126.952C74.9979 127.099 75.1171 127.218 75.264 127.218Z" fill="black"/>
<path opacity="0.1" d="M69.054 133.585C69.201 133.585 69.3202 133.466 69.3202 133.319C69.3202 133.172 69.201 133.053 69.054 133.053C68.9071 133.053 68.7879 133.172 68.7879 133.319C68.7879 133.466 68.9071 133.585 69.054 133.585Z" fill="black"/>
<path opacity="0.1" d="M74.7096 129.281C74.8566 129.281 74.9757 129.162 74.9757 129.015C74.9757 128.868 74.8566 128.748 74.7096 128.748C74.5626 128.748 74.4434 128.868 74.4434 129.015C74.4434 129.162 74.5626 129.281 74.7096 129.281Z" fill="black"/>
<path opacity="0.1" d="M71.9594 132.033C72.1064 132.033 72.2255 131.914 72.2255 131.767C72.2255 131.62 72.1064 131.5 71.9594 131.5C71.8124 131.5 71.6932 131.62 71.6932 131.767C71.6932 131.914 71.8124 132.033 71.9594 132.033Z" fill="black"/>
<path opacity="0.1" d="M68.4773 127.506C68.6243 127.506 68.7434 127.387 68.7434 127.24C68.7434 127.093 68.6243 126.974 68.4773 126.974C68.3303 126.974 68.2111 127.093 68.2111 127.24C68.2111 127.387 68.3303 127.506 68.4773 127.506Z" fill="black"/>
<path opacity="0.1" d="M74.5321 128.017C74.6791 128.017 74.7983 127.897 74.7983 127.75C74.7983 127.603 74.6791 127.484 74.5321 127.484C74.3851 127.484 74.266 127.603 74.266 127.75C74.266 127.897 74.3851 128.017 74.5321 128.017Z" fill="black"/>
<path opacity="0.1" d="M73.6228 130.079C73.7698 130.079 73.889 129.96 73.889 129.813C73.889 129.666 73.7698 129.547 73.6228 129.547C73.4758 129.547 73.3567 129.666 73.3567 129.813C73.3567 129.96 73.4758 130.079 73.6228 130.079Z" fill="black"/>
<path opacity="0.1" d="M70.8283 133.386C70.9753 133.386 71.0944 133.267 71.0944 133.12C71.0944 132.973 70.9753 132.853 70.8283 132.853C70.6813 132.853 70.5621 132.973 70.5621 133.12C70.5621 133.267 70.6813 133.386 70.8283 133.386Z" fill="black"/>
<path opacity="0.1" d="M70.2516 132.077C70.3986 132.077 70.5178 131.958 70.5178 131.811C70.5178 131.664 70.3986 131.545 70.2516 131.545C70.1046 131.545 69.9855 131.664 69.9855 131.811C69.9855 131.958 70.1046 132.077 70.2516 132.077Z" fill="black"/>
<path opacity="0.1" d="M68.8766 129.126C69.0235 129.126 69.1427 129.006 69.1427 128.859C69.1427 128.712 69.0235 128.593 68.8766 128.593C68.7296 128.593 68.6104 128.712 68.6104 128.859C68.6104 129.006 68.7296 129.126 68.8766 129.126Z" fill="black"/>
<path opacity="0.1" d="M73.7133 142.523H65.6162V143.302H73.7133V142.523Z" fill="black"/>
<path d="M74.9092 135.604H64.3298V143.034H74.9092V135.604Z" fill="#D4DFEC"/>
<path opacity="0.1" d="M71.1832 134.583C71.3302 134.583 71.4493 134.464 71.4493 134.317C71.4493 134.17 71.3302 134.051 71.1832 134.051C71.0362 134.051 70.9171 134.17 70.9171 134.317C70.9171 134.464 71.0362 134.583 71.1832 134.583Z" fill="black"/>
<path opacity="0.1" d="M69.5862 134.916C69.7332 134.916 69.8524 134.797 69.8524 134.65C69.8524 134.503 69.7332 134.384 69.5862 134.384C69.4392 134.384 69.3201 134.503 69.3201 134.65C69.3201 134.797 69.4392 134.916 69.5862 134.916Z" fill="black"/>
</g>
<defs>
<linearGradient id="paint0_linear_703_358" x1="43.369" y1="143.011" x2="43.369" y2="44.452" gradientUnits="userSpaceOnUse">
<stop stop-color="#808080" stop-opacity="0.25"/>
<stop offset="0.54" stop-color="#808080" stop-opacity="0.12"/>
<stop offset="1" stop-color="#808080" stop-opacity="0.1"/>
</linearGradient>
<linearGradient id="paint1_linear_703_358" x1="43847.7" y1="61417.3" x2="43847.7" y2="6850.11" gradientUnits="userSpaceOnUse">
<stop stop-color="#808080" stop-opacity="0.25"/>
<stop offset="0.54" stop-color="#808080" stop-opacity="0.12"/>
<stop offset="1" stop-color="#808080" stop-opacity="0.1"/>
</linearGradient>
<clipPath id="clip0_703_358">
<rect width="200" height="145.325" fill="white"/>
</clipPath>
</defs>
</svg>
