<svg width="200" height="129" viewBox="0 0 200 129" fill="none" xmlns="http://www.w3.org/2000/svg">
<g clip-path="url(#clip0_703_15)">
<path opacity="0.5" d="M187.91 109.735C187.548 108.243 186.361 107.119 185.487 105.856C184.437 104.299 183.823 102.489 183.709 100.614C183.596 98.7397 183.987 96.8689 184.842 95.1967C185.682 93.5977 187 91.944 186.523 90.1979C186.204 89.0234 185.142 88.2186 184.1 87.5883C180.141 85.2039 175.571 84.0288 170.953 84.2074C165.292 84.4386 159.651 86.6995 154.099 85.5795C148.693 84.4848 144.112 81.7742 138.456 81.4528C134.231 81.2132 130.051 81.4822 125.817 81.0199C115.356 79.8851 104.818 79.6334 94.3141 80.2677C83.8113 79.6336 73.2737 79.8852 62.8131 81.0199C58.5897 81.4822 54.4083 81.2132 50.1744 81.4528C44.5012 81.7721 39.9311 84.4869 34.5226 85.5795C28.9691 86.7016 23.3295 84.4386 17.6689 84.2074C13.0507 84.0288 8.48092 85.2039 4.52175 87.5883C3.47116 88.2186 2.42056 89.0234 2.09908 90.1979C1.62421 91.9419 2.93956 93.5956 3.78003 95.1967C4.63572 96.8685 5.0276 98.7392 4.91489 100.614C4.80218 102.489 4.18899 104.299 3.13917 105.856C2.26507 107.117 1.0779 108.243 0.716493 109.735C-0.0105203 112.735 2.90594 115.379 5.75936 116.57C13.5443 119.825 23.0123 118.251 30.1332 122.783C33.3249 124.817 36.1174 128.082 39.8995 128.204C42.4567 128.286 44.7827 126.866 47.0163 125.616C50.3587 123.744 53.8527 122.158 57.4613 120.873C60.6131 119.751 63.9519 118.852 67.2781 119.224C72.3567 119.785 94.3099 130.392 104.207 124.124C110.985 119.827 116.272 119.791 121.363 119.222C124.689 118.85 128.026 119.749 131.18 120.871C134.788 122.156 138.282 123.742 141.625 125.614C143.856 126.864 146.184 128.284 148.741 128.202C152.524 128.08 155.316 124.815 158.508 122.781C165.624 118.247 175.09 119.823 182.882 116.568C185.72 115.372 188.639 112.737 187.91 109.735Z" fill="url(#paint0_linear_703_15)"/>
<path d="M186.88 109.674C186.523 108.203 185.348 107.085 184.485 105.837C183.448 104.296 182.843 102.506 182.732 100.652C182.621 98.7985 183.009 96.9488 183.854 95.2955C184.695 93.7133 185.989 92.0785 185.519 90.3534C185.201 89.1915 184.153 88.3951 183.123 87.7732C179.208 85.4147 174.688 84.2519 170.121 84.4281C164.523 84.655 158.945 86.8928 153.452 85.7834C148.103 84.7033 143.577 82.018 137.973 81.7007C133.793 81.4654 129.652 81.7302 125.475 81.2805C115.129 80.1582 104.706 79.9094 94.3184 80.5367C83.9304 79.9094 73.5081 80.1582 63.1619 81.2805C58.9847 81.7386 54.8432 81.4717 50.664 81.7007C45.0622 82.0159 40.5341 84.7012 35.1845 85.7834C29.6941 86.8928 24.1133 84.655 18.5157 84.4281C13.9482 84.2519 9.42889 85.4147 5.51352 87.7732C4.48394 88.4035 3.43544 89.1915 3.11816 90.3534C2.64749 92.0785 3.95864 93.7154 4.78231 95.2955C5.62813 96.9488 6.01575 98.7985 5.9049 100.652C5.79405 102.506 5.18877 104.296 4.15195 105.837C3.28626 107.085 2.11379 108.197 1.75659 109.674C1.01907 112.641 3.90401 115.255 6.72171 116.423C14.4226 119.64 23.7855 118.083 30.8224 122.567C33.9742 124.578 36.7415 127.809 40.4879 127.929C43.0093 128.011 45.3206 126.605 47.5269 125.368C50.8329 123.516 54.289 121.947 57.8585 120.676C60.9787 119.564 64.2776 118.675 67.5681 119.043C72.6109 119.606 94.3163 130.089 104.095 123.891C110.8 119.642 116.028 119.606 121.062 119.043C124.353 118.675 127.654 119.564 130.772 120.676C134.341 121.947 137.798 123.516 141.104 125.368C143.312 126.603 145.613 128.009 148.143 127.929C151.883 127.809 154.646 124.58 157.808 122.567C164.847 118.083 174.21 119.64 181.909 116.423C184.716 115.255 187.601 112.641 186.88 109.674Z" fill="#00BAFC"/>
<path opacity="0.6" d="M7.34158 46.0623C7.94252 45.8522 8.58128 45.6526 9.20954 45.7619C10.2601 45.9447 10.9977 46.9406 11.3107 47.9639C11.6238 48.9872 11.6133 50.0651 11.8129 51.1157C12.0125 52.1663 12.4895 53.2526 13.4308 53.7548C14.3722 54.257 15.4837 54.0595 16.528 53.9376C17.8977 53.7796 19.2803 53.767 20.6526 53.8998C21.8041 54.0111 23.1573 54.3999 23.4956 55.5072C23.7729 56.4107 23.2224 57.3331 22.8652 58.2051C22.1802 59.8356 22.1256 61.7624 22.9093 63.3467C23.6931 64.931 25.2816 66.1119 25.9455 67.7845C26.1379 68.2028 26.1938 68.6711 26.1052 69.1229C26.007 69.4393 25.8455 69.7324 25.6304 69.9844C25.1093 70.6547 24.4873 71.2451 24.0124 71.9511C23.0228 73.422 22.7517 75.25 22.6383 77.0171C22.5251 78.7547 22.5349 80.4981 22.6677 82.2344C21.3776 81.8141 19.9529 82.1881 18.6229 81.9129C15.7926 81.3287 14.0255 77.9794 11.1426 77.7756C9.77896 77.679 8.31233 78.3219 7.09574 77.6979C6.51453 77.363 6.05968 76.8461 5.80141 76.2271C5.2872 75.1313 5.16984 73.8908 5.46942 72.7181C5.67954 71.907 6.09977 71.1127 6.01783 70.2786C5.94849 69.5642 5.51985 68.9338 5.02817 68.4106C3.62667 66.923 1.59272 66.0131 0.586244 64.2334C0.128485 63.3881 -0.0625222 62.4239 0.038371 61.4678C0.139264 60.5118 0.527326 59.6087 1.15146 58.8775C1.51068 58.5269 1.85087 58.1572 2.17054 57.7702C2.65382 57.0894 2.8009 56.23 2.86604 55.3958C3.00472 53.3976 2.65592 51.2817 3.30939 49.3402C3.89562 47.5836 5.68584 46.6507 7.34158 46.0623Z" fill="#00BAFC"/>
<path opacity="0.6" d="M7.371 46.1212C7.371 46.1212 13.1094 77.99 20.5602 81.7911" stroke="#535461" stroke-miterlimit="10"/>
<path opacity="0.6" d="M23.3358 54.942C23.3358 54.942 17.1899 55.7825 11.0502 62.0966" stroke="#535461" stroke-miterlimit="10"/>
<path opacity="0.6" d="M12.1302 65.7989C12.1302 65.7989 7.40042 61.1762 0.0105286 61.96" stroke="#535461" stroke-miterlimit="10"/>
<path opacity="0.6" d="M26.0422 67.8097C26.0422 67.8097 17.4105 68.543 14.2146 71.8566" stroke="#535461" stroke-miterlimit="10"/>
<path opacity="0.6" d="M15.5068 74.9432C15.5068 74.9432 10.6741 74.1027 6.21323 76.9499" stroke="#535461" stroke-miterlimit="10"/>
<path opacity="0.6" d="M184.995 21.0288C184.031 20.6863 183.008 20.3732 182.001 20.5476C180.32 20.8418 179.135 22.4387 178.639 24.0755C178.143 25.7124 178.154 27.4584 177.835 29.1394C177.515 30.8204 176.75 32.5622 175.242 33.3691C173.733 34.176 171.951 33.8566 170.277 33.6633C168.083 33.4076 165.869 33.3843 163.67 33.5939C161.823 33.7725 159.657 34.3966 159.115 36.17C158.672 37.6198 159.552 39.0948 160.14 40.4921C161.239 43.1039 161.328 46.1948 160.069 48.7351C158.789 51.3196 156.266 53.1686 155.203 55.8477C154.934 56.5284 154.763 57.2828 154.946 57.9909C155.104 58.4988 155.363 58.9692 155.709 59.3735C156.549 60.4493 157.541 61.3969 158.302 62.5253C159.888 64.8786 160.319 67.8119 160.504 70.6443C160.686 73.4288 160.67 76.2226 160.458 79.0049C162.525 78.3241 164.811 78.9314 166.942 78.4922C171.478 77.5572 174.311 72.1886 178.931 71.8609C181.117 71.7075 183.468 72.735 185.418 71.7348C186.368 71.2473 187.042 70.3375 187.494 69.3688C188.305 67.613 188.482 65.6306 187.996 63.7587C187.653 62.458 186.987 61.1868 187.118 59.8483C187.229 58.7032 187.914 57.6925 188.704 56.8562C190.95 54.4714 194.211 53.0132 195.825 50.1618C197.338 47.4891 196.955 43.873 194.919 41.5764C194.386 40.9733 193.751 40.4564 193.285 39.8008C192.509 38.7103 192.261 37.3319 192.169 35.9956C191.948 32.7913 192.492 29.402 191.457 26.2902C190.511 23.4578 187.643 21.9596 184.995 21.0288Z" fill="#00BAFC"/>
<path opacity="0.6" d="M184.941 21.1128C184.941 21.1128 175.744 72.1949 163.799 78.2862" stroke="#535461" stroke-miterlimit="10"/>
<path opacity="0.6" d="M159.35 35.2517C159.35 35.2517 169.201 36.6049 179.043 46.7221" stroke="#535461" stroke-miterlimit="10"/>
<path opacity="0.6" d="M177.311 52.6538C177.311 52.6538 184.895 45.2387 196.737 46.4994" stroke="#535461" stroke-miterlimit="10"/>
<path opacity="0.6" d="M155.024 55.8771C155.024 55.8771 168.858 57.0516 173.981 62.3656" stroke="#535461" stroke-miterlimit="10"/>
<path opacity="0.6" d="M171.901 67.3118C171.901 67.3118 179.652 65.9545 186.798 70.5266" stroke="#535461" stroke-miterlimit="10"/>
<path d="M15.7401 0V5.25088V104.051H168.482V5.25088V0H15.7401Z" fill="url(#paint1_linear_703_15)"/>
<path d="M166.864 4.72144H18.0051V102.169H166.864V4.72144Z" fill="white"/>
<path d="M166.864 0.0861816H18.0051V7.25545H166.864V0.0861816Z" fill="#EEEEEE"/>
<path d="M23.6699 5.29923C24.6296 5.29923 25.4076 4.52124 25.4076 3.56154C25.4076 2.60184 24.6296 1.82385 23.6699 1.82385C22.7102 1.82385 21.9323 2.60184 21.9323 3.56154C21.9323 4.52124 22.7102 5.29923 23.6699 5.29923Z" fill="#FF5252"/>
<path d="M28.4501 5.29923C29.4098 5.29923 30.1878 4.52124 30.1878 3.56154C30.1878 2.60184 29.4098 1.82385 28.4501 1.82385C27.4905 1.82385 26.7125 2.60184 26.7125 3.56154C26.7125 4.52124 27.4905 5.29923 28.4501 5.29923Z" fill="#FFFF00"/>
<path d="M33.2304 5.29923C34.1901 5.29923 34.968 4.52124 34.968 3.56154C34.968 2.60184 34.1901 1.82385 33.2304 1.82385C32.2707 1.82385 31.4927 2.60184 31.4927 3.56154C31.4927 4.52124 32.2707 5.29923 33.2304 5.29923Z" fill="#69F0AE"/>
<path opacity="0.5" d="M79.1814 18.7384H23.7099V21.0497H79.1814V18.7384Z" fill="#00BAFC"/>
<path opacity="0.5" d="M79.1814 23.3611H23.7099V25.6724H79.1814V23.3611Z" fill="#00BAFC"/>
<path opacity="0.5" d="M79.1814 27.9836H23.7099V30.295H79.1814V27.9836Z" fill="#00BAFC"/>
<path opacity="0.5" d="M79.1814 32.6063H42.8307V34.9177H79.1814V32.6063Z" fill="#00BAFC"/>
<path opacity="0.5" d="M52.9165 37.229H23.7099V39.5403H52.9165V37.229Z" fill="#00BAFC"/>
<path opacity="0.5" d="M61.9516 41.8516H39.4688V44.1629H61.9516V41.8516Z" fill="#00BAFC"/>
<path opacity="0.5" d="M151.883 34.9176H86.5356V72.5289H151.883V34.9176Z" fill="#00BAFC"/>
<path d="M159.657 38.4896H94.31V76.101H159.657V38.4896Z" fill="#EEEEEE"/>
<path opacity="0.5" d="M198.945 73.1887C199.081 73.0153 199.155 72.8017 199.155 72.5815C199.155 72.5815 199.155 72.5689 199.155 72.5647C199.155 72.5605 199.168 72.5206 199.174 72.4995V72.4722C199.175 72.4519 199.175 72.4316 199.174 72.4113C199.174 72.4113 199.174 72.3945 199.174 72.3861C199.177 72.3609 199.177 72.3356 199.174 72.3104C199.05 71.47 194.056 65.9943 192.808 59.3146C192.67 58.5873 192.463 57.8747 192.192 57.1861C192.23 56.8416 192.208 56.493 192.125 56.1565C191.915 55.3013 191.494 54.4335 191.705 53.5804C191.734 53.4688 191.773 53.3599 191.82 53.2547C192.082 52.8697 192.323 52.4706 192.541 52.0591C192.622 51.925 192.692 51.7845 192.751 51.6389C193.518 49.6176 191.143 47.5311 191.581 45.4215C191.77 44.5075 192.478 43.709 192.459 42.7782C192.436 41.7129 191.457 40.8871 190.44 40.4921C189.423 40.0971 188.303 39.9836 187.305 39.5423C185.117 38.5737 183.92 36.2351 181.923 34.9344C179.387 33.285 176.078 33.5792 173.038 34.0057C172.937 34.0204 172.843 34.0595 172.761 34.1196C172.68 34.1797 172.614 34.259 172.571 34.3503H172.542C172.518 34.4175 172.491 34.4827 172.462 34.5478C172.042 35.2643 171.333 35.8085 170.634 36.3107C169.781 36.9117 168.867 37.5042 168.346 38.3951C168.268 38.5275 168.203 38.6535 168.146 38.7754C167.011 40.7989 168.375 41.673 170.037 42.1583C169.987 42.4478 169.962 42.7409 169.961 43.0345C169.961 45.9762 172.422 48.3779 175.454 48.3779C175.693 48.3776 175.933 48.3621 176.17 48.3316L176.347 48.4472H176.387C176.95 48.8527 177.437 49.3612 177.648 49.9664L175.887 51.3111C175.887 51.3111 175.958 51.496 176.063 51.7902L169.142 54.9798C166.52 55.1017 162.275 46.8419 162.275 46.8419C162.275 46.8419 161.645 42.1058 159.403 41.2548C158.726 40.9985 158.457 41.5343 158.411 42.4084C157.409 43.459 159.092 49.3591 159.092 49.3591L164.46 58.8334C164.961 59.8041 165.091 60.4114 167.457 60.777C169.405 61.0754 175.473 58.9195 177.584 58.1379L177.683 58.9784C177.438 59.6191 177.329 60.304 177.364 60.9892C177.364 62.5378 178.055 64.7903 181.43 66.5847C181.43 66.5847 184.913 71.0876 184.527 75.3383C184.527 75.3383 184.695 75.5148 184.964 75.7459C184.926 76.9436 184.754 78.4207 184.151 78.9964C184.111 79.034 184.081 79.0811 184.065 79.1333C184.048 79.1856 184.045 79.2411 184.056 79.2948C184.043 79.3577 184.051 79.423 184.077 79.4815C184.103 79.54 184.148 79.5886 184.203 79.6205L179.805 87.3214C179.642 87.5315 179.476 87.7416 179.305 87.9517C178.489 88.9924 177.583 89.9591 176.597 90.8409C175.864 91.4943 175.101 92.2087 174.95 92.4756C174.716 92.8958 174.13 94.2511 174.378 95.371C174.699 96.729 174.831 98.1248 174.769 99.5188L174.199 109.481C174.008 110.593 173.745 111.691 173.412 112.769H173.325C173.325 112.769 171.203 115.32 167.833 115.921C164.463 116.522 164.586 118.232 165.585 118.472C166.583 118.711 178.694 118.228 178.694 118.228C178.694 118.228 179.152 117.335 179.026 116.52C182.892 116.148 188.248 115.517 188.248 115.517C188.248 115.517 188.981 113.754 187.916 112.985C187.515 112.677 187.218 112.254 187.063 111.773C187 111.504 186.931 111.197 186.863 110.876C186.847 110.718 186.847 110.621 186.847 110.621H186.811C186.624 109.682 186.475 108.676 186.561 108.148C186.874 106.751 187.685 98.6741 185.687 96.367C184.779 95.3164 184.903 94.1229 185.306 93.127C187.704 91.5574 191.057 88.1808 192.997 86.1384C193.106 86.2287 193.207 86.3191 193.301 86.4094L193.364 86.4704C193.364 86.4704 199.964 83.203 199.992 77.4353C200.002 75.9547 199.642 74.495 198.945 73.1887ZM177.805 113.876C177.793 113.666 177.801 113.455 177.828 113.246L177.618 113.223C177.74 112.307 178.038 111.281 178.707 110.573C179.854 108.495 180.665 106.248 181.11 103.917L182.323 108.503C182.323 108.503 182.445 109.453 182.478 110.458H182.457C182.457 110.458 180.766 112.872 177.805 113.876Z" fill="url(#paint2_linear_703_15)"/>
<path d="M183.285 54.4672C183.285 54.4672 180.32 55.5346 178.662 57.3143C178.662 57.3143 170.596 60.5165 168.341 60.1614C166.087 59.8063 165.969 59.2117 165.494 58.2703L160.393 49.0251C160.393 49.0251 158.258 41.3137 160.393 42.1437C162.527 42.9736 163.124 47.6068 163.124 47.6068C163.124 47.6068 167.158 55.6733 169.648 55.5556L176.404 52.3366C176.404 52.3366 177.946 50.082 178.658 50.2017C179.37 50.3215 183.285 54.4672 183.285 54.4672Z" fill="#FDB797"/>
<g opacity="0.05">
<path opacity="0.05" d="M183.285 54.4672C183.285 54.4672 180.32 55.5346 178.662 57.3143C178.662 57.3143 170.596 60.5165 168.341 60.1614C166.087 59.8063 165.969 59.2117 165.494 58.2703L160.393 49.0251C160.393 49.0251 158.258 41.3137 160.393 42.1437C162.527 42.9736 163.124 47.6068 163.124 47.6068C163.124 47.6068 167.158 55.6733 169.648 55.5556L176.404 52.3366C176.404 52.3366 177.946 50.082 178.658 50.2017C179.37 50.3215 183.285 54.4672 183.285 54.4672Z" fill="black"/>
</g>
<path d="M178.414 50.0945L176.048 51.952C176.048 51.952 177.231 55.047 176.935 56.1312C176.639 57.2155 181.667 54.4293 181.667 54.4293L179.597 49.7856L178.414 50.0945Z" fill="#F9CE43"/>
<g opacity="0.05">
<path opacity="0.05" d="M178.414 50.0945L176.048 51.952C176.048 51.952 177.231 55.047 176.935 56.1312C176.639 57.2155 181.667 54.4293 181.667 54.4293L179.597 49.7856L178.414 50.0945Z" fill="black"/>
</g>
<path d="M174.33 48.027C174.33 48.027 179.608 49.7479 177.177 52.7715L184.769 49.0944C184.769 49.0944 181.566 49.3319 179.549 44.4718L174.33 48.027Z" fill="#FDB797"/>
<path d="M184.294 78.9901L177.769 90.7337L182.161 107.808C182.161 107.808 182.636 111.605 181.923 111.96H186.905C186.905 111.96 185.945 108.598 186.193 107.453C186.489 106.089 187.26 98.2076 185.353 95.9467C183.445 93.6858 186.302 90.7274 186.302 90.7274L191.997 81.7112L184.294 78.9901Z" fill="#FDB797"/>
<g opacity="0.05">
<path opacity="0.05" d="M184.294 78.9901L177.769 90.7337L182.161 107.808C182.161 107.808 182.636 111.605 181.923 111.96H186.905C186.905 111.96 186.017 108.579 186.193 107.453C186.37 106.327 187.26 98.2076 185.353 95.9467C183.445 93.6858 186.302 90.7274 186.302 90.7274L191.997 81.7112L184.294 78.9901Z" fill="black"/>
</g>
<path d="M182.287 109.724C182.287 109.724 180.48 112.387 177.328 113.231C174.176 114.076 174.433 115.723 175.397 115.883C176.362 116.043 187.794 114.658 187.794 114.658C187.794 114.658 188.49 112.937 187.479 112.185C186.468 111.433 186.462 109.874 186.462 109.874L182.287 109.724Z" fill="#0D134D"/>
<g opacity="0.1">
<path opacity="0.1" d="M184.651 74.2435C184.651 74.2435 184.932 78.1013 183.905 79.1141C183.869 79.1477 183.841 79.1893 183.825 79.2356C183.808 79.2819 183.802 79.3314 183.809 79.3802C183.815 79.4291 183.832 79.4757 183.86 79.5164C183.888 79.557 183.925 79.5906 183.968 79.6142L187.023 81.2426L189.755 76.0232L184.651 74.2435Z" fill="black"/>
</g>
<path d="M184.651 74.1259C184.651 74.1259 184.932 77.9837 183.905 78.9964C183.869 79.03 183.841 79.0717 183.825 79.1179C183.808 79.1642 183.802 79.2138 183.809 79.2626C183.815 79.3114 183.832 79.3581 183.86 79.3987C183.888 79.4394 183.925 79.4729 183.968 79.4965L187.023 81.125L189.755 75.9056L184.651 74.1259Z" fill="#E23553"/>
<g opacity="0.1">
<path opacity="0.1" d="M184.651 74.3361C184.651 74.3361 184.932 78.1938 183.905 79.2066C183.869 79.2402 183.841 79.2818 183.825 79.3281C183.808 79.3744 183.802 79.4239 183.809 79.4728C183.815 79.5216 183.832 79.5682 183.86 79.6089C183.888 79.6496 183.925 79.6831 183.968 79.7067L187.023 81.3351L189.755 76.1158L184.651 74.3361Z" fill="black"/>
</g>
<path d="M184.768 81.7175C184.768 81.7175 183.006 82.8942 179.305 87.7374C178.532 88.7516 177.67 89.6959 176.731 90.5594C176.036 91.1897 175.311 91.8957 175.166 92.1563C174.943 92.5576 174.386 93.8918 174.624 94.9845C174.929 96.312 175.054 97.6746 174.996 99.0356L174.456 108.766C174.456 108.766 173.743 113.156 172.796 113.63L177.66 114.471C177.66 114.471 177.305 111.386 178.727 109.848C178.727 109.848 182.049 104.154 181.22 97.7475C181.22 97.7475 180.864 94.9004 184.067 93.3581C187.269 91.8159 193.795 84.3419 193.795 84.3419L184.768 81.7175Z" fill="#FDB797"/>
<path d="M173.617 111.968C173.617 111.968 171.6 114.46 168.398 115.053C165.196 115.645 165.314 117.308 166.263 117.545C167.213 117.782 178.719 117.308 178.719 117.308C178.719 117.308 179.56 115.648 178.602 114.815C177.643 113.983 177.889 112.443 177.889 112.443L173.617 111.968Z" fill="#0D134D"/>
<g opacity="0.1">
<path opacity="0.1" d="M187.735 75.4307C187.735 75.4307 186.288 80.2929 184.453 81.7091C184.419 81.7345 184.393 81.7687 184.377 81.808C184.36 81.8472 184.355 81.8902 184.362 81.9322C184.368 81.9742 184.385 82.0137 184.412 82.0466C184.439 82.0794 184.474 82.1044 184.514 82.1188C186.031 82.6714 190.906 84.5331 192.6 86.2267L192.658 86.2855C192.658 86.2855 202.801 81.125 197.344 72.3462L187.735 75.4307Z" fill="black"/>
</g>
<path d="M187.735 75.3131C187.735 75.3131 186.288 80.1752 184.453 81.5914C184.419 81.6168 184.393 81.651 184.377 81.6903C184.36 81.7296 184.355 81.7725 184.362 81.8145C184.368 81.8565 184.385 81.896 184.412 81.9288C184.439 81.9617 184.474 81.9867 184.514 82.0011C186.031 82.5538 190.906 84.4154 192.6 86.109L192.658 86.1678C192.658 86.1678 202.801 81.0073 197.344 72.2285L187.735 75.3131Z" fill="#E23553"/>
<g opacity="0.1">
<path opacity="0.1" d="M179.406 51.204C178.653 51.711 177.828 52.1046 176.96 52.3722L177.776 59.6277C177.776 59.6277 175.87 63.8931 181.32 66.8726C181.32 66.8726 184.63 71.2704 184.262 75.4223C184.262 75.4223 186.038 77.326 187.225 76.8533C188.412 76.3805 187.342 77.0907 187.58 76.973C187.817 76.8554 188.29 77.9249 191.969 76.9835C195.648 76.0422 198.273 73.5607 198.149 72.7286C198.025 71.8965 193.301 66.5469 192.131 60.0185C190.961 53.4901 183.974 48.8464 183.974 48.8464C183.974 48.8464 183.743 48.9746 183.344 49.1448C181.978 49.7243 180.661 50.413 179.406 51.204Z" fill="black"/>
</g>
<g opacity="0.1">
<path opacity="0.1" d="M184.361 81.7532C184.357 81.8041 184.369 81.8551 184.397 81.8981C184.425 81.941 184.466 81.9736 184.514 81.9906C185.821 82.4676 189.62 83.9153 191.73 85.3903C189.904 83.9153 186.019 82.3835 184.361 81.7532Z" fill="black"/>
<path opacity="0.1" d="M197.344 72.2285L197.134 72.3C201.797 80.4505 193.016 85.3735 192.249 85.7833C192.381 85.8925 192.501 85.9934 192.61 86.109L192.669 86.1678C192.669 86.1678 202.801 81.0073 197.344 72.2285Z" fill="black"/>
</g>
<path d="M192.005 76.7355C188.328 77.6853 187.853 76.6179 187.616 76.7355C187.378 76.8532 188.456 76.143 187.26 76.6179C186.065 77.0927 184.296 75.1933 184.296 75.1933C184.312 74.9831 184.321 74.7877 184.321 74.5839C184.334 70.6169 181.32 66.6519 181.32 66.6519C175.857 63.6871 177.761 59.4154 177.761 59.4154L177.538 57.4697L176.927 52.1621C177.794 51.8929 178.616 51.4979 179.368 50.9896C180.622 50.1966 181.936 49.5052 183.3 48.9221C183.701 48.7498 183.93 48.6216 183.93 48.6216C183.93 48.6216 190.929 53.2442 192.125 59.7726C193.32 66.301 198.056 71.6359 198.174 72.4659C198.292 73.2959 195.682 75.7858 192.005 76.7355Z" fill="#F9CE43"/>
<g opacity="0.1">
<path opacity="0.1" d="M179.667 44.5873L174.447 48.1467C175.167 48.3963 175.851 48.7374 176.483 49.1616C178.261 48.9116 179.349 47.6382 180.083 46.0707C179.797 45.6127 179.923 45.2029 179.667 44.5873Z" fill="black"/>
</g>
<path d="M175.635 49.0964C178.517 49.0964 180.854 46.7597 180.854 43.8771C180.854 40.9945 178.517 38.6577 175.635 38.6577C172.752 38.6577 170.415 40.9945 170.415 43.8771C170.415 46.7597 172.752 49.0964 175.635 49.0964Z" fill="#FDB797"/>
<g opacity="0.1">
<path opacity="0.1" d="M192.835 76.1431C189.158 77.0928 188.683 76.0254 188.445 76.1431C188.208 76.2608 189.286 75.5506 188.09 76.0254C186.895 76.5003 185.126 74.6008 185.126 74.6008C185.142 74.3907 185.151 74.1953 185.151 73.9915C185.166 70.0307 182.159 66.0595 182.159 66.0595C176.696 63.0947 178.599 58.823 178.599 58.823L178.379 56.8752L177.801 51.8512C177.522 51.977 177.233 52.0803 176.937 52.1601L177.538 57.4698L177.763 59.4155C177.763 59.4155 175.872 63.6872 181.322 66.652C181.322 66.652 184.329 70.6233 184.315 74.584C184.315 74.7941 184.315 74.9895 184.289 75.1934C184.289 75.1934 186.069 77.0844 187.254 76.618C188.439 76.1515 187.372 76.8554 187.609 76.7356C187.847 76.6159 188.321 77.6854 191.999 76.7356C193.667 76.304 195.23 75.5384 196.594 74.4853C195.437 75.2346 194.168 75.7943 192.835 76.1431Z" fill="black"/>
</g>
<path d="M182.989 55.5009C182.989 55.5009 180.024 56.5683 178.366 58.348C178.366 58.348 170.3 61.5502 168.045 61.1951C165.79 60.84 165.673 60.2453 165.198 59.304L160.096 50.0588C160.096 50.0588 157.961 42.3474 160.096 43.1774C162.231 44.0073 162.828 48.6405 162.828 48.6405C162.828 48.6405 166.862 56.7069 169.352 56.5893L176.109 53.366C176.109 53.366 177.652 51.1115 178.364 51.2312C179.076 51.351 182.989 55.5009 182.989 55.5009Z" fill="#FDB797"/>
<g opacity="0.1">
<path opacity="0.1" d="M178.984 51.1578C178.984 51.1578 176.523 50.933 175.811 54.0175C175.099 57.1021 181.274 58.9995 181.274 58.9995L184.596 54.3768L178.984 51.1578Z" fill="black"/>
</g>
<path d="M179.104 51.1578C179.104 51.1578 176.643 50.933 175.931 54.0175C175.218 57.1021 181.394 58.9995 181.394 58.9995L184.716 54.3768L179.104 51.1578Z" fill="#F9CE43"/>
<g opacity="0.1">
<path opacity="0.1" d="M178.099 51.7062C177.727 51.8938 177.337 52.0444 176.935 52.1558L176.956 52.3344C177.348 52.1454 177.73 51.9357 178.099 51.7062Z" fill="black"/>
<path opacity="0.1" d="M198.174 72.4659C198.056 71.6255 193.31 66.2968 192.125 59.7726C190.94 53.2484 183.93 48.6216 183.93 48.6216C183.93 48.6216 183.699 48.7498 183.3 48.9221C182.234 49.38 181.196 49.9028 180.194 50.4874C180.859 50.1372 181.539 49.8137 182.232 49.5167C182.634 49.3444 182.863 49.2162 182.863 49.2162C182.863 49.2162 189.862 53.8388 191.057 60.3673C192.253 66.8957 196.989 72.2306 197.107 73.0606C197.182 73.5838 196.172 74.7667 194.493 75.8089C196.798 74.6638 198.264 73.0921 198.174 72.4659Z" fill="black"/>
</g>
<path opacity="0.1" d="M180.514 51.2061C180.514 51.2061 183.581 52.7252 184.159 55.6459" stroke="black" stroke-miterlimit="10"/>
<g opacity="0.1">
<path opacity="0.1" d="M173.012 43.5829C173.502 43.6922 174.048 43.8456 174.29 44.2847C174.464 44.6041 174.433 45.0055 174.603 45.3353C175.04 46.159 176.322 45.8753 177.124 46.3586C178.595 47.2453 177.635 50.0105 179.099 50.9014C179.375 51.0695 179.7 51.1367 179.984 51.2901C181.222 51.9667 181.047 53.7569 180.825 55.15C180.602 56.5431 180.867 58.4489 182.264 58.6464C183.033 58.7536 183.896 58.2451 184.544 58.6716C184.882 58.8943 185.035 59.302 185.319 59.5982C185.514 59.7926 185.761 59.9258 186.031 59.9814C186.3 60.037 186.58 60.0126 186.836 59.9113C187.311 59.7138 187.653 59.262 188.147 59.1171C188.941 58.8838 189.828 59.5268 190.593 59.2305C191.358 58.9343 191.532 57.829 191.335 56.9949C191.137 56.1607 190.734 55.3139 190.944 54.4734C191.118 53.78 191.686 53.2505 191.934 52.5824C192.661 50.6093 190.406 48.5712 190.822 46.5099C191.003 45.6169 191.675 44.829 191.662 43.9275C191.641 42.8769 190.711 42.0806 189.742 41.694C188.773 41.3074 187.71 41.1981 186.762 40.7673C184.684 39.8218 183.548 37.5357 181.648 36.2666C180.797 35.7114 179.838 35.3432 178.835 35.1866C177.539 34.9781 176.215 35.0483 174.949 35.3925C173.683 35.7367 172.505 36.347 171.493 37.1827C171.306 37.334 171.115 37.4769 170.922 37.6156C170.111 38.2018 169.241 38.7796 168.747 39.6495C166.944 42.7887 171.086 43.148 173.012 43.5829Z" fill="black"/>
</g>
<path d="M173.159 43.2867C173.649 43.396 174.195 43.5494 174.437 43.9885C174.611 44.3079 174.58 44.7092 174.75 45.0391C175.187 45.8628 176.469 45.5791 177.271 46.0624C178.742 46.9491 177.782 49.7143 179.247 50.6052C179.522 50.7733 179.847 50.8405 180.131 50.9939C181.369 51.6705 181.194 53.4607 180.972 54.8538C180.749 56.2469 181.014 58.1527 182.411 58.3502C183.18 58.4574 184.044 57.9489 184.691 58.3754C185.029 58.5981 185.182 59.0058 185.466 59.302C185.661 59.4964 185.908 59.6296 186.178 59.6852C186.447 59.7408 186.727 59.7164 186.983 59.6151C187.458 59.4176 187.8 58.9658 188.294 58.8209C189.089 58.5876 189.975 59.2306 190.74 58.9343C191.505 58.6381 191.679 57.5328 191.482 56.6987C191.284 55.8645 190.881 55.0177 191.091 54.1772C191.265 53.4838 191.833 52.9543 192.081 52.2861C192.808 50.3131 190.553 48.275 190.969 46.2137C191.15 45.3207 191.822 44.5327 191.81 43.6313C191.789 42.5807 190.858 41.7844 189.889 41.3978C188.92 41.0111 187.857 40.9019 186.91 40.4711C184.831 39.5256 183.695 37.2395 181.795 35.9704C181.023 35.4638 180.16 35.1139 179.253 34.9408C177.918 34.6847 176.542 34.7267 175.225 35.0637C173.908 35.4008 172.682 36.0247 171.634 36.8907C171.449 37.0399 171.258 37.1828 171.069 37.3109C170.258 37.8972 169.388 38.475 168.894 39.3449C167.091 42.4925 171.235 42.8539 173.159 43.2867Z" fill="#00BAFC"/>
<path d="M130.871 76.1011H94.31V69.2113C103.242 65.0362 116.986 62.6913 130.871 76.1011Z" fill="#00BAFC"/>
<g opacity="0.1">
<path opacity="0.1" d="M159.237 75.1155V76.101H113.641V75.8909C113.641 75.8909 136.078 54.0448 159.237 75.1155Z" fill="black"/>
</g>
<path d="M159.657 75.1155V76.101H114.061V75.8909C114.061 75.8909 136.498 54.0448 159.657 75.1155Z" fill="#00BAFC"/>
<path d="M101.874 48.5754C103.731 48.5754 105.236 47.0702 105.236 45.2135C105.236 43.3567 103.731 41.8516 101.874 41.8516C100.018 41.8516 98.5124 43.3567 98.5124 45.2135C98.5124 47.0702 100.018 48.5754 101.874 48.5754Z" fill="#00BAFC"/>
<path d="M130.497 42.671C130.112 42.671 129.684 42.671 129.392 42.6941C129.261 42.7013 129.132 42.7275 129.009 42.7719L127.032 43.4821C128.629 43.522 130.295 43.5094 131.932 43.4968L141.11 43.4254C142.047 43.4254 143.03 43.4086 143.81 43.3539C144.333 43.3161 144.718 43.2615 145.201 43.2195C146.939 43.064 149.471 43.0934 151.733 43.1018C153.996 43.1102 156.728 43.0514 157.524 42.8244H152.666C152.143 42.8244 151.593 42.8244 151.13 42.7992C150.59 42.7677 150.261 42.7089 149.786 42.6668C149 42.5996 147.916 42.5912 146.907 42.587C141.37 42.5639 135.903 42.6942 130.497 42.671Z" fill="#F4F4F4"/>
<path d="M135.935 46.7432C135.851 46.7432 135.758 46.7432 135.695 46.7432C135.666 46.7446 135.638 46.7503 135.611 46.76L135.191 46.9134C135.537 46.9134 135.897 46.9134 136.252 46.9134L138.24 46.8987C138.45 46.8987 138.66 46.8987 138.824 46.884C138.937 46.884 139.021 46.863 139.124 46.8545C139.5 46.8209 140.049 46.8272 140.54 46.8293C140.962 46.8435 141.383 46.8231 141.801 46.7684H140.751C140.637 46.7684 140.517 46.7684 140.419 46.7684C140.32 46.7684 140.229 46.7495 140.126 46.739C139.956 46.7243 139.721 46.7222 139.496 46.7222C138.298 46.7222 137.113 46.7495 135.935 46.7432Z" fill="#F4F4F4"/>
<path d="M121.857 52.6265C121.773 52.6265 121.68 52.6265 121.617 52.6265C121.588 52.6279 121.56 52.6336 121.533 52.6433L121.113 52.7967C121.459 52.7967 121.819 52.7967 122.174 52.7967L124.162 52.782C124.372 52.782 124.582 52.782 124.746 52.7673C124.859 52.7673 124.943 52.7463 125.046 52.7379C125.422 52.7042 125.971 52.7105 126.462 52.7126C126.884 52.7268 127.305 52.7064 127.723 52.6517H126.673C126.559 52.6517 126.439 52.6517 126.341 52.6517C126.242 52.6517 126.151 52.6328 126.048 52.6223C125.878 52.6076 125.643 52.6055 125.418 52.6055C124.22 52.6055 123.035 52.6328 121.857 52.6265Z" fill="#F4F4F4"/>
<path d="M113.958 74.2373H112.378C112.378 74.2373 111.884 56.9571 113.958 51.6243H114.353C114.353 51.6243 112.971 71.1759 113.958 74.2373Z" fill="#00BAFC"/>
<path d="M112.872 50.7354C112.872 50.7354 111.588 54.2906 112.181 55.8707C112.181 55.8707 113.069 52.6117 114.105 52.118C115.141 51.6242 116.228 55.8707 116.228 55.8707C116.228 55.8707 116.82 53.2043 115.734 51.0379C115.734 51.0379 117.906 52.223 118.993 54.4944C118.993 54.4944 119.19 53.0236 116.623 49.9516C116.623 49.9516 118.894 50.5442 120.375 51.9267C120.375 51.9267 120.869 50.8404 117.808 49.0628C117.808 49.0628 118.203 47.779 120.573 48.3715C120.573 48.3715 120.573 46.6906 116.82 46.9889C116.82 46.9889 116.82 45.9026 119.289 46.1001C119.289 46.1001 119.289 44.7176 116.425 45.2113C116.425 45.2113 117.018 44.3225 117.413 44.125C116.919 44.0794 116.425 44.2203 116.03 44.52C116.03 44.52 116.129 42.7424 114.647 42.0511L114.45 44.52C114.45 44.52 112.79 42.5638 113.166 42.94C113.265 43.0387 113.561 44.2238 113.462 44.8163C113.462 44.8163 111.781 43.4337 109.71 44.9151C109.71 44.9151 112.277 45.1126 112.672 46.0014C112.672 46.0014 110.5 45.6064 110.006 45.9026C110.006 45.9026 111.687 46.4952 111.586 46.8902C111.586 46.8902 108.623 46.8902 108.224 47.9765C108.224 47.9765 111.286 48.3715 111.483 48.6678C111.483 48.6678 107.928 51.2355 107.73 51.9267C107.73 51.9267 111.384 49.7541 111.977 49.7541C112.569 49.7541 109.31 52.9059 109.508 53.7044C109.516 53.6981 112.191 50.5379 112.872 50.7354Z" fill="#00BAFC"/>
<path d="M133.447 73.5901H134.653C134.653 73.5901 135.031 60.3883 133.447 56.3141H133.144C133.144 56.3141 134.203 71.2473 133.447 73.5901Z" fill="#00BAFC"/>
<path d="M134.277 55.6354C134.277 55.6354 135.258 58.3523 134.804 59.5584C134.804 59.5584 134.125 57.0685 133.333 56.6923C132.541 56.3162 131.711 59.5584 131.711 59.5584C131.711 59.5584 131.259 57.5223 132.089 55.8624C131.027 56.491 130.164 57.4064 129.6 58.5036C129.6 58.5036 129.448 57.371 131.411 55.0324C131.411 55.0324 129.675 55.4842 128.545 56.5411C128.545 56.5411 128.166 55.7111 130.507 54.3537C130.507 54.3537 130.205 53.3725 128.396 53.8263C128.396 53.8263 128.396 52.5446 131.262 52.7757C131.262 52.7757 131.262 51.9457 129.37 52.097C129.37 52.097 129.37 51.0464 131.558 51.4184C131.558 51.4184 131.106 50.7397 130.803 50.5884C131.179 50.5552 131.554 50.663 131.854 50.8909C131.854 50.8909 131.778 49.5336 132.905 48.9999L133.056 50.8909C133.056 50.8909 134.317 49.397 134.037 49.6849C133.857 50.1399 133.779 50.6293 133.81 51.1179C133.81 51.1179 135.092 50.0673 136.676 51.1935C136.676 51.1935 134.714 51.3448 134.413 52.0235C134.413 52.0235 136.073 51.7209 136.449 51.9478C136.449 51.9478 135.168 52.3996 135.243 52.7022C135.243 52.7022 137.506 52.7022 137.809 53.5321C137.809 53.5321 135.47 53.8347 135.319 54.0595C135.319 54.0595 138.036 56.0221 138.185 56.5495C138.185 56.5495 135.395 54.8895 134.941 54.8895C134.487 54.8895 136.977 57.3038 136.832 57.9068C136.842 57.8984 134.806 55.4884 134.277 55.6354Z" fill="#00BAFC"/>
<path d="M147.888 71.0098H148.636C148.636 71.0098 148.87 62.8341 147.888 60.3105H147.701C147.701 60.3105 148.355 69.5663 147.888 71.0098Z" fill="#00BAFC"/>
<path d="M148.403 59.8903C148.403 59.8903 149.01 61.5712 148.731 62.3192C148.731 62.3192 148.311 60.777 147.819 60.5437C147.327 60.3105 146.815 62.3192 146.815 62.3192C146.815 62.3192 146.535 61.0585 147.048 60.0289C146.39 60.4179 145.856 60.9845 145.506 61.6637C145.506 61.6637 145.413 60.9619 146.628 59.5141C145.976 59.6956 145.37 60.0144 144.852 60.4492C144.852 60.4492 144.619 59.9344 146.067 59.0939C146.067 59.0939 145.88 58.4867 144.758 58.7661C144.758 58.7661 144.758 57.9719 146.533 58.1126C146.533 58.1126 146.533 57.5979 145.365 57.6924C145.365 57.6924 145.365 57.0389 146.72 57.2722C146.595 57.0753 146.437 56.9012 146.254 56.7574C146.487 56.736 146.72 56.8027 146.907 56.9444C146.907 56.9444 146.861 56.1039 147.561 55.7761L147.653 56.9444C147.653 56.9444 148.439 56.0199 148.26 56.1964C148.148 56.4779 148.1 56.7807 148.119 57.0831C148.379 56.8938 148.694 56.7958 149.015 56.8041C149.336 56.8125 149.646 56.9268 149.895 57.1293C149.895 57.1293 148.68 57.2217 148.493 57.6441C148.493 57.6441 149.521 57.4571 149.754 57.5979C149.754 57.5979 148.96 57.8773 149.006 58.0643C149.006 58.0643 150.408 58.0643 150.595 58.5791C150.595 58.5791 149.147 58.7661 149.052 58.9069C149.052 58.9069 150.733 60.1214 150.828 60.4492C150.828 60.4492 149.099 59.4217 148.819 59.4217C148.54 59.4217 150.08 60.9177 149.987 61.2897C149.992 61.2918 148.729 59.7957 148.403 59.8903Z" fill="#00BAFC"/>
<path d="M120.573 61.7645L120.415 60.9241C120.415 60.8623 120.402 60.8012 120.378 60.7444C120.353 60.6877 120.317 60.6366 120.272 60.5942L119.543 60.237C119.489 60.1739 119.446 60.103 119.413 60.0269L119.426 60.0079C119.466 59.9581 119.494 59.9 119.51 59.8377C119.511 59.8217 119.511 59.8055 119.51 59.7894H119.52C119.587 59.7984 119.656 59.7818 119.711 59.7429C119.767 59.704 119.806 59.6456 119.821 59.5793V59.5604C119.808 59.6172 119.777 59.6683 119.732 59.7061C119.688 59.744 119.633 59.7666 119.575 59.7705C119.676 59.7025 119.759 59.6106 119.817 59.5029C119.874 59.3951 119.905 59.2749 119.905 59.1528C119.905 59.1528 119.905 59.1317 119.905 59.1212C119.937 59.1015 119.964 59.0752 119.986 59.0441C120.007 59.013 120.022 58.9777 120.029 58.9405V58.9216C120.02 58.9568 120.004 58.9899 119.982 59.0188C119.96 59.0477 119.932 59.0718 119.9 59.0897C119.895 59.0178 119.88 58.947 119.854 58.8796H119.873C119.945 58.8796 120.014 58.851 120.065 58.8002C120.116 58.7494 120.144 58.6804 120.144 58.6086C120.144 58.6086 120.144 58.5959 120.144 58.5896C120.139 58.6578 120.109 58.7217 120.059 58.7685C120.009 58.8152 119.944 58.8414 119.875 58.8418H119.842V58.8292C119.922 58.805 119.994 58.7583 120.049 58.6947C120.104 58.6311 120.14 58.5531 120.153 58.4699C120.153 58.4699 120.153 58.4573 120.153 58.451C120.149 58.5036 120.13 58.554 120.098 58.5959C120.101 58.5286 120.08 58.4624 120.037 58.4102C119.995 58.3579 119.934 58.3235 119.867 58.3135C119.801 58.3035 119.733 58.3187 119.677 58.3562C119.621 58.3937 119.58 58.4507 119.564 58.5161L119.516 58.4888C119.531 58.4347 119.563 58.3866 119.606 58.3512C119.65 58.3158 119.704 58.2949 119.76 58.2913H119.741C119.684 58.2908 119.628 58.3082 119.582 58.341C119.536 58.3738 119.501 58.4204 119.482 58.4741C119.32 58.3986 119.136 58.3842 118.963 58.4336C118.791 58.483 118.643 58.5929 118.545 58.743C118.488 58.785 118.415 58.846 118.417 58.8985C118.393 58.9229 118.371 58.9496 118.352 58.9784C118.272 59.1538 118.243 59.3482 118.268 59.5394C118.279 59.6344 118.268 59.7308 118.234 59.8205C118.201 59.9101 118.146 59.9903 118.074 60.0542C118.106 60.0672 118.139 60.074 118.173 60.074C118.207 60.074 118.241 60.0672 118.272 60.0542C118.334 60.0278 118.393 59.9931 118.446 59.9512C118.496 59.921 118.538 59.8801 118.57 59.8314V59.8209C118.605 59.8443 118.643 59.864 118.682 59.8798C118.696 60.0058 118.701 60.1508 118.644 60.1992L118.654 60.176C118.519 60.278 118.35 60.3259 118.182 60.3105C118.08 60.3163 117.981 60.3483 117.895 60.4036C117.809 60.4588 117.739 60.5353 117.692 60.6257L117.463 61.5817V61.5985V61.6154C117.467 61.6282 117.473 61.6399 117.483 61.6492C117.493 61.6585 117.505 61.6649 117.518 61.6679L117.589 61.6868C117.6 61.8501 117.584 62.0142 117.541 62.1722C117.493 62.4075 117.465 62.6465 117.459 62.8866C117.476 63.0063 117.505 63.6304 117.52 63.9267C117.494 64.0278 117.474 64.1302 117.459 64.2334L117.121 66.2632C117.121 66.2632 116.868 67.8874 116.881 68.3791L116.837 68.6628C116.837 68.6628 116.15 69.5242 116.351 69.6461C116.553 69.768 116.864 69.8205 117.16 69.3624C117.201 69.2545 117.265 69.1574 117.35 69.0788C117.383 69.0497 117.409 69.0129 117.426 68.9716C117.442 68.9303 117.449 68.8856 117.444 68.8413L117.423 68.6312L117.459 68.6438H117.48C117.48 68.6438 117.818 67.5323 117.78 66.7528C117.78 66.7528 118.411 64.5213 118.883 64.1704V64.1557L118.928 64.1347L119.028 66.2968L118.925 68.6796L118.902 68.8224C118.902 68.8224 118.215 69.6839 118.417 69.8058C118.619 69.9277 118.93 69.9802 119.226 69.5221C119.266 69.4142 119.331 69.3171 119.415 69.2385C119.449 69.2094 119.475 69.1726 119.491 69.1313C119.508 69.09 119.514 69.0453 119.51 69.001L119.478 68.6859C119.596 68.2845 119.898 67.1289 119.774 66.4586L119.984 65.034C120.195 64.7966 120.167 64.1935 120.167 64.1935C120.333 63.8468 120.377 62.4873 120.377 62.4873L120.419 61.815C120.451 61.8123 120.482 61.8123 120.514 61.815H120.535H120.548V61.8024C120.554 61.7971 120.559 61.7906 120.562 61.7834H120.575V61.7666L120.573 61.7645ZM119.984 63.1303C119.966 63.0841 119.945 63.0379 119.921 62.9916H119.905V62.9748C119.904 62.9692 119.904 62.9636 119.905 62.958V62.9412C119.914 62.9187 119.923 62.8955 119.93 62.8719C119.957 62.8285 119.971 62.7781 119.97 62.7269C119.994 62.8599 119.999 62.9958 119.984 63.1303ZM119.921 62.5546L119.879 62.1049L119.892 62.0692L119.949 62.6407L119.921 62.5546ZM117.929 62.6155C117.915 62.6321 117.904 62.6515 117.898 62.6725C117.891 62.6934 117.889 62.7156 117.892 62.7374C117.892 62.7374 117.892 62.7374 117.892 62.7521C117.892 62.7976 117.898 62.8428 117.911 62.8866L117.845 63.1681V62.6302C117.889 62.5735 117.927 62.513 117.959 62.4495C117.966 62.5065 117.955 62.5642 117.929 62.6155Z" fill="url(#paint3_linear_703_15)"/>
<path d="M118.354 59.1444C118.277 59.3132 118.248 59.5003 118.272 59.6844C118.283 59.776 118.272 59.8689 118.239 59.9553C118.207 60.0416 118.154 60.1188 118.085 60.1803C118.115 60.193 118.148 60.1995 118.181 60.1995C118.213 60.1995 118.246 60.193 118.276 60.1803C118.336 60.155 118.393 60.1218 118.444 60.0816C118.492 60.0525 118.533 60.013 118.564 59.966C118.593 59.8934 118.603 59.8144 118.591 59.737C118.592 59.5996 118.604 59.4626 118.627 59.3272C118.64 59.2432 118.72 59.0142 118.627 58.97C118.535 58.9259 118.394 59.0814 118.354 59.1444Z" fill="#72351C"/>
<path d="M116.965 68.0765L116.9 68.4968C116.9 68.4968 116.238 69.3372 116.433 69.4444C116.629 69.5516 116.927 69.6125 117.213 69.1712C117.251 69.0674 117.313 68.9739 117.394 68.8981C117.426 68.87 117.451 68.8345 117.467 68.7946C117.483 68.7548 117.488 68.7117 117.484 68.6691L117.419 68.0282L116.965 68.0765Z" fill="#333333"/>
<path d="M118.957 68.2425L118.892 68.6628C118.892 68.6628 118.23 69.5033 118.425 69.6104C118.621 69.7176 118.919 69.7785 119.205 69.3373C119.243 69.2334 119.305 69.1399 119.386 69.0641C119.418 69.036 119.443 69.0005 119.459 68.9606C119.474 68.9208 119.48 68.8777 119.476 68.8351L119.411 68.1942L118.957 68.2425Z" fill="#333333"/>
<path d="M117.925 63.2186C117.925 63.2186 117.614 63.4435 117.505 64.2251L117.179 66.1813C117.179 66.1813 116.904 67.9547 116.955 68.2951L117.505 68.4842C117.505 68.4842 117.831 67.4126 117.795 66.6667C117.795 66.6667 118.457 64.3092 118.921 64.1453L119.02 66.2275L118.915 68.5704L119.386 68.6649C119.386 68.6649 119.863 67.1731 119.711 66.383L119.957 64.7021C119.957 64.7021 120.239 63.8049 119.848 63.0211L117.925 63.2186Z" fill="#4D8AF0"/>
<g opacity="0.1">
<path opacity="0.1" d="M118.873 64.1768V64.1411C118.409 64.3071 117.747 66.6625 117.747 66.6625C117.735 67.2723 117.64 67.8775 117.463 68.4611L117.522 68.4821C117.522 68.4821 117.848 67.4105 117.812 66.6646C117.81 66.6667 118.415 64.5235 118.873 64.1768Z" fill="black"/>
<path opacity="0.1" d="M119.867 63.0316H119.804C120.03 63.5583 120.067 64.1469 119.909 64.6979L119.663 66.3788C119.808 67.1268 119.386 68.5031 119.341 68.6481L119.402 68.6607C119.402 68.6607 119.879 67.1689 119.728 66.3788L119.974 64.6979C119.974 64.6979 120.258 63.8049 119.867 63.0316Z" fill="black"/>
</g>
<path d="M117.503 61.6868C117.503 61.7029 117.508 61.7186 117.518 61.7313C117.528 61.744 117.542 61.7527 117.558 61.7561C117.711 61.7948 117.855 61.8665 117.978 61.9663C118.209 62.147 117.732 61.6049 117.732 61.6049L117.572 61.6406L117.507 61.6994L117.503 61.6868Z" fill="#F55F44"/>
<path opacity="0.1" d="M117.503 61.6868C117.503 61.7029 117.508 61.7186 117.518 61.7313C117.528 61.744 117.542 61.7527 117.558 61.7561C117.711 61.7948 117.855 61.8665 117.978 61.9663C118.209 62.147 117.732 61.6049 117.732 61.6049L117.572 61.6406L117.507 61.6994L117.503 61.6868Z" fill="black"/>
<path d="M119.776 62.166C119.971 62.028 120.196 61.9393 120.432 61.9075C120.448 61.9075 120.464 61.9011 120.475 61.8896C120.487 61.8782 120.493 61.8627 120.493 61.8466C120.493 61.8466 119.942 61.6301 119.776 62.166Z" fill="#F55F44"/>
<path opacity="0.1" d="M120.493 61.8444C120.493 61.8444 119.942 61.6342 119.776 62.1637C119.776 62.1637 120.182 61.8528 120.464 61.9032" fill="black"/>
<path d="M119.138 60.029C119.533 60.029 119.854 59.7082 119.854 59.3125C119.854 58.9167 119.533 58.5959 119.138 58.5959C118.742 58.5959 118.421 58.9167 118.421 59.3125C118.421 59.7082 118.742 60.029 119.138 60.029Z" fill="#72351C"/>
<path d="M118.644 59.8147C118.644 59.8147 118.745 60.2349 118.644 60.3211C118.543 60.4072 118.339 60.5669 118.493 60.6909C118.646 60.8149 119.194 61.025 119.377 60.922C119.56 60.8191 119.768 60.8506 119.718 60.6405C119.667 60.4303 119.268 60.4745 119.262 59.4302L118.644 59.8147Z" fill="#FDB797"/>
<path opacity="0.1" d="M117.629 61.5608C117.644 61.7887 117.629 62.0175 117.585 62.2416C117.538 62.4679 117.512 62.6978 117.505 62.9287C117.526 63.08 117.57 64.0801 117.57 64.0801C117.57 64.0801 117.49 64.9563 117.917 64.8765C118.343 64.7966 117.852 63.8763 117.852 63.8763L117.873 62.6807C117.988 62.5236 118.061 62.3388 118.083 62.1449C118.114 61.8571 117.629 61.5608 117.629 61.5608Z" fill="black"/>
<path d="M117.623 61.5608C117.638 61.7887 117.623 62.0175 117.579 62.2416C117.532 62.4679 117.505 62.6978 117.499 62.9287C117.52 63.08 117.564 64.0801 117.564 64.0801C117.564 64.0801 117.484 64.9563 117.911 64.8765C118.337 64.7966 117.845 63.8763 117.845 63.8763L117.866 62.6807C117.982 62.5236 118.055 62.3388 118.077 62.1449C118.106 61.8571 117.623 61.5608 117.623 61.5608Z" fill="#FDB797"/>
<path opacity="0.1" d="M120.352 61.6259L120.293 62.5609C120.293 62.5609 120.258 63.872 120.098 64.204C120.098 64.204 120.142 65.1244 119.713 65.1012C119.285 65.0781 119.785 64.0948 119.785 64.0948C119.785 64.0948 120.014 63.0715 119.896 62.7479L119.785 61.6259H120.352Z" fill="black"/>
<path d="M120.358 61.6259L120.3 62.5609C120.3 62.5609 120.264 63.872 120.104 64.204C120.104 64.204 120.148 65.1244 119.72 65.1012C119.291 65.0781 119.791 64.0948 119.791 64.0948C119.791 64.0948 120.02 63.0715 119.902 62.7479L119.791 61.6259H120.358Z" fill="#FDB797"/>
<path opacity="0.1" d="M118.97 60.7202C118.97 60.7202 119.316 60.8799 119.505 60.405L120.209 60.7496C120.253 60.7908 120.287 60.8403 120.31 60.8953C120.334 60.9502 120.346 61.0093 120.346 61.069L120.497 61.8801C120.497 61.8801 119.982 61.7057 119.823 62.1848L119.867 62.6407C119.9 62.7533 119.892 62.874 119.844 62.9811C119.839 62.9907 119.837 63.0011 119.837 63.0116C119.837 63.0221 119.839 63.0324 119.844 63.042C119.854 63.0752 119.857 63.1104 119.851 63.1448C119.846 63.1792 119.832 63.2118 119.812 63.24C119.791 63.2682 119.765 63.2912 119.734 63.3072C119.703 63.3232 119.668 63.3317 119.634 63.332C119.444 63.3342 119.256 63.3489 119.068 63.3761C118.917 63.4203 118.459 63.29 118.308 63.3761C118.156 63.4623 117.837 63.311 117.837 63.311L117.923 62.9412C117.923 62.9412 117.864 62.7605 117.938 62.6953C118.011 62.6302 117.967 62.065 117.902 61.9053C117.902 61.9053 117.642 61.6595 117.482 61.6952L117.692 60.7601C117.737 60.6729 117.805 60.599 117.887 60.5456C117.97 60.4922 118.065 60.4611 118.163 60.4555C118.326 60.4701 118.488 60.4236 118.619 60.3252C118.619 60.3252 118.461 60.6698 118.97 60.7202Z" fill="black"/>
<path opacity="0.1" d="M119.005 60.7035C119.1 60.7287 119.352 60.756 119.503 60.3757L120.207 60.7203C120.25 60.7614 120.285 60.811 120.308 60.8659C120.332 60.9208 120.344 60.98 120.344 61.0397L120.495 61.8507C120.495 61.8507 119.98 61.6763 119.821 62.1554L119.865 62.6114L119.894 62.7017C119.907 62.7403 119.91 62.7814 119.904 62.8216C119.898 62.8617 119.882 62.8999 119.858 62.9329C119.848 62.9442 119.842 62.958 119.839 62.9728C119.837 62.9876 119.838 63.0029 119.844 63.0169C119.854 63.0501 119.857 63.0853 119.851 63.1197C119.846 63.1541 119.832 63.1866 119.812 63.2148C119.791 63.243 119.765 63.2661 119.734 63.282C119.703 63.298 119.668 63.3065 119.634 63.3069C119.444 63.309 119.256 63.3238 119.068 63.351C118.917 63.3951 118.459 63.2648 118.308 63.351C118.156 63.4371 117.837 63.2859 117.837 63.2859L117.923 62.916C117.923 62.916 117.864 62.7353 117.938 62.6702C118.011 62.6051 117.967 62.0398 117.902 61.8802C117.902 61.8802 117.642 61.6343 117.482 61.67L117.692 60.735C117.737 60.6478 117.805 60.5739 117.887 60.5205C117.97 60.467 118.065 60.436 118.163 60.4303C118.326 60.4449 118.488 60.3985 118.619 60.3C118.619 60.3 118.448 60.611 118.896 60.6783L119.005 60.7035Z" fill="black"/>
<path d="M119.005 60.7182C119.1 60.7434 119.352 60.7707 119.503 60.3904L120.207 60.735C120.25 60.7761 120.285 60.8257 120.308 60.8806C120.332 60.9355 120.344 60.9946 120.344 61.0544L120.495 61.8654C120.495 61.8654 119.98 61.691 119.821 62.1701L119.865 62.6261C119.898 62.7386 119.89 62.8594 119.842 62.9665C119.837 62.9761 119.835 62.9864 119.835 62.9969C119.835 63.0074 119.837 63.0178 119.842 63.0274C119.852 63.0606 119.855 63.0958 119.849 63.1302C119.844 63.1645 119.83 63.1971 119.81 63.2253C119.789 63.2535 119.762 63.2765 119.731 63.2925C119.701 63.3085 119.666 63.317 119.631 63.3174C119.442 63.3195 119.253 63.3343 119.066 63.3615C118.915 63.4056 118.457 63.2753 118.306 63.3615C118.154 63.4476 117.835 63.2963 117.835 63.2963L117.921 62.9265C117.921 62.9265 117.862 62.7458 117.936 62.6807C118.009 62.6156 117.965 62.0503 117.9 61.8906C117.9 61.8906 117.64 61.6448 117.48 61.6805L117.69 60.7455C117.735 60.6583 117.803 60.5844 117.885 60.531C117.968 60.4775 118.062 60.4465 118.161 60.4408C118.323 60.4554 118.486 60.409 118.617 60.3105C118.617 60.3105 118.446 60.6215 118.894 60.6888L119.005 60.7182Z" fill="#F55F44"/>
<path opacity="0.1" d="M119.272 59.468L118.656 59.8525C118.672 59.9219 118.684 59.992 118.692 60.0627C118.762 60.0906 118.837 60.1049 118.913 60.1047C119.063 60.0941 119.205 60.03 119.312 59.924C119.284 59.7736 119.271 59.6209 119.272 59.468Z" fill="black"/>
<path d="M118.9 60.0584C119.229 60.0584 119.495 59.7922 119.495 59.4638C119.495 59.1354 119.229 58.8691 118.9 58.8691C118.572 58.8691 118.306 59.1354 118.306 59.4638C118.306 59.7922 118.572 60.0584 118.9 60.0584Z" fill="#FDB797"/>
<path d="M119.776 59.0078C119.92 59.0078 120.037 58.8911 120.037 58.7472C120.037 58.6033 119.92 58.4867 119.776 58.4867C119.633 58.4867 119.516 58.6033 119.516 58.7472C119.516 58.8911 119.633 59.0078 119.776 59.0078Z" fill="#72351C"/>
<path d="M119.827 59.0225C119.761 59.0227 119.697 58.9979 119.649 58.953C119.601 58.9082 119.571 58.8467 119.566 58.7809C119.566 58.7809 119.566 58.7935 119.566 58.7998C119.566 58.8689 119.594 58.9352 119.643 58.984C119.691 59.0329 119.758 59.0603 119.827 59.0603C119.896 59.0603 119.962 59.0329 120.011 58.984C120.06 58.9352 120.087 58.8689 120.087 58.7998C120.087 58.7998 120.087 58.7872 120.087 58.7809C120.083 58.8467 120.053 58.9082 120.005 58.953C119.956 58.9979 119.893 59.0227 119.827 59.0225Z" fill="#72351C"/>
<path d="M119.678 59.2705C119.613 59.2582 119.555 59.2219 119.516 59.1689C119.478 59.1159 119.46 59.0501 119.468 58.9847V59.0015C119.455 59.0695 119.47 59.1397 119.509 59.1967C119.548 59.2536 119.609 59.2926 119.677 59.3052C119.745 59.3177 119.815 59.3027 119.872 59.2635C119.929 59.2243 119.968 59.1641 119.98 59.0961V59.0772C119.964 59.1421 119.924 59.1983 119.868 59.2343C119.811 59.2703 119.743 59.2832 119.678 59.2705Z" fill="#72351C"/>
<path d="M119.476 59.9009C119.411 59.8886 119.354 59.8523 119.315 59.7993C119.276 59.7463 119.258 59.6805 119.266 59.6151V59.6319C119.253 59.6999 119.268 59.7701 119.307 59.827C119.347 59.884 119.407 59.923 119.475 59.9356C119.543 59.9481 119.613 59.9331 119.67 59.8939C119.727 59.8547 119.766 59.7945 119.779 59.7265V59.7076C119.763 59.7724 119.722 59.8287 119.666 59.8647C119.61 59.9006 119.542 59.9136 119.476 59.9009Z" fill="#72351C"/>
<path d="M119.827 58.8839C119.761 58.884 119.697 58.8589 119.648 58.8136C119.6 58.7683 119.571 58.7063 119.566 58.6401C119.566 58.6401 119.566 58.6527 119.566 58.659C119.566 58.7281 119.594 58.7944 119.643 58.8433C119.691 58.8922 119.758 58.9196 119.827 58.9196C119.896 58.9196 119.962 58.8922 120.011 58.8433C120.06 58.7944 120.087 58.7281 120.087 58.659C120.087 58.659 120.087 58.6464 120.087 58.6401C120.083 58.7063 120.054 58.7683 120.005 58.8136C119.957 58.8589 119.893 58.884 119.827 58.8839Z" fill="#72351C"/>
<path d="M119.463 58.7431C119.464 58.6768 119.489 58.6132 119.535 58.5652C119.581 58.5172 119.643 58.4884 119.709 58.4846H119.69C119.621 58.4846 119.555 58.5121 119.506 58.5609C119.457 58.6098 119.43 58.6761 119.43 58.7452C119.43 58.8143 119.457 58.8805 119.506 58.9294C119.555 58.9783 119.621 59.0057 119.69 59.0057H119.709C119.642 59.0019 119.579 58.9725 119.534 58.9236C119.488 58.8747 119.463 58.8101 119.463 58.7431Z" fill="#72351C"/>
<path opacity="0.1" d="M119.726 61.2014C119.753 61.3302 119.753 61.4634 119.726 61.5922C119.726 61.5922 119.69 61.9326 119.747 61.9915" fill="black"/>
<path opacity="0.1" d="M117.965 61.2812C117.993 61.4101 117.993 61.5432 117.965 61.6721C117.965 61.6721 117.929 62.0125 117.986 62.0713" fill="black"/>
<path opacity="0.1" d="M117.95 62.6786C118.007 62.6988 118.068 62.6988 118.125 62.6786C118.193 62.6578 118.267 62.6578 118.335 62.6786" fill="black"/>
<path opacity="0.1" d="M118.039 62.1659C118.243 62.1756 118.448 62.1435 118.64 62.0713C118.64 62.0713 119.379 62.252 119.589 62.1217" fill="black"/>
<path d="M117.816 65.2883H117.642C117.564 65.2883 117.501 65.3514 117.501 65.4291C117.501 65.5068 117.564 65.5699 117.642 65.5699H117.816C117.894 65.5699 117.957 65.5068 117.957 65.4291C117.957 65.3514 117.894 65.2883 117.816 65.2883Z" fill="#FDB797"/>
<path d="M117.503 65.3639L117.747 65.3534L117.957 65.387H117.883L117.503 65.3639Z" fill="#F0E4E4"/>
<path d="M119.146 64.1852H119.39L119.6 64.2062H119.526L119.146 64.1852Z" fill="#F0E4E4"/>
<path d="M119.146 64.2356H119.39L119.6 64.2566H119.526L119.146 64.2356Z" fill="#F0E4E4"/>
<path d="M119.146 64.2881H119.39L119.6 64.3091H119.526L119.146 64.2881Z" fill="#F0E4E4"/>
<path d="M119.146 64.3385H119.39L119.6 64.3595H119.526L119.146 64.3385Z" fill="#F0E4E4"/>
<path d="M117.503 65.5593H117.747L117.957 65.5845H117.883L117.503 65.5593Z" fill="#F0E4E4"/>
<path d="M117.503 65.5342H117.747L117.957 65.5594H117.883L117.503 65.5342Z" fill="#F0E4E4"/>
<path d="M117.503 65.5089H117.747L117.957 65.5341H117.883L117.503 65.5089Z" fill="#F0E4E4"/>
<path d="M117.503 65.4836H117.747L117.957 65.5089H117.883L117.503 65.4836Z" fill="#F0E4E4"/>
<path d="M117.503 65.3261L117.747 65.3156L117.957 65.3492H117.883L117.503 65.3261Z" fill="#F0E4E4"/>
<path d="M117.503 65.282L117.747 65.2715L117.957 65.3051H117.883L117.503 65.282Z" fill="#F0E4E4"/>
<path opacity="0.1" d="M119.001 59.0835C118.978 59.3056 119.007 59.53 119.085 59.7391C119.124 59.8405 119.141 59.949 119.136 60.0576C119.131 60.1661 119.103 60.2724 119.054 60.3694C119.086 60.3768 119.119 60.3765 119.152 60.3685C119.184 60.3604 119.214 60.3449 119.239 60.3232C119.291 60.2775 119.336 60.2244 119.373 60.1656C119.412 60.1177 119.44 60.0617 119.455 60.0017C119.461 59.9073 119.447 59.8126 119.413 59.7243C119.372 59.5634 119.343 59.3998 119.325 59.2348C119.312 59.1339 119.325 58.8439 119.211 58.8145C119.098 58.7851 119.022 58.9994 119.001 59.0835Z" fill="black"/>
<path d="M119.016 59.0771C118.992 59.2992 119.021 59.5237 119.1 59.7327C119.139 59.8342 119.156 59.9427 119.151 60.0512C119.145 60.1598 119.117 60.266 119.068 60.3631C119.101 60.3705 119.134 60.3702 119.166 60.3621C119.198 60.3541 119.228 60.3386 119.253 60.3169C119.305 60.2711 119.351 60.218 119.388 60.1593C119.427 60.1113 119.455 60.0554 119.47 59.9954C119.476 59.901 119.462 59.8063 119.428 59.718C119.387 59.5571 119.357 59.3935 119.339 59.2284C119.327 59.1276 119.339 58.8376 119.226 58.8082C119.112 58.7788 119.037 58.991 119.016 59.0771Z" fill="#72351C"/>
<path opacity="0.1" d="M118.759 59.2326C118.81 59.2851 118.82 59.3629 118.862 59.4217C118.9 59.4618 118.945 59.4931 118.996 59.5134C119.047 59.5338 119.102 59.5426 119.157 59.5394C119.186 59.5378 119.216 59.5443 119.243 59.5583C119.289 59.5877 119.291 59.6549 119.32 59.7011C119.336 59.718 119.355 59.7315 119.376 59.7406C119.398 59.7498 119.42 59.7546 119.443 59.7546C119.466 59.7546 119.489 59.7498 119.51 59.7406C119.532 59.7315 119.551 59.718 119.566 59.7011C119.627 59.6287 119.66 59.5372 119.661 59.4427C119.671 59.3386 119.671 59.2337 119.661 59.1296C119.658 59.0104 119.611 58.8965 119.529 58.8102C119.46 58.7592 119.38 58.7247 119.295 58.7094C119.18 58.6687 119.056 58.6593 118.936 58.6821C118.878 58.7015 118.823 58.7291 118.772 58.764C118.701 58.8102 118.631 58.8572 118.562 58.9048C118.484 58.9594 118.337 59.0687 118.48 59.1275C118.57 59.1696 118.684 59.1506 118.759 59.2326Z" fill="black"/>
<path d="M118.774 59.2243C118.825 59.2768 118.835 59.3545 118.877 59.4134C118.914 59.4534 118.96 59.4848 119.011 59.5051C119.062 59.5254 119.117 59.5343 119.171 59.531C119.201 59.5295 119.231 59.536 119.257 59.55C119.304 59.5794 119.306 59.6466 119.335 59.6928C119.351 59.7097 119.37 59.7231 119.391 59.7323C119.412 59.7415 119.435 59.7463 119.458 59.7463C119.481 59.7463 119.504 59.7415 119.525 59.7323C119.546 59.7231 119.565 59.7097 119.581 59.6928C119.642 59.6203 119.675 59.5289 119.676 59.4344C119.686 59.3303 119.686 59.2254 119.676 59.1213C119.673 59.0021 119.626 58.8882 119.543 58.8019C119.474 58.7509 119.394 58.7164 119.31 58.7011C119.195 58.6604 119.071 58.651 118.951 58.6738C118.892 58.6932 118.837 58.7208 118.787 58.7557C118.715 58.8019 118.645 58.8489 118.577 58.8965C118.499 58.9511 118.352 59.0604 118.495 59.1192C118.585 59.1612 118.705 59.1444 118.774 59.2243Z" fill="#72351C"/>
<path d="M119.161 64.1852H119.405L119.615 64.2062H119.545L119.161 64.1852Z" fill="#F0E4E4"/>
<path d="M119.161 64.2356H119.405L119.615 64.2566H119.545L119.161 64.2356Z" fill="#F0E4E4"/>
<path d="M119.161 64.2881H119.405L119.615 64.3091H119.545L119.161 64.2881Z" fill="#F0E4E4"/>
<path d="M119.161 64.3385H119.405L119.615 64.3595H119.545L119.161 64.3385Z" fill="#F0E4E4"/>
<path d="M119.056 67.1268H119.299L119.51 67.1478H119.436L119.056 67.1268Z" fill="#F0E4E4"/>
<path d="M119.056 67.1793H119.299L119.51 67.2003H119.436L119.056 67.1793Z" fill="#F0E4E4"/>
<path d="M119.056 67.2297H119.299L119.51 67.2508H119.436L119.056 67.2297Z" fill="#F0E4E4"/>
<path d="M119.056 67.2802H119.299L119.51 67.3012H119.436L119.056 67.2802Z" fill="#F0E4E4"/>
</g>
<defs>
<linearGradient id="paint0_linear_703_15" x1="94.3099" y1="128.206" x2="94.3099" y2="79.9336" gradientUnits="userSpaceOnUse">
<stop stop-color="#808080" stop-opacity="0.25"/>
<stop offset="0.54" stop-color="#808080" stop-opacity="0.12"/>
<stop offset="1" stop-color="#808080" stop-opacity="0.1"/>
</linearGradient>
<linearGradient id="paint1_linear_703_15" x1="66973.3" y1="51526.1" x2="66973.3" y2="0" gradientUnits="userSpaceOnUse">
<stop stop-color="#808080" stop-opacity="0.25"/>
<stop offset="0.54" stop-color="#808080" stop-opacity="0.12"/>
<stop offset="1" stop-color="#808080" stop-opacity="0.1"/>
</linearGradient>
<linearGradient id="paint2_linear_703_15" x1="41060.2" y1="60206" x2="41060.2" y2="25931.3" gradientUnits="userSpaceOnUse">
<stop stop-color="#808080" stop-opacity="0.25"/>
<stop offset="0.54" stop-color="#808080" stop-opacity="0.12"/>
<stop offset="1" stop-color="#808080" stop-opacity="0.1"/>
</linearGradient>
<linearGradient id="paint3_linear_703_15" x1="3046.55" y1="5598.01" x2="3046.55" y2="4956.1" gradientUnits="userSpaceOnUse">
<stop stop-color="#808080" stop-opacity="0.25"/>
<stop offset="0.54" stop-color="#808080" stop-opacity="0.12"/>
<stop offset="1" stop-color="#808080" stop-opacity="0.1"/>
</linearGradient>
<clipPath id="clip0_703_15">
<rect width="200" height="128.209" fill="white"/>
</clipPath>
</defs>
</svg>
