<svg width="200" height="118" viewBox="0 0 200 118" fill="none" xmlns="http://www.w3.org/2000/svg">
<g clip-path="url(#clip0_703_162)">
<path d="M11.2711 109.664C11.0294 109.669 10.7956 109.752 10.6041 109.899C10.0356 108.397 9.1555 107.431 8.16679 107.431C7.17808 107.431 6.29802 108.397 5.72953 109.899C5.53798 109.752 5.30422 109.669 5.06252 109.664C3.93927 109.664 3.02869 111.564 3.02869 113.907H13.3049C13.3049 111.564 12.3943 109.664 11.2711 109.664Z" fill="#00BAFC"/>
<path d="M52.1019 113.671H0V114.144H52.1019V113.671Z" fill="#3F3D56"/>
<path d="M196.469 99.7115C196.228 99.7165 195.994 99.7987 195.802 99.9462C195.234 98.4439 194.354 97.4784 193.365 97.4784C192.376 97.4784 191.496 98.4439 190.928 99.9462C190.736 99.7987 190.503 99.7165 190.261 99.7115C189.138 99.7115 188.227 101.611 188.227 103.955H198.503C198.503 101.611 197.593 99.7115 196.469 99.7115Z" fill="#00BAFC"/>
<path d="M174.359 21.7533H124.746V20.7307H102.249V21.7533H52.4322C51.9915 21.7533 51.5551 21.8401 51.1479 22.0087C50.7408 22.1774 50.3708 22.4246 50.0592 22.7362C49.7476 23.0478 49.5004 23.4178 49.3317 23.8249C49.1631 24.2321 49.0763 24.6685 49.0763 25.1092V93.0443C49.0763 93.9343 49.4298 94.7879 50.0592 95.4173C50.6885 96.0467 51.5421 96.4002 52.4322 96.4002H174.359C175.249 96.4002 176.102 96.0467 176.732 95.4173C177.361 94.7879 177.714 93.9343 177.714 93.0443V25.1092C177.714 24.6685 177.628 24.2321 177.459 23.8249C177.29 23.4178 177.043 23.0478 176.732 22.7362C176.42 22.4246 176.05 22.1774 175.643 22.0087C175.236 21.8401 174.799 21.7533 174.359 21.7533Z" fill="#3F3D56"/>
<path opacity="0.2" d="M173.214 27.6832H53.5766V95.1741H173.214V27.6832Z" fill="black"/>
<path d="M113.293 25.8436C113.971 25.8436 114.52 25.2942 114.52 24.6165C114.52 23.9388 113.971 23.3894 113.293 23.3894C112.615 23.3894 112.066 23.9388 112.066 24.6165C112.066 25.2942 112.615 25.8436 113.293 25.8436Z" fill="#00BAFC"/>
<path d="M200 103.481H26.4062V103.955H200V103.481Z" fill="#3F3D56"/>
<path d="M129.741 52.8989V47.9057C129.741 47.1011 129.583 46.3045 129.275 45.5612C128.967 44.8179 128.516 44.1425 127.947 43.5736C127.378 43.0047 126.703 42.5534 125.959 42.2456C125.216 41.9377 124.419 41.7792 123.615 41.7792H118.622C118.622 41.1052 116.456 40.553 113.703 40.5006V34.4791C114.567 34.3703 115.356 33.9365 115.911 33.2661C116.466 32.5956 116.745 31.7389 116.69 30.8703C116.636 30.0016 116.252 29.1864 115.618 28.5906C114.984 27.9948 114.146 27.6631 113.276 27.6631C112.405 27.6631 111.568 27.9948 110.933 28.5906C110.299 29.1864 109.915 30.0016 109.861 30.8703C109.806 31.7389 110.085 32.5956 110.64 33.2661C111.195 33.9365 111.984 34.3703 112.848 34.4791V40.5006C110.096 40.553 107.93 41.1052 107.93 41.7792H102.081C101.276 41.7792 100.48 41.9377 99.7365 42.2456C98.9932 42.5534 98.3179 43.0047 97.749 43.5736C97.1801 44.1425 96.7288 44.8179 96.4209 45.5612C96.113 46.3045 95.9546 47.1011 95.9546 47.9057V52.8989C95.246 52.8989 94.6715 55.2924 94.6715 58.2449C94.6715 61.1974 95.246 63.5909 95.9546 63.5909V69.4395C95.9546 70.244 96.113 71.0407 96.4209 71.7839C96.7288 72.5272 97.1801 73.2026 97.749 73.7715C98.3179 74.3404 98.9932 74.7917 99.7365 75.0996C100.48 75.4074 101.276 75.5659 102.081 75.5659H123.615C124.419 75.5659 125.216 75.4074 125.959 75.0996C126.703 74.7917 127.378 74.3404 127.947 73.7715C128.516 73.2026 128.967 72.5272 129.275 71.7839C129.583 71.0407 129.741 70.244 129.741 69.4395V63.5909C130.45 63.5909 131.024 61.1974 131.024 58.2449C131.024 55.2924 130.45 52.8989 129.741 52.8989Z" fill="#00BAFC"/>
<path d="M103.308 43.7038H122.388C123.828 43.7038 125.209 44.2757 126.227 45.2938C127.245 46.3118 127.817 47.6926 127.817 49.1323V68.2129C127.817 69.6526 127.245 71.0334 126.227 72.0514C125.209 73.0694 123.828 73.6414 122.388 73.6414H103.308C101.868 73.6414 100.487 73.0694 99.4691 72.0514C98.4511 71.0334 97.8792 69.6526 97.8792 68.2129V49.1323C97.8792 47.6926 98.4511 46.3118 99.4691 45.2938C100.487 44.2757 101.868 43.7038 103.308 43.7038Z" fill="#3F3D56"/>
<path d="M106.005 57.9242C104.985 57.923 104.006 57.5171 103.285 56.7955C102.563 56.0739 102.157 55.0955 102.156 54.075C102.156 54.0183 102.179 53.9639 102.219 53.9238C102.259 53.8837 102.313 53.8612 102.37 53.8612C102.427 53.8612 102.481 53.8837 102.521 53.9238C102.561 53.9639 102.584 54.0183 102.584 54.075C102.584 54.9825 102.944 55.8527 103.586 56.4944C104.227 57.136 105.098 57.4965 106.005 57.4965C106.912 57.4965 107.783 57.136 108.424 56.4944C109.066 55.8527 109.426 54.9825 109.426 54.075C109.426 54.0183 109.449 53.9639 109.489 53.9238C109.529 53.8837 109.584 53.8612 109.64 53.8612C109.697 53.8612 109.751 53.8837 109.792 53.9238C109.832 53.9639 109.854 54.0183 109.854 54.075C109.853 55.0955 109.447 56.0739 108.726 56.7955C108.004 57.5171 107.026 57.923 106.005 57.9242Z" fill="#00BAFC"/>
<path d="M112.848 65.1947C112.054 65.1938 111.293 64.8781 110.732 64.3169C110.171 63.7556 109.855 62.9947 109.854 62.201C109.854 62.1443 109.877 62.0899 109.917 62.0498C109.957 62.0097 110.011 61.9871 110.068 61.9871C110.125 61.9871 110.179 62.0097 110.219 62.0498C110.259 62.0899 110.282 62.1443 110.282 62.201C110.282 62.8815 110.552 63.5342 111.033 64.0155C111.515 64.4967 112.167 64.767 112.848 64.767C113.528 64.767 114.181 64.4967 114.662 64.0155C115.144 63.5342 115.414 62.8815 115.414 62.201C115.414 62.1443 115.436 62.0899 115.477 62.0498C115.517 62.0097 115.571 61.9871 115.628 61.9871C115.685 61.9871 115.739 62.0097 115.779 62.0498C115.819 62.0899 115.842 62.1443 115.842 62.201C115.841 62.9947 115.525 63.7556 114.964 64.3169C114.403 64.8781 113.642 65.1938 112.848 65.1947Z" fill="#00BAFC"/>
<path d="M119.691 57.9242C118.67 57.923 117.692 57.5171 116.97 56.7955C116.249 56.0739 115.843 55.0955 115.842 54.075C115.842 54.0183 115.864 53.9639 115.904 53.9238C115.944 53.8837 115.999 53.8612 116.055 53.8612C116.112 53.8612 116.167 53.8837 116.207 53.9238C116.247 53.9639 116.269 54.0183 116.269 54.075C116.269 54.9825 116.63 55.8527 117.271 56.4944C117.913 57.136 118.783 57.4965 119.691 57.4965C120.598 57.4965 121.468 57.136 122.11 56.4944C122.752 55.8527 123.112 54.9825 123.112 54.075C123.112 54.0183 123.135 53.9639 123.175 53.9238C123.215 53.8837 123.269 53.8612 123.326 53.8612C123.383 53.8612 123.437 53.8837 123.477 53.9238C123.517 53.9639 123.54 54.0183 123.54 54.075C123.539 55.0955 123.133 56.0739 122.411 56.7955C121.69 57.5171 120.711 57.923 119.691 57.9242Z" fill="#00BAFC"/>
<path d="M106.005 56.2134C107.068 56.2134 107.93 55.3518 107.93 54.2889C107.93 53.226 107.068 52.3643 106.005 52.3643C104.942 52.3643 104.081 53.226 104.081 54.2889C104.081 55.3518 104.942 56.2134 106.005 56.2134Z" fill="#00BAFC"/>
<path d="M119.691 56.2134C120.754 56.2134 121.615 55.3518 121.615 54.2889C121.615 53.226 120.754 52.3643 119.691 52.3643C118.628 52.3643 117.766 53.226 117.766 54.2889C117.766 55.3518 118.628 56.2134 119.691 56.2134Z" fill="#00BAFC"/>
<path d="M112.848 64.1255C113.793 64.1255 114.559 63.7426 114.559 63.2702C114.559 62.7978 113.793 62.4148 112.848 62.4148C111.903 62.4148 111.137 62.7978 111.137 63.2702C111.137 63.7426 111.903 64.1255 112.848 64.1255Z" fill="#00BAFC"/>
<path d="M181.074 93.9461H169.398V93.1049C169.398 93.083 169.393 93.0613 169.385 93.041C169.377 93.0208 169.364 93.0024 169.349 92.9869C169.333 92.9714 169.315 92.9591 169.295 92.9507C169.274 92.9424 169.253 92.938 169.231 92.938H165.228C165.206 92.938 165.184 92.9424 165.164 92.9507C165.144 92.9591 165.125 92.9714 165.11 92.9869C165.094 93.0024 165.082 93.0208 165.074 93.041C165.065 93.0613 165.061 93.083 165.061 93.1049V93.9461H162.559V93.1049C162.559 93.083 162.554 93.0613 162.546 93.041C162.538 93.0208 162.525 93.0024 162.51 92.9869C162.494 92.9714 162.476 92.9591 162.456 92.9507C162.436 92.9424 162.414 92.938 162.392 92.938H158.389C158.367 92.938 158.345 92.9424 158.325 92.9507C158.305 92.9591 158.286 92.9714 158.271 92.9869C158.255 93.0024 158.243 93.0208 158.235 93.041C158.226 93.0613 158.222 93.083 158.222 93.1049V93.9461H155.72V93.1049C155.72 93.083 155.716 93.0613 155.707 93.041C155.699 93.0208 155.687 93.0024 155.671 92.9869C155.656 92.9714 155.637 92.9591 155.617 92.9507C155.597 92.9424 155.575 92.938 155.553 92.938H151.55C151.528 92.938 151.506 92.9424 151.486 92.9507C151.466 92.9591 151.447 92.9714 151.432 92.9869C151.417 93.0024 151.404 93.0208 151.396 93.041C151.387 93.0613 151.383 93.083 151.383 93.1049V93.9461H148.881V93.1049C148.881 93.083 148.877 93.0613 148.868 93.041C148.86 93.0208 148.848 93.0024 148.832 92.9869C148.817 92.9714 148.798 92.9591 148.778 92.9507C148.758 92.9424 148.736 92.938 148.714 92.938H144.711C144.689 92.938 144.668 92.9424 144.647 92.9507C144.627 92.9591 144.609 92.9714 144.593 92.9869C144.578 93.0024 144.565 93.0208 144.557 93.041C144.549 93.0613 144.544 93.083 144.544 93.1049V93.9461H142.042V93.1049C142.042 93.083 142.038 93.0613 142.03 93.041C142.021 93.0208 142.009 93.0024 141.993 92.9869C141.978 92.9714 141.96 92.9591 141.939 92.9507C141.919 92.9424 141.897 92.938 141.876 92.938H137.872C137.85 92.938 137.829 92.9424 137.808 92.9507C137.788 92.9591 137.77 92.9714 137.754 92.9869C137.739 93.0024 137.727 93.0208 137.718 93.041C137.71 93.0613 137.705 93.083 137.705 93.1049V93.9461H135.203V93.1049C135.203 93.083 135.199 93.0613 135.191 93.041C135.182 93.0208 135.17 93.0024 135.155 92.9869C135.139 92.9714 135.121 92.9591 135.101 92.9507C135.08 92.9424 135.059 92.938 135.037 92.938H131.033C131.012 92.938 130.99 92.9424 130.97 92.9507C130.949 92.9591 130.931 92.9714 130.916 92.9869C130.9 93.0024 130.888 93.0208 130.879 93.041C130.871 93.0613 130.867 93.083 130.867 93.1049V93.9461H128.365V93.1049C128.365 93.083 128.36 93.0613 128.352 93.041C128.344 93.0208 128.331 93.0024 128.316 92.9869C128.3 92.9714 128.282 92.9591 128.262 92.9507C128.241 92.9424 128.22 92.938 128.198 92.938H96.8393C96.8174 92.938 96.7957 92.9424 96.7755 92.9507C96.7552 92.9591 96.7368 92.9714 96.7213 92.9869C96.7059 93.0024 96.6936 93.0208 96.6852 93.041C96.6768 93.0613 96.6725 93.083 96.6725 93.1049V93.9461H94.1705V93.1049C94.1705 93.083 94.1662 93.0613 94.1578 93.041C94.1494 93.0208 94.1371 93.0024 94.1216 92.9869C94.1062 92.9714 94.0878 92.9591 94.0675 92.9507C94.0473 92.9424 94.0256 92.938 94.0037 92.938H90.0005C89.9786 92.938 89.9569 92.9424 89.9366 92.9507C89.9164 92.9591 89.898 92.9714 89.8825 92.9869C89.867 93.0024 89.8547 93.0208 89.8464 93.041C89.838 93.0613 89.8337 93.083 89.8337 93.1049V93.9461H87.3317V93.1049C87.3317 93.083 87.3274 93.0613 87.319 93.041C87.3106 93.0208 87.2983 93.0024 87.2828 92.9869C87.2673 92.9714 87.2489 92.9591 87.2287 92.9507C87.2085 92.9424 87.1868 92.938 87.1649 92.938H83.1617C83.1397 92.938 83.1181 92.9424 83.0978 92.9507C83.0776 92.9591 83.0592 92.9714 83.0437 92.9869C83.0282 93.0024 83.0159 93.0208 83.0075 93.041C82.9992 93.0613 82.9948 93.083 82.9948 93.1049V93.9461H80.4928V93.1049C80.4928 93.083 80.4885 93.0613 80.4801 93.041C80.4718 93.0208 80.4595 93.0024 80.444 92.9869C80.4285 92.9714 80.4101 92.9591 80.3899 92.9507C80.3696 92.9424 80.3479 92.938 80.326 92.938H76.3228C76.3009 92.938 76.2792 92.9424 76.259 92.9507C76.2387 92.9591 76.2204 92.9714 76.2049 92.9869C76.1894 93.0024 76.1771 93.0208 76.1687 93.041C76.1603 93.0613 76.156 93.083 76.156 93.1049V93.9461H73.654V93.1049C73.654 93.083 73.6497 93.0613 73.6413 93.041C73.6329 93.0208 73.6206 93.0024 73.6051 92.9869C73.5897 92.9714 73.5713 92.9591 73.551 92.9507C73.5308 92.9424 73.5091 92.938 73.4872 92.938H69.484C69.4621 92.938 69.4404 92.9424 69.4202 92.9507C69.3999 92.9591 69.3815 92.9714 69.366 92.9869C69.3506 93.0024 69.3383 93.0208 69.3299 93.041C69.3215 93.0613 69.3172 93.083 69.3172 93.1049V93.9461H66.8152V93.1049C66.8152 93.083 66.8109 93.0613 66.8025 93.041C66.7941 93.0208 66.7818 93.0024 66.7663 92.9869C66.7508 92.9714 66.7324 92.9591 66.7122 92.9507C66.692 92.9424 66.6703 92.938 66.6484 92.938H62.6452C62.6232 92.938 62.6016 92.9424 62.5813 92.9507C62.5611 92.9591 62.5427 92.9714 62.5272 92.9869C62.5117 93.0024 62.4994 93.0208 62.4911 93.041C62.4827 93.0613 62.4784 93.083 62.4784 93.1049V93.9461H59.9763V93.1049C59.9763 93.083 59.972 93.0613 59.9636 93.041C59.9553 93.0208 59.943 93.0024 59.9275 92.9869C59.912 92.9714 59.8936 92.9591 59.8734 92.9507C59.8531 92.9424 59.8314 92.938 59.8095 92.938H55.8063C55.7844 92.938 55.7627 92.9424 55.7425 92.9507C55.7223 92.9591 55.7039 92.9714 55.6884 92.9869C55.6729 93.0024 55.6606 93.0208 55.6522 93.041C55.6438 93.0613 55.6395 93.083 55.6395 93.1049V93.9461H47.9667C47.441 93.9461 46.9204 94.0496 46.4347 94.2508C45.949 94.452 45.5077 94.7469 45.136 95.1186C44.7642 95.4904 44.4694 95.9317 44.2682 96.4174C44.067 96.9031 43.9635 97.4236 43.9635 97.9493V99.7595C43.9635 100.821 44.3852 101.839 45.136 102.59C45.8867 103.341 46.905 103.763 47.9667 103.763H181.074C182.135 103.763 183.154 103.341 183.904 102.59C184.655 101.839 185.077 100.821 185.077 99.7595V97.9493C185.077 97.4236 184.973 96.9031 184.772 96.4174C184.571 95.9317 184.276 95.4904 183.904 95.1186C183.533 94.7469 183.091 94.452 182.606 94.2508C182.12 94.0496 181.599 93.9461 181.074 93.9461Z" fill="#3F3D56"/>
<path d="M151.687 75.2985H71.8769V75.7722H151.687V75.2985Z" fill="#00BAFC"/>
<path d="M77.5608 75.0617H57.9042C58.5332 67.6545 58.5332 60.2072 57.9042 52.8H77.5608C76.4785 60.4245 76.4152 67.857 77.5608 75.0617Z" fill="#D0CDE1"/>
<path d="M74.9557 57.2997H60.7461V58.2471H74.9557V57.2997Z" fill="#3F3D56"/>
<path d="M74.9557 60.3785H60.7461V61.3258H74.9557V60.3785Z" fill="#3F3D56"/>
<path d="M74.9557 63.4572H60.7461V64.4045H74.9557V63.4572Z" fill="#3F3D56"/>
<path d="M74.9557 66.5359H60.7461V67.4832H74.9557V66.5359Z" fill="#3F3D56"/>
<path d="M74.9557 69.6147H60.7461V70.562H74.9557V69.6147Z" fill="#3F3D56"/>
<path d="M25.3272 0.75959C25.3272 0.75959 22.2387 -0.343445 20.2533 4.06869C18.2678 8.48082 15.1793 13.3342 15.1793 13.3342L16.9442 13.7754C16.9442 13.7754 17.3854 10.6869 18.4884 10.2457L18.0472 14.2166C18.0472 14.2166 31.2836 18.8493 37.24 13.7754L37.0194 12.2311C37.0194 12.2311 37.9018 12.4517 37.9018 13.7754L38.5636 13.1136C38.5636 13.1136 37.9018 11.7899 35.9163 10.0251C34.6132 8.86669 34.1653 6.6629 34.0115 5.28506C33.8962 4.13454 33.4358 3.04573 32.6909 2.16142C31.3714 0.632261 28.9672 -0.993007 25.3272 0.75959Z" fill="#2F2E41"/>
<path d="M16.4204 98.0784L17.3677 103.525L21.1569 102.815L21.8674 98.0784H16.4204Z" fill="#FFB9B9"/>
<path d="M21.8674 101.157L16.6572 101.631L16.894 105.894L16.6572 111.341C16.6572 111.341 13.5784 117.498 18.0782 117.025C22.5779 116.551 22.1042 114.183 22.1042 114.183L23.2883 112.762L22.5779 109.209L21.8674 101.157Z" fill="#2F2E41"/>
<path d="M37.7348 98.0784L36.7875 103.525L32.9983 102.815L32.2878 98.0784H37.7348Z" fill="#FFB9B9"/>
<path d="M32.2877 101.157L37.4979 101.631L37.2611 105.894L37.4979 111.341C37.4979 111.341 40.5767 117.498 36.077 117.025C31.5773 116.551 32.0509 114.183 32.0509 114.183L30.8668 112.762L31.5773 109.209L32.2877 101.157Z" fill="#2F2E41"/>
<path d="M26.8407 15.426C29.849 15.426 32.2878 12.9873 32.2878 9.97899C32.2878 6.97069 29.849 4.53198 26.8407 4.53198C23.8324 4.53198 21.3937 6.97069 21.3937 9.97899C21.3937 12.9873 23.8324 15.426 26.8407 15.426Z" fill="#FFB9B9"/>
<path d="M23.2883 12.8209L23.9988 21.3467L30.63 21.1099C30.63 21.1099 28.7353 15.6628 29.9195 13.5314L23.2883 12.8209Z" fill="#FFB9B9"/>
<path d="M27.0776 19.6888L29.8053 17.9875L32.7614 19.452L37.4979 21.5835L35.8401 41.7137C35.8401 41.7137 39.6294 54.2655 38.9189 60.423C38.2084 66.5805 46.7342 97.368 39.8662 98.7889C32.9982 100.21 28.0249 101.631 27.788 99.2626C27.5512 96.8943 27.0776 60.6598 27.0776 60.6598C27.0776 60.6598 26.3671 99.0257 23.5252 99.4994C20.6832 99.9731 8.36826 101.868 9.31557 99.0257C10.2629 96.1838 16.6572 46.4502 19.7359 43.6083L20.2096 41.2401L16.1835 22.0571L23.744 18.289L27.0776 19.6888Z" fill="#2F2E41"/>
<path d="M12.8679 49.0554L12.6311 58.7653C12.6311 58.7653 10.3514 68.3517 14.2147 68.295C18.0781 68.2383 15.2362 58.7653 15.2362 58.7653L16.894 49.2922L12.8679 49.0554Z" fill="#FFB9B9"/>
<path d="M48.6792 38.8644L55.3349 45.9384C55.3349 45.9384 63.4296 51.5572 60.5144 54.0929C57.5991 56.6286 53.3946 47.6767 53.3946 47.6767L45.8386 41.7274L48.6792 38.8644Z" fill="#FFB9B9"/>
<path d="M19.8544 43.0162L36.0746 42.5189L35.8639 41.4177V41.4129L20.1859 41.1287L19.8544 43.0162Z" fill="#D0CDE1"/>
<path d="M23.17 43.4899C23.9547 43.4899 24.5909 42.8537 24.5909 42.069C24.5909 41.2842 23.9547 40.648 23.17 40.648C22.3852 40.648 21.749 41.2842 21.749 42.069C21.749 42.8537 22.3852 43.4899 23.17 43.4899Z" fill="#2F2E41"/>
<path d="M18.0781 22.294L16.5388 21.9387C16.5388 21.9387 14.5257 22.7676 14.0521 25.3727C13.5784 27.9778 7.42095 48.3449 10.4997 49.529C13.5784 50.7131 18.0781 51.1868 18.0781 50.7131C18.0781 50.2395 19.9727 32.4775 19.9727 32.4775L18.0781 22.294Z" fill="#2F2E41"/>
<path d="M32.5637 23.1967L37.4979 21.5835C37.4979 21.5835 39.8662 21.5835 39.8662 24.1886C39.8662 25.2633 44.4051 34.0907 44.4051 34.0907C44.4051 34.0907 55.3108 41.8646 53.6413 42.1428C50.7994 42.6165 49.1416 47.5898 49.1416 47.5898L38.4844 38.1168L32.5637 23.1967Z" fill="#2F2E41"/>
<path d="M20.1974 10.3846C20.1974 10.3846 21.9623 7.95797 23.5065 7.51675C25.0508 7.07554 25.2714 4.86947 25.2714 4.86947C25.2714 4.86947 29.2423 9.28161 31.669 9.5022C34.0957 9.7228 31.8896 4.20765 31.8896 4.20765L27.4775 3.10461L23.2859 3.54582L19.9768 5.75189L20.1974 10.3846Z" fill="#2F2E41"/>
<path d="M21.5121 10.2158C21.9045 10.2158 22.2226 9.73865 22.2226 9.15007C22.2226 8.56149 21.9045 8.08435 21.5121 8.08435C21.1198 8.08435 20.8017 8.56149 20.8017 9.15007C20.8017 9.73865 21.1198 10.2158 21.5121 10.2158Z" fill="#FFB9B9"/>
</g>
<defs>
<clipPath id="clip0_703_162">
<rect width="200" height="117.051" fill="white"/>
</clipPath>
</defs>
</svg>
